<svg width="356" height="281" viewBox="0 0 356 281" fill="none" xmlns="http://www.w3.org/2000/svg">
<path d="M44.9588 0.915314C44.9588 2.12352 45.1239 3.35919 44.9129 4.53079C44.4266 7.21264 41.7566 9.2904 39.2242 9.1531C36.8295 9.02496 34.4164 7.00212 33.9852 4.53079C33.7833 3.35919 33.9485 2.12352 33.9485 0.915314H44.9588Z" fill="#FCEACD"/>
<path d="M0.917526 32.0358C1.80753 31.9718 2.28464 31.0473 3.32144 31.0748C5.4501 31.148 6.42268 31.8985 6.42268 33.8665C6.42268 35.8344 5.4501 36.5849 3.32144 36.6581C2.28464 36.6948 1.80753 35.7611 0.917526 35.6971V32.0358Z" fill="#FCEACD"/>
<path d="M151.557 249.797C140.326 255.728 128.582 260.442 116.425 264.058C112.489 265.229 108.406 265.943 104.286 266.511C100.845 266.987 97.4412 267.261 93.9913 267.27C86.7154 267.289 79.7972 265.733 73.659 261.769C68.1079 258.19 63.7772 253.541 61.355 247.134C60.208 244.104 59.1162 241.093 58.2629 237.98C58.1436 237.559 57.8408 237.157 57.8317 236.745C57.6665 230.576 56.2352 224.461 56.9233 218.265C57.4646 213.404 58.2812 208.572 58.9694 203.73C61.7036 206.137 64.0617 208.901 66.9702 211.171C70.6678 214.054 75.4298 214.082 78.999 210.961C81.9442 208.379 85.0546 205.954 88.4862 203.986C99.524 197.652 110.663 197.46 121.517 204.068C129.784 209.102 136.418 216.031 141.648 224.159C144.831 229.111 147.355 234.493 147.685 240.488C147.887 244.159 148.951 247.243 151.575 249.797H151.557Z" fill="#FDEACD"/>
<path d="M151.557 249.797C148.942 247.243 147.868 244.159 147.667 240.488C147.345 234.484 144.822 229.111 141.629 224.159C136.399 216.031 129.775 209.093 121.499 204.068C110.635 197.46 99.5057 197.652 88.4678 203.986C85.0363 205.954 81.9351 208.379 78.9806 210.961C75.4114 214.082 70.6495 214.063 66.9519 211.171C64.0433 208.901 61.6853 206.137 58.951 203.73C55.8681 199.647 52.5467 195.711 49.7482 191.446C40.8299 177.872 34.8109 163.081 31.1959 147.246C28.2414 134.276 28.0488 121.178 28.5259 108.007C28.5901 106.258 28.691 104.409 30.2049 103.11C31.2142 103.375 32.1593 103.576 32.0859 105.041C31.9482 107.842 31.9758 110.652 31.9391 113.453C31.0032 113.846 31.2509 114.67 31.2509 115.393C31.2601 119.603 31.462 123.786 31.9207 127.997C32.4621 133.059 33.0126 138.084 33.8567 143.109C35.8386 154.934 39.8481 166.101 45.0505 176.81C50.1336 187.254 57.0885 196.489 64.8599 205.103C65.6398 205.972 66.3555 207.098 67.8235 206.915C67.952 207.144 68.0804 207.382 68.2089 207.61C68.3465 207.464 68.4841 207.327 68.6218 207.18C68.4015 207.043 68.1813 206.915 67.952 206.778C67.9244 206.173 68.0345 205.533 67.8419 204.984C65.7499 199.034 64.814 192.929 65.0985 186.632C65.1535 185.433 65.0893 184.224 65.0709 183.025C65.9793 175.739 67.9703 168.801 71.4202 162.257C72.09 160.975 73.6406 160.069 73.3745 158.321C74.7508 157.589 74.8609 155.932 76.384 154.925C71.2826 152.692 69.5943 147.749 66.2454 144.536C64.8507 144.839 64.08 145.79 63.7313 146.642C62.9056 148.674 61.043 149.497 59.4832 150.541C55.3819 153.305 51.1612 151.96 49.161 147.346C48.271 145.296 47.6471 143.164 47.693 140.848C47.7572 137.205 47.6196 133.553 47.5645 129.901C47.6471 127.786 47.7297 125.672 47.8031 123.558C49.3629 122.532 48.3995 121.095 48.4087 119.823C48.4637 119.521 48.5646 119.228 48.5555 118.926C48.4087 108.473 49.0876 98.0388 47.9774 87.5676C47.0691 78.9637 49.5831 70.6344 52.6018 62.5705C53.0697 61.3074 53.6936 60.1084 54.134 58.8361C54.2441 58.5157 54.0056 57.8659 53.7303 57.7011C53.4734 57.5455 52.7669 57.6828 52.5651 57.9391C51.1612 59.7056 49.8492 61.5362 48.5004 63.3394C44.6835 68.4102 41.518 73.8746 38.9765 79.6685C38.27 81.2795 37.4442 81.7829 35.8661 81.3435C35.4257 79.4672 35.9303 77.8013 36.7744 76.108C40.9125 67.8244 45.8396 60.026 52.0421 53.1703C60.4099 43.9257 69.5393 35.4774 80.4945 29.2441C83.0911 27.7613 85.6877 26.2785 88.2843 24.7957C92.0095 23.2031 95.7346 21.6104 99.4598 20.0178C110.599 15.2673 122.242 12.5031 134.243 10.9013C144.859 9.48259 155.475 9.8121 166.081 10.3796C171.293 10.6633 176.532 11.5237 181.67 12.7319C182.881 13.0157 183.551 13.5008 183.973 14.5534C183.487 15.4504 183.175 16.8325 181.78 16.2833C179.881 15.5419 177.881 15.7616 175.991 15.304C168.898 13.6106 161.668 13.2262 154.438 12.8875C150.355 12.6953 146.29 13.1164 142.207 13.4825C137.088 13.9401 132.014 14.5168 126.949 15.4138C112.131 18.0316 98.2762 23.2855 85.1464 30.4523C82.981 31.6331 80.3477 32.4294 78.8522 34.7177L78.898 34.6994C77.6043 34.7909 76.6685 35.395 76.1088 36.5666L76.1455 36.53C74.8518 36.6124 73.9159 37.2256 73.3654 38.4064L73.4021 38.3698C72.8424 38.443 72.457 38.681 72.4203 39.3034L72.457 39.2668C71.8514 39.2942 71.4844 39.5597 71.5028 40.2095L71.5303 40.1729C70.2274 40.1272 69.6586 40.8045 69.6494 42.0401L69.6953 41.9944C69.0805 42.0218 68.8144 42.4246 68.6676 42.9463C67.9978 43.5413 67.1812 44.0355 66.6858 44.7495C62.9056 50.1956 59.2905 55.7332 56.6205 61.8383C53.1981 69.655 51.1245 77.7281 51.409 86.3045C51.5007 89.0138 51.8677 91.7415 52.0054 94.3959C52.4366 103.073 52.666 111.814 51.9778 120.455C51.5282 126.075 51.5191 131.649 51.4273 137.251C51.3998 138.926 51.3539 140.601 51.3631 142.276C51.3723 143.63 51.409 144.921 52.198 146.193C53.4367 148.198 54.5836 148.903 56.5746 147.996C59.4098 146.706 61.4926 144.546 62.9698 141.791C63.2909 141.186 63.4286 140.61 62.9147 140.161C61.3641 138.798 60.5017 136.555 58.0977 136.244C57.7674 135.411 56.9141 134.889 56.8315 133.873C56.6847 132.088 57.3912 131.53 59.3089 132.088C59.7309 132.216 60.0979 132.518 60.4925 132.738C64.9333 137.864 69.6402 142.77 73.7691 148.161C74.5031 149.122 75.439 149.946 76.3473 150.751C77.8612 152.097 79.8981 153.012 81.6873 152.61C85.1556 151.822 88.7706 151.502 92.0829 150.028C95.6704 148.436 99.5515 147.694 103.359 147.475C108.617 147.163 113.911 146.953 119.214 148.097C123.793 149.086 128.114 150.623 132.252 152.61C139.005 155.85 144.675 160.6 149.694 166.138C155.622 172.682 160.466 179.785 161.466 188.865C161.558 189.744 161.952 190.073 162.806 190.348C166.99 191.684 171.036 191.245 175.174 190.027C182.661 187.821 188.9 190.201 193.91 196.325C196.699 199.73 200.057 202.677 203.168 205.826C203.7 206.366 204.37 206.631 205.113 206.887C210.765 208.837 215.701 207.986 220.133 203.794C223.684 200.434 226.482 196.499 229.271 192.554C233.217 186.97 237.722 182.064 243.539 178.266C250.494 173.726 258.256 170.943 265.697 167.483C270.496 165.25 275.184 162.696 278.726 158.797C285.396 151.438 288.305 142.44 288.773 132.619C288.837 131.869 288.92 131.109 288.975 130.358C289.562 123.201 288.626 116.098 287.975 109.013C287.654 105.508 287.314 101.856 285.745 98.5056C284.543 95.9427 283.809 93.151 282.534 90.6156C279.974 85.5174 277.487 80.355 273.863 75.87C273.45 75.2384 273.551 74.2499 272.542 74.0394L272.579 74.076C272.523 73.4993 272.312 73.0966 271.643 73.1149H271.67C271.597 72.6756 271.67 72.1172 271.422 71.8152C268.587 68.2638 265.881 64.5934 262.807 61.2617C249.842 47.2208 234.758 36.0357 217.261 28.1732C214.105 26.7545 211.013 25.1893 207.792 23.9353C206.177 23.3038 206.397 22.2054 206.407 21.0155C206.875 20.1643 207.453 20.2832 208.288 20.5853C215.408 23.1756 222.151 26.5348 228.803 30.132C235.74 33.8847 242.034 38.5986 248.512 43.0378C253.788 48.2551 259.733 52.6852 264.715 58.296C273.147 67.7878 280.176 78.0667 285.718 89.4623C291.746 101.856 294.682 114.972 295.462 128.638C295.608 131.219 295.691 133.8 295.801 136.372C295.709 137.425 295.535 138.486 295.544 139.539C295.581 149.131 294.003 158.532 291.461 167.712C287.617 181.607 281.836 194.677 273.432 206.521C269.734 211.729 265.459 216.425 261.321 221.249L261.403 221.331C260.77 221.377 260.458 221.834 260.119 222.283C259.449 222.255 259.018 222.676 258.577 223.098C250.393 230.914 240.603 236.049 230.161 240.104C228.592 240.708 227.078 241.358 225.675 239.811C225.647 238.191 226.519 237.45 228.042 237.038C233.409 235.573 238.263 232.891 243.062 230.209C251.264 225.633 258.458 219.766 264.238 212.297C267.835 208.846 270.468 204.7 273.147 200.544C284.837 182.366 291.158 162.531 291.948 140.939C293.443 138.34 292.461 135.676 292.14 133.013C292.36 135.759 290.525 138.175 290.957 140.939C290.773 141.8 290.599 142.669 290.406 143.53C289.516 147.42 287.479 150.88 286.241 154.642C282.479 159.703 278.368 164.417 272.771 167.575C267.174 170.742 261.201 173.122 255.32 175.694C251.053 177.561 247.053 179.886 243.199 182.476C237.942 186.009 234.474 191.043 231.024 196.206C228.207 200.425 225.188 204.562 220.867 207.556C212.655 213.23 203.562 212.434 197.002 204.508C194.231 201.158 191.102 198.064 187.863 195.153C185.505 193.039 182.634 191.419 179.211 192.471C174.825 193.817 170.366 194.155 165.815 194.064C164.494 194.036 163.127 193.625 161.54 194.375C162.815 197.533 162.136 200.846 162.457 204.096C162.457 209.945 161.595 215.693 160.64 221.459C160.127 224.562 158.87 227.454 158.53 230.576C156.75 234.301 154.97 238.035 153.181 241.761C151.878 244.47 151.933 244.781 154.117 246.74C154.915 247.454 155.796 247.838 156.851 248.177C161.209 249.577 165.705 250.328 170.164 249.66C173.174 249.202 176.147 249.083 179.147 248.918C179.752 248.882 180.395 249.001 180.964 248.845C187.863 247.005 195.094 246.777 201.929 244.543C203.25 244.113 205.223 243.527 206.462 245.303C206.342 246.905 205.48 247.582 203.883 247.875C196.195 249.312 188.533 250.886 180.854 252.36C179.817 252.561 178.725 252.497 177.661 252.488C172.403 252.479 167.201 253.44 161.879 252.754C158.218 252.287 154.768 251.573 151.557 249.77V249.797ZM156.723 223.253C158.328 215.134 159.292 206.961 158.594 198.668C159.163 195.913 157.842 193.286 157.934 190.641C158.145 185.057 155.869 180.472 153.052 175.95C149.07 169.552 143.776 164.344 137.73 160.024C129.922 154.449 121.297 150.898 111.397 150.889C105.158 150.889 99.1754 151.886 93.1472 153.415C89.7065 154.294 86.4034 155.895 82.6415 155.703C79.2467 155.529 78.0172 156.857 76.907 160.728C74.3104 162.44 73.5489 165.305 72.5396 167.932C70.5486 173.103 68.475 178.284 68.7594 183.995C68.741 185.982 68.7869 187.959 68.6952 189.936C68.4016 196.233 70.2274 202.073 72.5121 207.803C73.3287 209.862 74.6499 210.21 76.3748 208.855C77.4483 208.004 78.4026 206.997 79.3843 206.045C85.4216 200.178 92.7894 196.938 101.02 196.004C109.699 195.025 117.764 197.368 125.004 202.174C130.316 205.707 134.564 210.466 138.941 215.052C143.996 220.352 147.511 226.567 150.034 233.422C150.474 234.612 149.759 236.223 151.153 237.019C151.823 237.093 152.052 236.681 152.245 236.287C154.209 232.104 155.429 227.665 156.704 223.253H156.723ZM54.2808 56.438C54.4001 56.5478 54.501 56.6485 54.6111 56.7492C54.7121 56.5478 54.8405 56.3556 54.8864 56.1359C54.9047 56.0627 54.7029 55.9345 54.602 55.8339C54.4919 56.0352 54.3909 56.2274 54.2808 56.438Z" fill="#241E2F"/>
<path d="M295.792 136.427C295.682 133.846 295.599 131.265 295.452 128.693C294.673 115.027 291.736 101.911 285.708 89.5173C280.167 78.1308 273.138 67.8427 264.706 58.351C259.724 52.7401 253.778 48.31 248.503 43.0928C252.421 42.809 256.155 43.9257 259.935 44.6213C262.11 45.0241 264.321 45.2621 266.486 45.619C272.744 46.635 278.882 48.2002 285.103 49.2803C291.094 50.3146 296.865 52.0628 302.435 54.168C309.5 56.8316 316.556 59.9253 321.62 65.9755C325.116 70.1493 327.502 74.6343 327.658 80.4191C327.878 88.7576 325.134 95.9427 321.299 103.137C317.657 109.956 313.326 116.263 308.775 122.432C307.013 124.821 304.885 126.99 302.958 129.297C301.426 131.136 299.499 132.61 298.324 134.798C297.866 135.649 297.058 136.564 295.783 136.445L295.792 136.427Z" fill="#FCE9CC"/>
<path d="M88.2843 24.814C85.6877 26.2968 83.1003 27.7888 80.4945 29.2624C69.5393 35.4957 60.4099 43.9349 52.0421 53.1886C45.8396 60.0443 40.9125 67.8427 36.7744 76.1263C35.9303 77.8196 35.4257 79.4855 35.8661 81.3619C35.9395 83.6959 34.343 85.7462 34.7467 88.1352C33.1594 87.6775 32.1409 88.2084 31.7005 89.8376C30.9757 92.5378 30.2325 95.238 29.4985 97.929C28.9112 97.874 28.2965 98.1029 27.746 97.6452C19.6809 91.0275 12.0471 83.9613 6.83557 74.8357C3.82608 69.5818 1.73412 63.8154 1.86258 57.5821C1.93598 54.1589 0.972575 50.5525 2.7801 47.349C4.47752 44.3467 5.08309 40.475 8.94587 39.0471C16.0842 32.3562 25.1219 30.1961 34.3246 28.3471C41.4905 26.9101 48.7298 26.2602 55.9782 25.4365C66.7775 24.2099 77.5218 25.0978 88.2843 24.814Z" fill="#FDEACD"/>
<path d="M78.843 34.736C80.3386 32.4477 82.9719 31.6514 85.1372 30.4706C98.267 23.3038 112.131 18.0499 126.94 15.4321C132.004 14.5351 137.078 13.9585 142.198 13.5008C146.281 13.1347 150.346 12.7136 154.429 12.9059C161.659 13.2445 168.889 13.6289 175.981 15.3223C177.872 15.7708 179.881 15.5602 181.771 16.3017C183.166 16.8508 183.478 15.4687 183.964 14.5717C185.515 15.4504 187.184 15.7159 188.937 15.5603C189.001 16.4298 188.607 17.8485 189.561 17.9675C191.589 18.2238 193.598 20.6768 195.745 18.2696C198.644 18.3062 201.085 19.8897 203.746 20.7134C204.663 20.9972 205.517 20.9606 206.397 21.0613C206.397 22.2512 206.168 23.3495 207.783 23.9811C211.003 25.2442 214.095 26.8094 217.252 28.219C234.749 36.0815 249.833 47.2666 262.798 61.3074C265.871 64.6391 268.578 68.3095 271.413 71.8609C271.661 72.163 271.588 72.7213 271.661 73.1607C271.074 73.179 270.459 73.4078 269.945 72.9135C265.982 69.0876 261.412 66.1311 256.724 63.2662C255.274 62.3783 253.971 62.3509 252.521 62.1861C252.274 60.6026 252.558 58.772 250.815 57.8201C249.374 57.0238 247.998 56.6302 246.191 57.3899C244.768 57.994 242.952 57.6553 241.309 57.7286C241.254 57.2434 240.997 56.8865 240.529 56.7492C237.437 55.8339 234.354 54.9094 231.253 54.0399C226.73 52.7859 222.206 51.5594 217.665 50.3512C210.719 48.5114 203.828 46.4886 197.121 43.9074C197.222 43.468 197.286 43.0104 197.424 42.5802C198.213 40.1363 197.883 38.6627 196.25 37.5368C194.286 36.1822 192.671 36.3927 190.625 38.2782C189.854 38.9922 189.084 39.697 188.313 40.4017C184.331 38.1135 180.147 36.1089 176.413 33.482C168.467 27.8986 160.209 23.258 150.493 21.4182C146.125 20.5945 141.73 19.8256 137.363 19.3588C129.105 18.4709 120.728 19.13 112.736 21.2077C103.056 23.734 93.6519 27.2488 85.0363 32.5942C83.2196 33.72 81.3295 35.2486 78.843 34.736Z" fill="#F7B6D2"/>
<path d="M225.656 239.857C227.06 241.404 228.583 240.763 230.143 240.15C240.584 236.095 250.374 230.96 258.559 223.143C258.999 222.722 259.43 222.301 260.1 222.329C260.834 222.429 261.458 222.365 261.385 221.377L261.302 221.294C263.669 222.164 265.826 221.056 267.743 220.141C274.716 216.818 281.332 212.91 287.442 208.077C294.039 202.86 299.691 196.709 305.49 190.723C309.94 186.128 313.72 180.902 317.528 175.721C321.831 169.872 325.538 163.639 329.805 157.223C331.108 160.014 329.649 162.266 329.089 164.207C327.291 170.531 325.208 176.838 322.501 182.824C319.886 188.6 316.501 194.036 312.739 199.199C308.087 205.569 302.765 211.327 297.003 216.681C290.213 222.997 282.791 228.516 274.799 233.239C270.854 235.564 266.927 237.962 262.779 239.884C256.247 242.914 249.714 245.962 242.777 248.049C237.116 249.751 231.372 250.895 225.537 251.921C220.408 252.818 215.912 252.561 211.233 250.557C208.673 249.458 207.875 247.802 208.26 245.266C210.508 243.857 213.022 243.463 215.619 243.417C216.646 244.955 217.958 244.296 219.114 243.747C220.839 242.923 223.454 243.491 224.023 240.772C224.564 240.461 225.106 240.15 225.647 239.839L225.656 239.857Z" fill="#FCEACD"/>
<path d="M34.7467 88.126C34.343 85.7462 35.9487 83.6867 35.8661 81.3527C37.4442 81.792 38.27 81.2886 38.9765 79.6777C41.518 73.8838 44.6835 68.4194 48.5004 63.3486C49.8584 61.5454 51.1704 59.7148 52.5651 57.9482C52.7669 57.6919 53.4734 57.5546 53.7303 57.7102C54.0056 57.8842 54.2441 58.534 54.134 58.8452C53.7028 60.1175 53.0789 61.3257 52.6018 62.5797C49.5923 70.6436 47.0691 78.9729 47.9774 87.5768C49.0876 98.0571 48.4087 108.482 48.5555 118.935C48.5555 119.237 48.4637 119.53 48.4087 119.832C46.3718 120.601 46.1607 121.883 47.8031 123.567C47.7205 125.681 47.6379 127.795 47.5645 129.91C46.1424 129.818 45.8396 130.569 45.8488 131.869C45.913 137.47 45.757 143.081 45.9313 148.683C45.9956 150.687 46.5277 152.765 47.2893 154.632C49.0326 158.953 51.1521 158.806 54.29 157.818C57.4188 156.829 60.208 155.236 63.0891 153.79C66.2362 152.207 66.8326 152.39 69.3741 154.751C70.6862 155.969 71.6312 157.598 73.3745 158.339C73.6406 160.088 72.0992 160.994 71.4202 162.275C67.9703 168.811 65.9793 175.758 65.0709 183.044C64.7681 183.044 64.3828 183.153 64.1626 183.016C59.8594 180.16 55.9507 176.792 52.6935 172.829C45.8763 164.499 41.2153 154.916 38.2058 144.683C35.4624 135.347 32.8382 125.91 32.9759 116.006C32.9851 115.082 33.5906 113.755 31.9207 113.462C31.9574 110.661 31.9207 107.851 32.0675 105.05C32.1409 103.586 31.1959 103.384 30.1866 103.119C30.2233 102.634 30.26 102.149 30.2967 101.663C31.7739 101.755 33.1135 101.691 32.9667 99.6314C32.8749 98.3958 33.5264 97.2882 33.7099 96.1441C34.1228 93.4897 35.4899 90.936 34.7283 88.1443L34.7467 88.126Z" fill="#F4BB74"/>
<path d="M225.656 239.857C225.115 240.168 224.574 240.479 224.032 240.79C223.867 239.655 223.518 238.612 222.069 239.024C220.371 239.509 218.747 240.351 217.022 240.681C215.105 241.047 215.719 242.346 215.628 243.445C213.031 243.481 210.526 243.875 208.269 245.294C207.664 245.312 207.058 245.33 206.462 245.34C205.223 243.564 203.25 244.14 201.929 244.58C195.094 246.822 187.863 247.042 180.964 248.882C180.395 249.037 179.752 248.918 179.147 248.955C176.147 249.12 173.174 249.248 170.164 249.696C165.705 250.374 161.209 249.614 156.851 248.214C155.796 247.875 154.915 247.491 154.117 246.777C151.933 244.818 151.878 244.507 153.181 241.797C154.97 238.072 156.75 234.338 158.53 230.612C158.989 230.631 159.466 230.566 159.897 230.676C167.458 232.571 175.119 233.505 182.927 233.459C184.826 233.45 186.891 232.763 188.662 234.209C188.937 234.438 189.643 234.457 189.983 234.273C193.148 232.544 196.552 233.431 199.81 233.505C203.911 233.596 207.966 232.846 211.875 232.232C216.417 231.509 221.041 230.338 225.574 229.065C232.831 227.043 239.805 224.443 246.695 221.514C251.751 219.363 256.412 216.462 260.898 213.322C262.018 212.535 263.027 212.343 264.238 212.352C258.449 219.821 251.255 225.688 243.062 230.264C238.263 232.937 233.409 235.628 228.042 237.093C226.519 237.504 225.647 238.255 225.675 239.866L225.656 239.857Z" fill="#D29368"/>
<path d="M307.041 40.1455C310.39 41.1706 313.858 41.9029 317.051 43.2758C324.116 46.3055 331.181 49.3443 337.484 53.93C342.751 57.7652 347.715 61.82 351.385 67.2569C353.761 70.7717 355.339 74.5245 355.11 78.918C354.936 82.2039 355.56 85.5998 354.119 88.7026C352.431 92.3456 350.559 95.7963 346.274 97.2974C343.512 98.2585 340.888 98.3958 338.53 96.9587C336.319 95.6041 333.778 94.5423 332.64 91.714C331.676 89.3159 330.236 87.1466 332.034 84.5929C332.163 79.3665 332.832 74.0852 330.227 69.1699C327.006 63.074 323.29 57.335 318.271 52.5022C316.767 51.056 315.289 49.6006 314.179 47.7151C313.298 46.214 311.757 44.9234 310.225 44.0355C308.692 43.1568 307.793 41.8205 307.041 40.1546V40.1455Z" fill="#FDEACD"/>
<path d="M46.4176 232.498C50.0786 233.505 54.6937 234.53 57.0151 239.921C58.8318 244.141 57.3087 251.692 52.2164 254.218C48.1976 256.204 44.2798 257.202 40.2794 255.289C34.6641 252.598 29.8838 247.976 33.0126 240.196C34.655 236.122 40.2977 232.461 46.4176 232.498Z" fill="#FDEACD"/>
<path d="M24.0025 25.6287C22.1674 25.6287 20.3416 25.6378 18.5065 25.6287C18.0202 25.6287 17.5706 25.3449 17.5523 24.8964C17.5339 24.512 17.7358 23.9445 18.0294 23.734C20.8554 21.7569 24.1676 20.9423 27.4432 20.1826C31.9299 19.1483 36.5726 18.8828 41.0593 18.0774C45.9313 17.2078 50.7025 17.8028 55.492 17.4C56.1342 17.3451 56.7215 17.519 56.7765 18.2879C56.8132 18.7822 56.3728 18.9469 56.015 19.2215C53.8037 20.8782 51.0695 21.2535 48.5555 21.8668C42.4172 23.3679 36.178 24.4937 29.9389 25.5738C28.0121 25.9124 25.9752 25.6287 23.9933 25.6287H24.0025Z" fill="#FCEACD"/>
<path d="M61.8688 264.524C63.9515 264.47 67.7226 267.719 67.8969 269.723C68.0804 271.865 64.447 275.435 61.9972 275.499C59.9144 275.554 56.1434 272.305 55.9782 270.3C55.7947 268.149 59.4281 264.589 61.8779 264.524H61.8688Z" fill="#FCEACD"/>
<path d="M34.7467 88.126C35.5082 90.9268 34.1411 93.4806 33.7282 96.1258C33.5539 97.2699 32.9025 98.3866 32.9851 99.6131C33.1319 101.682 31.8014 101.746 30.3151 101.645C28.7553 100.684 29.737 99.1646 29.4985 97.9107C30.2325 95.2105 30.9757 92.5195 31.7005 89.8193C32.1318 88.1992 33.1502 87.6592 34.7467 88.1168V88.126Z" fill="#281D30"/>
<path d="M195.745 18.2604C193.598 20.6677 191.589 18.2238 189.561 17.9584C188.607 17.8394 189.001 16.4206 188.937 15.5511C190.983 13.5191 192.827 15.7616 194.754 15.9081C195.699 15.9813 195.497 17.4092 195.736 18.2513L195.745 18.2604Z" fill="#281D30"/>
<path d="M252.531 62.177C253.98 62.3417 255.283 62.3692 256.733 63.257C261.421 66.122 265.991 69.0784 269.954 72.9044C270.468 73.3987 271.083 73.1698 271.67 73.1515H271.643C271.588 73.8197 271.909 74.1309 272.579 74.1035L272.542 74.0668C272.505 75.0188 272.303 76.0897 273.863 75.8975C277.487 80.3825 279.965 85.5448 282.534 90.6431C283.809 93.1693 284.534 95.961 285.745 98.5331C287.314 101.883 287.653 105.535 287.975 109.041C288.626 116.125 289.562 123.228 288.975 130.386C288.911 131.146 288.837 131.896 288.773 132.647C288.177 132.729 287.305 132.729 287.296 133.406C287.296 135.447 286.002 137.031 285.516 138.825C282.882 148.417 275.496 153.388 267.33 157.241C260.586 160.417 253.274 162.33 246.246 164.866C241.282 166.66 236.621 169.012 233.345 173.836C230.262 178.385 227.372 182.989 224.748 187.803C222.316 192.261 219.536 196.508 215.683 199.968C211.315 203.885 206.095 203.19 202.7 198.375C200.966 195.904 200.186 193.112 199.048 190.421C196.754 184.993 194.635 181.881 187.423 182.009C181.67 182.11 176.009 183.034 170.284 183.062C166.191 183.08 165.531 182.504 164.219 178.723C161.631 171.264 160.09 163.493 156.998 156.161C154.621 150.532 151.465 145.635 146.951 141.562C146.29 140.967 145.621 140.93 144.85 141.049C143.749 140.344 143.648 138.779 142.235 138.267C139.748 137.37 137.473 136.006 134.996 135.036C133.197 134.331 131.858 134.724 130.408 135.548C126.609 134.779 123.013 136.692 119.251 136.399C117.728 138.111 115.544 137.123 113.691 137.727C106.323 140.134 98.9093 142.45 91.3947 144.289C87.4677 145.25 83.2288 145.104 79.2375 144.289C74.7875 143.383 71.9524 140.253 69.6769 136.363C67.2088 132.134 65.0067 131.493 60.4833 132.784C60.0888 132.564 59.7217 132.262 59.2997 132.134C57.3821 131.567 56.6756 132.134 56.8224 133.919C56.9049 134.926 57.7582 135.457 58.0886 136.29C56.0455 137.626 53.8282 137.958 51.4365 137.287C51.5191 131.686 51.5374 126.111 51.987 120.491C52.6752 111.851 52.4458 103.1 52.0145 94.4325C51.8861 91.7689 51.5099 89.0413 51.4181 86.3411C51.1245 77.7647 53.2073 69.6917 56.6297 61.8749C59.2997 55.7606 62.9147 50.223 66.6949 44.7861C67.1904 44.0722 68.007 43.5779 68.6768 42.9829C69.3374 43.0012 69.7136 42.7175 69.7044 42.031L69.6586 42.0768C70.7321 41.9029 71.3835 41.2988 71.5395 40.2095L71.512 40.2462C72.1726 40.2736 72.5029 39.9716 72.4662 39.3034L72.4295 39.34C73.0809 39.3675 73.4112 39.0654 73.4112 38.4064L73.3745 38.443C74.6958 38.3972 76.4666 39.0288 76.1546 36.5666L76.1179 36.6032C77.4392 36.5575 79.2283 37.2165 78.9072 34.736L78.8613 34.7543C81.3387 35.2669 83.2379 33.7383 85.0546 32.6125C93.661 27.2671 103.066 23.7431 112.755 21.226C120.746 19.1391 129.123 18.4893 137.381 19.3771C141.758 19.8439 146.153 20.6128 150.511 21.4365C160.228 23.2855 168.485 27.9169 176.431 33.5003C180.175 36.1273 184.349 38.1318 188.331 40.4201C187.46 41.6466 186.606 42.8914 185.707 44.0996C183.955 46.4245 183.927 48.5022 185.652 50.1773C187.469 51.9347 189.9 51.7882 192.038 49.6098C193.818 47.7975 195.451 45.8204 197.149 43.9257C203.856 46.5069 210.746 48.5297 217.692 50.3695C222.225 51.5685 226.757 52.795 231.281 54.0582C234.382 54.9186 237.465 55.8522 240.557 56.7675C241.025 56.9048 241.282 57.2618 241.337 57.7469C240.649 58.0306 239.961 58.3235 239.263 58.589C235.621 59.9802 234.96 62.8177 237.584 65.4812C238.639 66.543 239.786 66.9183 241.254 66.8359C243.814 66.6986 246.246 65.8382 248.824 65.6368C250.439 65.5178 252.283 64.4012 252.549 62.2044L252.531 62.177ZM175.339 132.683C177.477 132.647 179.688 132.94 181.734 132.5C190.488 130.615 198.268 126.816 204.076 119.787C209.902 112.739 213.866 104.913 212.783 95.421C212.196 90.2404 210.003 85.8835 205.058 83.4762C201.645 81.8195 197.91 81.6639 194.506 83.0643C190.524 84.6936 187.551 84.0712 185.037 80.6937C184.771 80.3367 184.413 79.9797 184.019 79.7784C181.789 78.6342 179.752 77.5542 176.881 78.2956C173.99 79.037 171.366 80.5655 168.338 80.895C166.026 81.1513 165.191 81.0507 164.035 79.1377C163.723 78.6251 163.421 78.0942 163.237 77.5267C161.595 72.4376 157.594 69.8656 152.952 68.1173C148.171 66.3233 143.171 66.003 138.326 67.5864C131.142 69.9296 127.086 78.259 127.527 84.8034C127.573 85.4899 127.921 85.9109 128.49 86.2038C127.949 88.1718 129.371 89.8102 129.408 91.6865C127.894 95.0823 128.252 96.3546 131.197 98.0846C131.27 98.7527 131.344 99.4209 131.417 100.089C130.793 101.554 131.748 102.698 132.307 103.851C135.023 109.489 139.556 113.846 143.171 118.853C142.96 119.832 143.382 120.528 144.042 121.26C148.3 125.992 153.53 129.59 159.402 131.557C164.411 133.232 169.852 134.926 175.339 132.674V132.683ZM189.974 160.033C191.194 162.586 193.231 164.435 195.782 165.369C200.498 167.09 205.471 167.914 210.462 168.362C213.426 168.627 216.398 168.005 219.371 167.666C223.537 167.2 227.574 166.357 231.428 164.985C242.456 161.076 251.742 155.008 258.357 144.82C263.578 136.784 263.779 128.262 263.091 119.457C262.825 116.015 261.678 112.574 260.531 109.27C259.229 105.535 257.806 101.792 254.769 98.945C251.503 95.8878 247.879 96.4095 245.677 100.345C243.97 103.393 243.016 106.533 243.098 110.093C243.209 114.734 243.53 119.393 242.264 123.997C240.74 129.516 237.85 134.12 233.07 137.251C226.895 141.296 219.766 142.761 212.582 143.64C206.324 144.408 200.608 146.568 195.038 149.305C194.038 149.8 193.414 150.669 193.607 151.905C191.469 150.724 190.157 148.6 188.249 147.182C185.973 145.488 182.248 146.157 181.789 148.399C181.395 150.285 181.221 152.253 183.028 153.79C185.404 155.804 187.671 157.946 189.983 160.033H189.974ZM106.433 58.2686C106.433 54.5707 106.516 51.8157 106.415 49.0789C106.158 42.1134 101.717 39.6512 95.6245 42.9372C94.7896 43.3857 94.0831 43.8799 93.4867 44.5207C89.1376 49.1613 84.0912 53.1337 80.412 58.4242C76.7786 63.6506 73.347 68.9228 71.0991 74.9547C69.1356 80.2269 67.9153 85.6638 67.0803 91.1465C66.2454 96.6567 67.7134 102.094 69.4934 107.311C71.0807 111.979 73.87 115.732 78.7788 117.553C80.7239 118.276 82.5223 118.267 84.4491 117.608C87.2659 116.647 89.6147 114.899 91.2112 112.546C94.1198 108.281 96.5054 103.714 98.2395 98.7985C101.065 90.7529 103.359 82.6341 104.781 74.1767C105.726 68.5475 106.644 63.0007 106.442 58.2594L106.433 58.2686ZM101.047 113.498C97.5422 113.462 94.4501 116.775 94.5052 120.491C94.5602 124.089 97.8816 127.32 101.414 127.228C103.956 127.155 108.222 122.889 108.268 120.372C108.341 116.647 105.075 113.544 101.047 113.498ZM111.14 51.2024C111.14 51.2024 111.14 51.2024 111.131 51.2024C111.131 52.731 111.112 54.2504 111.149 55.779C111.149 56.0535 111.369 56.3281 111.47 56.6119C112.177 58.5249 114.315 60.5111 115.7 60.1358C117.434 59.6599 119.177 58.8635 119.59 56.7766C120.297 53.1978 120.645 49.5915 119.324 46.095C118.471 43.8342 117.095 42.928 115.333 43.0653C113.305 43.2209 111.424 44.9508 111.177 47.1018C111.021 48.4565 111.149 49.8386 111.149 51.2116L111.14 51.2024ZM70.2182 64.9687C71.2275 65.051 72.0716 64.8863 72.7965 64.1906C75.1821 61.8749 77.4025 59.431 78.9714 56.4654C80.0358 54.4518 79.6688 52.493 78.0998 51.3214C76.329 50.0034 74.4389 50.04 72.7598 51.4862C70.3284 53.5731 68.5942 56.2549 66.6032 58.7171C65.6123 59.9436 65.704 61.6461 66.5114 62.9916C67.3097 64.3188 68.5208 65.289 70.2182 64.9687ZM226.06 94.2036C224.5 93.8009 223.408 94.8993 222.619 96.2448C221.417 98.2768 222.399 100.181 223.729 101.554C225.812 103.714 228.189 105.618 230.574 107.466C231.951 108.528 233.446 107.924 234.786 107.091C236.373 106.103 236.85 104.565 236.63 102.844C236.373 100.876 229.244 94.3867 227.253 94.2036C226.95 94.1762 226.647 94.2036 226.069 94.2036H226.06ZM278.937 108.702C277.735 105.618 276.377 101.81 273.606 98.7619C272.579 97.6361 270.065 97.6269 268.982 98.5239C267.468 99.7687 266.486 101.59 267.184 103.338C268.45 106.524 269.698 109.819 272.01 112.427C273.019 113.562 274.423 114.652 276.331 113.773C278.231 112.903 278.965 111.439 278.946 108.702H278.937Z" fill="#FC6BA6"/>
<path d="M264.22 212.343C263.009 212.343 261.999 212.535 260.88 213.313C256.393 216.452 251.732 219.354 246.677 221.505C239.786 224.434 232.822 227.033 225.555 229.056C221.023 230.319 216.398 231.5 211.857 232.223C207.948 232.846 203.893 233.596 199.791 233.495C196.534 233.422 193.13 232.534 189.965 234.264C189.625 234.447 188.928 234.429 188.643 234.2C186.872 232.745 184.817 233.431 182.909 233.45C175.101 233.505 167.439 232.562 159.879 230.667C159.448 230.557 158.971 230.621 158.512 230.603C158.851 227.482 160.108 224.589 160.622 221.487C161.576 215.729 162.43 209.972 162.439 204.123C165.586 203.894 168.421 202.65 171.247 201.396C174.431 199.977 177.725 199.107 181.248 199.537C184.157 199.894 186.937 200.956 188.542 203.391C190.166 205.871 192.001 208.215 193.699 210.613C197.02 215.308 201.324 219.07 206.801 221.322C214.518 224.489 222.087 220.242 225.188 215.903C227.409 212.8 229.317 209.359 230.721 205.807C233.015 199.995 235.905 194.558 239.456 189.442C242.548 184.984 246.64 181.726 251.888 180.389C255.595 179.456 259.265 178.412 262.926 177.35C271.358 174.897 277.478 169.14 283.038 162.769C284.754 160.802 285.818 158.239 287.085 155.905C287.415 155.282 286.929 154.788 286.213 154.678C287.442 150.916 289.479 147.456 290.379 143.566C290.571 142.706 290.746 141.846 290.929 140.976C291.259 140.976 291.59 140.976 291.92 140.976C291.131 162.568 284.8 182.394 273.12 200.581C270.45 204.736 267.807 208.892 264.211 212.333L264.22 212.343Z" fill="#F5BC74"/>
<path d="M60.465 132.775C64.9975 131.484 67.1996 132.125 69.6586 136.354C71.934 140.244 74.76 143.374 79.2192 144.28C83.2104 145.095 87.4586 145.241 91.3764 144.28C98.9001 142.44 106.314 140.125 113.672 137.717C115.526 137.113 117.709 138.102 119.232 136.39C122.994 136.683 126.591 134.77 130.39 135.539C129.114 136.903 129.344 138.578 129.362 140.235C129.371 141.077 129.646 141.809 130.307 142.175C133.546 143.978 136.776 145.873 140.528 146.431C142.161 146.678 143.391 146.166 144.143 144.454C144.648 143.31 145.107 142.276 144.831 141.022C145.602 140.903 146.272 140.939 146.933 141.534C151.447 145.607 154.603 150.504 156.979 156.133C160.072 163.465 161.613 171.236 164.2 178.696C165.512 182.485 166.164 183.053 170.265 183.034C175.991 183.007 181.652 182.083 187.405 181.982C194.626 181.854 196.745 184.966 199.03 190.394C200.167 193.085 200.947 195.885 202.681 198.348C206.067 203.162 211.288 203.858 215.664 199.94C219.518 196.489 222.298 192.242 224.73 187.776C227.354 182.961 230.244 178.357 233.327 173.808C236.602 168.984 241.263 166.632 246.227 164.838C253.255 162.303 260.568 160.39 267.312 157.214C275.478 153.36 282.864 148.399 285.497 138.798C285.993 137.004 287.277 135.429 287.277 133.379C287.277 132.702 288.158 132.702 288.755 132.619C288.287 142.45 285.378 151.438 278.708 158.797C275.175 162.696 270.487 165.25 265.679 167.483C258.228 170.952 250.475 173.726 243.521 178.266C237.703 182.064 233.198 186.97 229.253 192.554C226.464 196.499 223.674 200.434 220.114 203.794C215.683 207.986 210.747 208.837 205.095 206.887C204.351 206.631 203.682 206.366 203.149 205.826C200.039 202.686 196.681 199.739 193.892 196.325C188.873 190.192 182.643 187.822 175.156 190.027C171.018 191.245 166.962 191.693 162.787 190.348C161.934 190.073 161.54 189.744 161.448 188.865C160.457 179.785 155.612 172.682 149.676 166.138C144.657 160.6 138.987 155.85 132.234 152.61C128.096 150.623 123.765 149.086 119.196 148.097C113.883 146.944 108.598 147.163 103.341 147.475C99.5332 147.694 95.6429 148.445 92.0645 150.028C88.7523 151.502 85.1464 151.822 81.669 152.61C79.8798 153.012 77.8521 152.097 76.329 150.751C75.4206 149.946 74.4847 149.122 73.7507 148.161C69.6127 142.77 64.915 137.864 60.4741 132.738L60.465 132.775Z" fill="#CE528A"/>
<path d="M68.7685 183.996C68.4841 178.284 70.5669 173.103 72.5488 167.932C73.558 165.305 74.3196 162.44 76.9162 160.728C77.4208 162.843 79.1366 162.11 80.2193 161.818C82.7608 161.113 85.284 160.216 87.6512 159.072C93.0555 156.463 98.8175 155.191 104.699 154.77C111.14 154.303 117.59 154.577 123.884 156.49C130.068 158.367 135.748 161.021 140.592 165.396C147.933 172.032 151.337 180.902 154.814 189.753C155.255 190.879 155.071 191.73 154.236 192.609C153.658 193.222 152.263 192.892 152.401 194.393C153.933 194.357 153.842 197.249 155.576 196.489C158.273 195.318 155.805 199.73 158.136 198.631C158.255 198.576 158.438 198.65 158.585 198.659C159.273 206.951 158.31 215.125 156.713 223.244C155.438 221.734 155.374 219.747 155.144 218.008C154.585 213.679 152.805 209.798 150.869 206.082C148.74 201.99 145.611 198.485 142.161 195.309C140.024 193.341 137.693 191.931 134.885 191.263C134.702 190.101 133.784 190.43 133.05 190.366C132.105 187.922 129.555 187.455 127.646 186.86C119.223 184.215 110.663 182.028 101.699 182.128C95.3217 182.201 88.9541 182.128 82.5773 182.128C81.9993 180.224 80.4487 180.078 78.9164 180.353C77.586 180.6 76.9162 181.625 77.0538 183.053C74.2095 182.687 71.6312 184.618 68.7594 183.996H68.7685ZM131.215 172.993C128.013 172.993 127.536 173.46 127.527 176.6C127.509 179.758 128.811 181.222 131.61 181.24C134.271 181.259 135.785 179.776 135.785 177.149C135.794 174.321 134.335 172.993 131.206 172.993H131.215ZM115.865 166.632C117.241 166.568 118.159 165.946 118.342 164.582C118.526 163.2 117.755 162.339 116.462 162.037C115.159 161.726 113.792 162.87 113.782 164.243C113.782 165.634 114.617 166.321 115.865 166.632ZM105.708 160.143C104.873 160.262 103.836 160.829 103.791 161.955C103.745 163.09 104.671 163.795 105.901 163.85C107.167 163.904 108.085 163.163 108.14 162.074C108.195 160.948 107.25 160.252 105.708 160.143ZM84.4032 170.412C84.4491 169.286 84.4032 168.243 82.8342 168.417C82.0268 168.508 80.9625 168.069 80.7698 169.415C80.5588 170.833 81.4855 171.95 82.9994 172.069C84.2472 172.17 84.4858 171.41 84.4032 170.412Z" fill="#F5BC74"/>
<path d="M68.7685 183.996C71.6404 184.618 74.2187 182.687 77.063 183.053C77.2373 184.05 78.0447 184.581 78.7329 185.121C80.3661 186.403 81.7515 185.963 82.5314 183.941C82.7333 183.41 82.5773 182.732 82.5865 182.128C88.9633 182.128 95.3401 182.201 101.708 182.128C110.672 182.028 119.232 184.215 127.655 186.86C129.564 187.465 132.105 187.922 133.06 190.366C132.014 191.043 130.371 191.446 131.775 193.222C132.399 194.009 133.261 194.302 134.133 193.972C135.473 193.46 134.656 192.178 134.895 191.263C137.702 191.931 140.033 193.332 142.171 195.309C145.621 198.485 148.74 201.99 150.878 206.082C152.814 209.798 154.603 213.679 155.154 218.008C155.374 219.747 155.438 221.734 156.723 223.244C155.447 227.665 154.227 232.095 152.263 236.278C152.08 236.681 151.841 237.083 151.172 237.01C149.786 236.223 150.493 234.612 150.052 233.413C147.52 226.557 144.015 220.342 138.959 215.043C134.583 210.457 130.344 205.697 125.022 202.164C117.774 197.359 109.709 195.016 101.038 195.995C92.7986 196.92 85.44 200.169 79.4027 206.036C78.4209 206.997 77.4667 208.004 76.3932 208.846C74.6682 210.21 73.347 209.853 72.5304 207.794C70.2458 202.055 68.4199 196.215 68.7135 189.927C68.8053 187.95 68.7594 185.963 68.7777 183.986L68.7685 183.996ZM97.322 188.59C95.8447 188.444 94.6428 189.359 94.5143 190.531C94.3583 191.922 95.0832 192.773 96.3677 193.112C97.6614 193.451 99.0377 192.316 99.0836 190.943C99.1295 189.533 98.2578 188.865 97.322 188.59Z" fill="#D29368"/>
<path d="M286.222 154.678C286.938 154.788 287.433 155.282 287.094 155.905C285.828 158.248 284.772 160.802 283.048 162.769C277.487 169.14 271.367 174.906 262.935 177.35C259.274 178.412 255.604 179.456 251.898 180.389C246.649 181.716 242.557 184.975 239.465 189.442C235.914 194.558 233.033 199.995 230.73 205.807C229.326 209.35 227.418 212.791 225.198 215.903C222.105 220.242 214.527 224.489 206.81 221.322C201.333 219.07 197.029 215.308 193.708 210.613C192.011 208.215 190.176 205.862 188.552 203.391C186.955 200.956 184.175 199.894 181.257 199.537C177.734 199.107 174.44 199.977 171.256 201.396C168.43 202.65 165.595 203.903 162.448 204.123C162.127 200.874 162.797 197.56 161.53 194.403C163.118 193.652 164.485 194.064 165.806 194.091C170.348 194.183 174.816 193.853 179.202 192.499C182.624 191.446 185.496 193.066 187.854 195.181C191.093 198.091 194.222 201.185 196.993 204.535C203.553 212.462 212.646 213.267 220.858 207.583C225.188 204.59 228.198 200.462 231.015 196.233C234.465 191.071 237.933 186.037 243.19 182.504C247.053 179.913 251.044 177.588 255.311 175.721C261.192 173.149 267.156 170.769 272.762 167.602C278.359 164.435 282.46 159.731 286.231 154.669L286.222 154.678Z" fill="#CF9267"/>
<path d="M31.9482 113.462C33.6181 113.755 33.0126 115.082 33.0034 116.006C32.8658 125.91 35.4991 135.347 38.2333 144.683C41.2428 154.925 45.8946 164.509 52.721 172.829C55.9691 176.792 59.8869 180.16 64.1901 183.016C64.4011 183.153 64.7865 183.044 65.0984 183.044C65.1076 184.243 65.181 185.451 65.126 186.65C64.8415 192.947 65.7774 199.052 67.8694 205.002C68.0621 205.542 67.9519 206.192 67.9795 206.796L67.851 206.924C66.383 207.107 65.6673 205.981 64.8874 205.112C57.116 196.499 50.1611 187.263 45.078 176.819C39.8665 166.11 35.8661 154.944 33.8842 143.118C33.0401 138.093 32.4896 133.059 31.9482 128.006C31.4987 123.796 31.2968 119.613 31.2784 115.402C31.2784 114.679 31.0307 113.855 31.9666 113.462H31.9482Z" fill="#CF9267"/>
<path d="M158.594 198.659C158.438 198.65 158.264 198.576 158.145 198.631C155.823 199.739 158.292 195.318 155.585 196.489C153.851 197.24 153.952 194.357 152.41 194.393C152.273 192.892 153.667 193.213 154.245 192.609C155.08 191.73 155.264 190.879 154.823 189.753C151.346 180.893 147.942 172.023 140.602 165.396C135.757 161.021 130.078 158.367 123.894 156.49C117.59 154.577 111.149 154.312 104.708 154.77C98.8267 155.191 93.0646 156.463 87.6604 159.072C85.284 160.216 82.7608 161.113 80.2285 161.818C79.1549 162.12 77.43 162.843 76.9254 160.728C78.0356 156.857 79.265 155.529 82.6599 155.703C86.4217 155.896 89.7248 154.294 93.1656 153.415C99.1845 151.886 105.167 150.88 111.415 150.889C121.315 150.898 129.94 154.449 137.748 160.024C143.795 164.344 149.089 169.543 153.071 175.95C155.888 180.472 158.163 185.057 157.952 190.641C157.851 193.286 159.182 195.913 158.613 198.668L158.594 198.659Z" fill="#CF9267"/>
<path d="M73.3837 158.349C71.6404 157.607 70.6954 155.978 69.3833 154.761C66.8418 152.399 66.2454 152.216 63.0982 153.799C60.2172 155.255 57.4279 156.847 54.2992 157.827C51.1521 158.815 49.0417 158.962 47.2984 154.642C46.5461 152.774 46.0047 150.697 45.9405 148.692C45.757 143.09 45.913 137.489 45.8579 131.878C45.8396 130.578 46.1424 129.837 47.5737 129.919C47.6288 133.571 47.7664 137.214 47.7022 140.866C47.6563 143.191 48.2802 145.324 49.1702 147.365C51.1796 151.969 55.391 153.323 59.4924 150.559C61.0522 149.507 62.9147 148.692 63.7405 146.66C64.0892 145.8 64.8599 144.857 66.2545 144.555C69.6035 147.768 71.3009 152.71 76.3932 154.944C74.8701 155.95 74.76 157.607 73.3837 158.339V158.349Z" fill="#CF9267"/>
<path d="M51.4182 137.278C53.8098 137.949 56.0272 137.617 58.0702 136.28C60.4833 136.592 61.3366 138.825 62.8872 140.198C63.401 140.656 63.2726 141.223 62.9423 141.827C61.4651 144.582 59.3915 146.742 56.5471 148.033C54.5561 148.939 53.4092 148.225 52.1705 146.23C51.3815 144.958 51.3447 143.658 51.3356 142.312C51.3264 140.637 51.3723 138.962 51.3998 137.287L51.4182 137.278Z" fill="#CE528A"/>
<path d="M291.929 140.985C291.599 140.985 291.269 140.985 290.938 140.985C290.507 138.221 292.342 135.804 292.122 133.059C292.443 135.722 293.434 138.386 291.929 140.985Z" fill="#CF9267"/>
<path d="M47.8123 123.594C46.1699 121.901 46.3809 120.619 48.4178 119.86C48.4087 121.132 49.3629 122.569 47.8123 123.594Z" fill="#CF9267"/>
<path d="M76.1271 36.5483C76.4391 39.0105 74.6683 38.3789 73.347 38.4247C73.8975 37.2439 74.8334 36.6398 76.1271 36.5483Z" fill="#F7B6D2"/>
<path d="M78.8797 34.7177C79.2008 37.1982 77.4116 36.5483 76.0904 36.5849C76.6409 35.4042 77.586 34.8001 78.8797 34.7177Z" fill="#F7B6D2"/>
<path d="M71.5211 40.1912C71.3651 41.2896 70.7137 41.8846 69.6402 42.0585C69.6402 40.8137 70.2182 40.1363 71.5211 40.1912Z" fill="#F7B6D2"/>
<path d="M273.863 75.9066C272.303 76.0988 272.505 75.0279 272.542 74.076C273.542 74.2774 273.45 75.275 273.863 75.9066Z" fill="#F7B6D2"/>
<path d="M72.4478 39.2759C72.4753 39.9441 72.145 40.2462 71.4936 40.2187C71.4752 39.5688 71.8514 39.3034 72.4478 39.2759Z" fill="#F7B6D2"/>
<path d="M69.6861 42.0127C69.6953 42.7083 69.3191 42.9829 68.6585 42.9646C68.8053 42.4429 69.0622 42.031 69.6861 42.0127Z" fill="#F7B6D2"/>
<path d="M54.2808 56.438C54.3909 56.2274 54.501 56.0352 54.602 55.8339C54.7029 55.9345 54.8956 56.0535 54.8864 56.1359C54.8405 56.3464 54.7029 56.5478 54.6111 56.7492C54.5102 56.6485 54.4001 56.557 54.2808 56.438Z" fill="#F4BB74"/>
<path d="M73.3837 38.3881C73.3837 39.0471 73.0534 39.3491 72.402 39.3217C72.4387 38.6993 72.824 38.4613 73.3837 38.3881Z" fill="#F7B6D2"/>
<path d="M67.9703 206.796C68.1905 206.933 68.4107 207.061 68.6401 207.199C68.5025 207.345 68.3648 207.482 68.2272 207.629C68.0988 207.4 67.9703 207.162 67.8419 206.933L67.9703 206.805V206.796Z" fill="#CF9267"/>
<path d="M272.579 74.1126C271.909 74.1401 271.588 73.8289 271.643 73.1515C272.313 73.1241 272.524 73.536 272.579 74.1126Z" fill="#F7B6D2"/>
<path d="M197.13 43.8982C195.433 45.8021 193.809 47.77 192.02 49.5823C189.882 51.7607 187.451 51.9163 185.634 50.1498C183.9 48.4748 183.936 46.397 185.689 44.0721C186.597 42.8639 187.441 41.6191 188.313 40.3926C189.084 39.6878 189.854 38.9739 190.625 38.2691C192.671 36.3835 194.286 36.173 196.25 37.5277C197.883 38.6535 198.222 40.1272 197.424 42.571C197.286 43.0012 197.222 43.4497 197.121 43.8982H197.13ZM188.827 47.6144C189.102 47.5137 189.469 47.5045 189.634 47.3123C191.267 45.381 192.873 43.4223 194.451 41.436C194.561 41.2988 194.405 40.8502 194.249 40.658C194.084 40.4658 193.662 40.2461 193.515 40.3285C190.928 41.7747 189.928 44.5756 188.139 46.7174C187.863 47.0469 188.414 47.4496 188.836 47.6144H188.827Z" fill="#281D30"/>
<path d="M252.531 62.177C252.265 64.3737 250.42 65.4904 248.805 65.6094C246.227 65.8016 243.796 66.662 241.236 66.8084C239.768 66.8908 238.621 66.5247 237.566 65.4538C234.932 62.7902 235.602 59.9528 239.245 58.5615C239.942 58.2961 240.63 58.0032 241.318 57.7194C242.961 57.637 244.778 57.9757 246.2 57.3808C247.998 56.6211 249.374 57.0146 250.824 57.811C252.567 58.772 252.283 60.5935 252.531 62.177ZM242.814 63.193C244.355 63.4676 246.273 62.2044 248.393 62.1678C248.888 62.1678 249.283 61.8566 249.31 61.3898C249.365 60.5843 248.695 60.447 248.099 60.4013C245.356 60.1999 242.823 61.4813 240.117 61.582C239.942 61.582 239.713 62.0031 239.649 62.2594C239.493 62.8268 239.979 63.1014 240.364 63.1747C240.951 63.2845 241.575 63.2021 242.805 63.2021L242.814 63.193Z" fill="#281D30"/>
<path d="M215.637 243.436C215.729 242.337 215.114 241.038 217.032 240.671C218.756 240.342 220.371 239.5 222.078 239.015C223.528 238.603 223.876 239.646 224.041 240.781C223.473 243.5 220.858 242.932 219.133 243.756C217.986 244.305 216.665 244.973 215.637 243.427V243.436Z" fill="#281D30"/>
<path d="M193.598 151.914C193.405 150.687 194.029 149.809 195.029 149.314C200.599 146.578 206.315 144.408 212.572 143.649C219.757 142.77 226.886 141.305 233.061 137.26C237.841 134.129 240.731 129.535 242.254 124.006C243.521 119.411 243.199 114.743 243.089 110.103C242.998 106.533 243.961 103.393 245.668 100.355C247.87 96.4279 251.494 95.897 254.76 98.9541C257.806 101.801 259.229 105.544 260.522 109.279C261.669 112.583 262.816 116.015 263.082 119.466C263.77 128.271 263.559 136.784 258.348 144.829C251.732 155.017 242.447 161.076 231.418 164.994C227.565 166.357 223.528 167.2 219.362 167.676C216.389 168.014 213.426 168.637 210.453 168.371C205.462 167.923 200.489 167.099 195.772 165.378C193.231 164.454 191.194 162.596 189.965 160.042C195.167 159.987 196.782 157.433 194.47 152.912C194.277 152.536 193.892 152.253 193.598 151.923V151.914ZM245.117 141.8C244.447 141.781 243.658 141.772 243.098 142.376C240.841 144.793 238.153 146.843 236.566 149.827C235.4 152.024 235.777 154.166 237.446 155.465C239.015 156.692 241.025 156.738 242.823 155.227C245.365 153.086 247.374 150.413 248.925 147.493C250.549 144.445 248.64 141.662 245.117 141.791V141.8Z" fill="#FC83B3"/>
<path d="M106.433 58.2686C106.635 63.0099 105.717 68.5567 104.772 74.1858C103.35 82.6433 101.056 90.7621 98.2303 98.8077C96.5054 103.723 94.1106 108.29 91.2021 112.556C89.5964 114.908 87.2567 116.656 84.4399 117.617C82.5223 118.276 80.7147 118.285 78.7696 117.562C73.8608 115.732 71.0807 111.988 69.4842 107.32C67.7134 102.103 66.2362 96.6658 67.0711 91.1557C67.9061 85.673 69.1264 80.236 71.0899 74.9639C73.3378 68.932 76.7694 63.6506 80.4028 58.4334C84.0821 53.1429 89.1284 49.1704 93.4775 44.5298C94.0831 43.8891 94.7896 43.3948 95.6154 42.9463C101.717 39.6604 106.149 42.1225 106.405 49.0881C106.506 51.8248 106.424 54.5799 106.424 58.2778L106.433 58.2686ZM83.1187 105.279C84.1371 105.16 85.1923 105.398 86.1465 104.684C88.3027 103.064 90.6057 101.636 92.6518 99.906C94.5969 98.2676 94.7712 95.8146 93.4133 93.8833C92.3948 92.4371 89.4679 91.714 87.6788 92.8307C85.1464 94.4142 82.6324 96.1167 80.4578 98.1395C79.4119 99.1097 78.3475 100.666 79.4027 102.57C80.256 104.116 81.0634 105.453 83.1095 105.27L83.1187 105.279Z" fill="#FC83B3"/>
<path d="M131.417 100.098C131.344 99.4301 131.27 98.7619 131.197 98.0937C133.014 96.0617 132.326 94.0572 131.069 92.0985C130.702 91.5218 130.004 91.6591 129.408 91.6866C129.371 89.8102 127.949 88.1718 128.49 86.2039C130.041 86.0757 130.986 85.3069 131.087 83.6868C131.133 82.9362 131.096 82.1765 131.197 81.4351C131.949 75.8609 135.106 72.3186 140.198 71.2752C140.748 71.4033 141.152 71.2569 141.308 70.6711C142.519 70.6436 143.73 70.6161 144.942 70.5887C145.024 71.1653 144.831 72.0257 145.547 72.1447C148.933 72.6939 150.915 74.7716 152.741 77.5359C154.19 79.7418 155.906 81.8012 157.365 84.0529C158.328 85.5357 159.805 86.8171 161.31 87.7782C162.567 88.5837 163.677 86.6432 165.118 86.9178C165.54 87.0002 166.035 86.927 166.43 86.7714C167.155 86.4876 166.916 85.7645 167.008 85.197C169.595 84.4739 172.247 83.9247 174.752 82.9911C178.395 81.6273 181.487 81.7646 184.092 85.0323C186.579 88.1535 189.9 88.4738 193.515 87.4395C194.662 87.11 195.837 86.8903 196.993 86.5791C201.993 85.2336 204.929 86.5791 207.581 90.9452C209.985 94.9085 209.563 99.1006 208.838 103.238C207.746 109.489 204.416 114.752 200.03 119.137C197.442 121.727 194.681 124.464 190.864 125.461C191.13 122.13 190.148 119.027 188.964 116.006C187.056 111.119 184.12 106.954 180.266 103.293C174.724 98.0297 168.054 95.8878 160.677 95.1556C155.521 94.643 150.584 95.9885 145.74 97.1693C142.207 98.0297 138.684 99.5765 135.665 101.883C134.372 101.014 133.583 98.9175 131.417 100.08V100.098Z" fill="#F3BB70"/>
<path d="M140.198 71.2843C135.106 72.3277 131.949 75.87 131.197 81.4442C131.096 82.1856 131.133 82.9453 131.087 83.6959C130.986 85.316 130.05 86.0757 128.49 86.213C127.921 85.9109 127.573 85.499 127.527 84.8126C127.086 78.2681 131.142 69.9388 138.326 67.5956C143.18 66.0121 148.171 66.3325 152.952 68.1265C157.594 69.8747 161.595 72.4467 163.237 77.5359C163.421 78.1033 163.723 78.6342 164.035 79.1468C165.191 81.0598 166.026 81.1513 168.338 80.9042C171.375 80.5747 173.99 79.0461 176.881 78.3047C179.743 77.5725 181.789 78.6434 184.019 79.7875C184.414 79.9889 184.762 80.3367 185.037 80.7028C187.551 84.0803 190.524 84.7027 194.506 83.0735C197.91 81.6822 201.645 81.8287 205.058 83.4854C210.003 85.8835 212.196 90.2495 212.783 95.4302C213.866 104.931 209.893 112.748 204.076 119.796C198.268 126.825 190.488 130.624 181.734 132.509C179.688 132.949 177.477 132.647 175.339 132.692C175 132.445 174.669 131.988 174.312 131.969C164.292 131.457 155.658 127.521 147.758 121.562C146.373 120.519 145.208 118.89 143.171 118.862C139.546 113.855 135.023 109.498 132.307 103.86C131.757 102.716 130.793 101.563 131.417 100.098C133.583 98.9358 134.362 101.023 135.665 101.901C136.418 104.711 138.207 106.89 140.106 108.986C140.299 110.286 141.271 111.073 142.07 111.97C150.428 121.352 160.897 127.017 173.266 128.811C177 129.352 181.138 130.084 184.689 127.493C186.909 127.338 189.065 126.972 190.855 125.48C194.671 124.482 197.433 121.745 200.021 119.155C204.406 114.761 207.737 109.508 208.829 103.256C209.554 99.1097 209.976 94.9267 207.572 90.9634C204.92 86.5974 201.993 85.2611 196.984 86.5974C195.828 86.9086 194.653 87.1283 193.506 87.4578C189.882 88.4921 186.57 88.1717 184.083 85.0505C181.477 81.792 178.385 81.6547 174.743 83.0094C172.238 83.943 169.586 84.4922 166.999 85.2153C163.494 85.2702 161.879 82.8263 160.751 80.1445C157.778 73.0691 152.098 70.6619 144.932 70.6161C143.721 70.6436 142.51 70.671 141.299 70.6985C140.712 70.5063 140.391 70.79 140.189 71.3026L140.198 71.2843Z" fill="#281D30"/>
<path d="M101.047 113.498C105.084 113.535 108.351 116.647 108.268 120.372C108.213 122.889 103.946 127.155 101.414 127.228C97.8817 127.329 94.5694 124.098 94.5052 120.491C94.4501 116.766 97.5422 113.462 101.047 113.498Z" fill="#FC83B3"/>
<path d="M111.131 51.2024C111.131 49.8294 111.002 48.4473 111.158 47.0927C111.406 44.9417 113.296 43.2118 115.315 43.0562C117.076 42.9189 118.453 43.825 119.306 46.0858C120.627 49.5823 120.278 53.1886 119.572 56.7675C119.159 58.8635 117.407 59.6599 115.682 60.1267C114.296 60.502 112.158 58.5157 111.452 56.6027C111.351 56.319 111.131 56.0535 111.131 55.7698C111.094 54.2504 111.112 52.7218 111.112 51.1933C111.112 51.1933 111.112 51.1933 111.122 51.1933L111.131 51.2024ZM116.7 51.6967C115.773 50.1956 117.535 48.2093 115.728 46.7632C113.406 48.0721 114.902 50.2139 114.746 51.9255C114.617 53.4266 113.856 55.2115 115.388 56.557C117.608 55.4037 115.893 53.3351 116.7 51.6967Z" fill="#281D30"/>
<path d="M144.841 141.031C145.116 142.276 144.657 143.319 144.152 144.463C143.4 146.175 142.171 146.687 140.537 146.44C136.785 145.882 133.564 143.978 130.316 142.184C129.656 141.818 129.38 141.077 129.371 140.244C129.353 138.587 129.123 136.912 130.399 135.548C131.848 134.715 133.188 134.331 134.986 135.036C137.464 135.997 139.748 137.36 142.226 138.267C143.648 138.779 143.749 140.344 144.841 141.049V141.031ZM132.225 138.459C133.335 140.427 135.106 140.656 136.546 141.305C137.941 141.937 139.253 143.603 141.308 142.404C137.647 139.566 135.464 138.605 132.225 138.459Z" fill="#281D30"/>
<path d="M70.2091 64.9778C68.5025 65.2982 67.2914 64.328 66.5023 63.0008C65.6949 61.6552 65.5939 59.9528 66.594 58.7263C68.5851 56.2732 70.3192 53.5822 72.7506 51.4953C74.4297 50.0491 76.329 50.0125 78.0906 51.3306C79.6688 52.5022 80.0358 54.4609 78.9623 56.4746C77.3933 59.431 75.1729 61.8841 72.7873 64.1998C72.0717 64.8954 71.2184 65.0602 70.2091 64.9778ZM70.7229 60.502C71.6129 60.3189 71.6312 59.5043 71.9065 58.8727C73.815 58.3967 74.7417 56.7766 75.8702 55.4128C76.1547 55.0742 76.2556 54.5982 75.7601 54.2504C75.3472 53.9575 74.916 53.9209 74.5857 54.3053C73.4479 55.6142 71.5578 56.3556 71.4019 58.4242C70.5486 58.7263 70.5394 59.4677 70.466 60.1816C69.9063 60.2548 69.3007 60.2365 69.0071 60.8315C68.9704 60.9047 69.3007 61.2708 69.5026 61.3166C70.1632 61.4722 70.5486 61.1061 70.7321 60.4928L70.7229 60.502Z" fill="#281D30"/>
<path d="M226.051 94.2128C226.629 94.2128 226.932 94.1853 227.234 94.2128C229.216 94.3959 236.355 100.885 236.612 102.853C236.832 104.574 236.355 106.112 234.767 107.1C233.428 107.933 231.932 108.537 230.556 107.476C228.179 105.627 225.803 103.723 223.711 101.563C222.381 100.181 221.399 98.2859 222.601 96.2539C223.399 94.9084 224.482 93.8101 226.042 94.2128H226.051ZM233.024 103.549C232.932 103.274 232.923 102.927 232.749 102.743C230.941 100.94 229.106 99.1646 227.28 97.3798C226.904 97.0136 226.482 97.0136 226.097 97.3249C225.445 97.8374 225.721 98.4415 226.143 98.8626C227.84 100.565 229.583 102.231 231.327 103.888C231.528 104.08 231.831 104.217 232.106 104.272C232.648 104.373 232.868 103.97 233.033 103.549H233.024Z" fill="#281D30"/>
<path d="M278.919 108.711C278.937 111.457 278.203 112.913 276.304 113.782C274.395 114.652 272.991 113.572 271.982 112.437C269.67 109.828 268.422 106.524 267.156 103.348C266.459 101.609 267.44 99.7779 268.954 98.5331C270.037 97.6361 272.551 97.6452 273.579 98.771C276.359 101.81 277.717 105.618 278.909 108.711H278.919ZM276.111 109.773C274.615 107.155 273.661 104.171 271.725 101.709C271.652 101.609 271.147 101.718 270.955 101.874C270.762 102.03 270.551 102.414 270.615 102.606C271.56 105.416 272.652 108.162 274.643 110.423C274.79 110.588 275.23 110.633 275.45 110.551C275.68 110.46 275.817 110.13 276.102 109.773H276.111Z" fill="#281D30"/>
<path d="M193.598 151.914C193.892 152.243 194.277 152.527 194.47 152.902C196.791 157.433 195.167 159.978 189.965 160.033C187.652 157.946 185.386 155.804 183.01 153.79C181.202 152.253 181.377 150.285 181.771 148.399C182.239 146.157 185.964 145.488 188.23 147.182C190.139 148.61 191.451 150.724 193.589 151.905L193.598 151.914ZM192.524 155.831C192.616 155.127 192.139 154.632 191.662 154.376C189.928 153.415 188.708 151.868 187.221 150.632C186.533 150.056 185.854 148.427 184.771 149.699C183.817 150.816 185.368 151.465 186.019 152.124C187.487 153.616 189.01 155.072 190.644 156.39C191.157 156.802 192.093 156.728 192.515 155.831H192.524Z" fill="#241E2F"/>
<path d="M143.171 118.862C145.208 118.89 146.364 120.519 147.758 121.562C155.658 127.512 164.292 131.457 174.312 131.969C174.669 131.988 175 132.445 175.339 132.692C169.852 134.944 164.411 133.251 159.402 131.576C153.53 129.608 148.291 126.011 144.042 121.278C143.391 120.546 142.969 119.851 143.171 118.871V118.862Z" fill="#F7B6D2"/>
<path d="M129.408 91.6957C130.004 91.6682 130.702 91.5309 131.069 92.1076C132.326 94.0572 133.014 96.0617 131.197 98.1029C128.243 96.3729 127.894 95.1007 129.408 91.7049V91.6957Z" fill="#281D30"/>
<path d="M131.225 172.984C134.344 172.984 135.812 174.312 135.803 177.14C135.803 179.767 134.28 181.25 131.628 181.231C128.821 181.213 127.527 179.748 127.545 176.591C127.564 173.451 128.032 172.984 131.234 172.984H131.225Z" fill="#D29368"/>
<path d="M82.5865 182.128C82.5865 182.732 82.7425 183.41 82.5314 183.941C81.7515 185.973 80.3661 186.412 78.7329 185.121C78.0539 184.581 77.2373 184.05 77.063 183.053C76.9162 181.625 77.5952 180.6 78.9256 180.353C80.4578 180.069 82.0085 180.215 82.5865 182.128Z" fill="#CF9267"/>
<path d="M115.865 166.623C114.617 166.321 113.773 165.625 113.782 164.234C113.782 162.861 115.159 161.717 116.462 162.028C117.755 162.339 118.526 163.191 118.342 164.573C118.168 165.936 117.251 166.559 115.865 166.623Z" fill="#CF9267"/>
<path d="M105.708 160.143C107.25 160.262 108.204 160.948 108.14 162.074C108.085 163.154 107.167 163.904 105.901 163.85C104.671 163.795 103.745 163.09 103.791 161.955C103.836 160.829 104.873 160.271 105.708 160.143Z" fill="#D29368"/>
<path d="M84.4124 170.412C84.495 171.41 84.2472 172.17 83.0086 172.069C81.4946 171.95 80.5679 170.833 80.779 169.415C80.9717 168.069 82.036 168.508 82.8434 168.417C84.4124 168.243 84.4583 169.277 84.4124 170.412Z" fill="#D29368"/>
<path d="M134.895 191.263C134.665 192.178 135.482 193.46 134.133 193.972C133.261 194.302 132.399 194.009 131.775 193.222C130.371 191.446 132.014 191.043 133.06 190.366C133.784 190.421 134.702 190.101 134.895 191.263Z" fill="#CF9267"/>
<path d="M97.322 188.59C98.2578 188.865 99.1295 189.524 99.0836 190.943C99.0469 192.316 97.6706 193.451 96.3677 193.112C95.0832 192.782 94.3584 191.922 94.5143 190.531C94.6428 189.359 95.8447 188.444 97.322 188.59Z" fill="#CF9267"/>
<path d="M188.827 47.6144C188.396 47.4496 187.845 47.0469 188.129 46.7174C189.909 44.5756 190.91 41.7747 193.506 40.3285C193.653 40.2461 194.084 40.4658 194.24 40.658C194.405 40.8502 194.552 41.3079 194.442 41.436C192.864 43.4223 191.258 45.3719 189.625 47.3123C189.46 47.5045 189.093 47.5229 188.818 47.6144H188.827Z" fill="#CE528A"/>
<path d="M242.814 63.2021C241.575 63.2021 240.961 63.2845 240.373 63.1746C239.979 63.1014 239.502 62.8268 239.658 62.2593C239.731 62.003 239.961 61.5912 240.126 61.582C242.832 61.4813 245.365 60.1999 248.108 60.4013C248.705 60.447 249.374 60.5843 249.319 61.3898C249.283 61.8566 248.897 62.1586 248.402 62.1678C246.282 62.2044 244.365 63.4767 242.823 63.1929L242.814 63.2021Z" fill="#F4BB74"/>
<path d="M245.117 141.8C248.64 141.672 250.54 144.463 248.925 147.502C247.374 150.422 245.374 153.095 242.823 155.236C241.034 156.747 239.025 156.701 237.446 155.474C235.767 154.166 235.4 152.033 236.566 149.836C238.153 146.843 240.841 144.793 243.098 142.386C243.658 141.781 244.456 141.791 245.117 141.809V141.8ZM245.897 146.321C245.677 145.781 245.411 145.196 244.943 145.498C242.53 147.063 240.667 149.15 239.502 151.795C239.428 151.969 239.639 152.353 239.814 152.536C240.19 152.912 240.695 152.893 240.942 152.454C242.08 150.477 243.878 149.076 245.319 147.374C245.594 147.054 245.732 146.623 245.897 146.321Z" fill="#281D30"/>
<path d="M83.1187 105.27C81.0634 105.453 80.2652 104.116 79.4119 102.57C78.3567 100.666 79.4118 99.1097 80.467 98.1395C82.6415 96.1166 85.1556 94.4142 87.6879 92.8307C89.4771 91.714 92.404 92.4371 93.4225 93.8833C94.7804 95.8146 94.6061 98.2676 92.6609 99.906C90.6057 101.636 88.3027 103.064 86.1557 104.684C85.2014 105.398 84.1463 105.16 83.1278 105.279L83.1187 105.27ZM82.6232 101.197C83.2563 101.792 84.0454 101.892 84.4215 101.554C86.4034 99.7413 89.2752 98.9175 91.147 95.7322C87.1282 96.7665 84.6876 98.6704 82.6232 101.206V101.197Z" fill="#281D30"/>
<path d="M190.864 125.48C189.075 126.972 186.918 127.338 184.698 127.493C183.845 125.297 183.331 122.871 182.074 120.94C177.44 113.828 170.917 108.977 162.898 106.222C159.686 105.114 156.356 103.86 152.896 104.437C148.391 105.187 143.969 106.35 140.115 108.986C138.207 106.89 136.427 104.721 135.675 101.901C138.684 99.604 142.216 98.0571 145.749 97.1876C150.594 96.0068 155.53 94.6613 160.686 95.1739C168.063 95.9061 174.734 98.048 180.275 103.311C184.129 106.972 187.065 111.128 188.974 116.025C190.157 119.045 191.139 122.148 190.873 125.48H190.864Z" fill="#D8A365"/>
<path d="M144.942 70.607C152.107 70.6619 157.778 73.06 160.76 80.1353C161.888 82.8172 163.503 85.2611 167.008 85.2061C166.907 85.7736 167.155 86.4967 166.43 86.7805C166.026 86.9361 165.531 87.0002 165.118 86.9269C163.677 86.6523 162.567 88.5928 161.31 87.7873C159.805 86.8263 158.328 85.5448 157.365 84.062C155.906 81.8103 154.19 79.7601 152.741 77.545C150.915 74.7716 148.933 72.6939 145.547 72.1538C144.831 72.0348 145.024 71.1745 144.942 70.5978V70.607Z" fill="#D8A365"/>
<path d="M140.198 71.2843C140.4 70.7717 140.73 70.488 141.308 70.6802C141.143 71.266 140.748 71.4124 140.198 71.2843Z" fill="#D8A365"/>
<path d="M140.106 108.977C143.96 106.331 148.382 105.169 152.887 104.428C156.346 103.851 159.677 105.105 162.888 106.213C170.908 108.968 177.431 113.819 182.065 120.931C183.322 122.871 183.835 125.288 184.689 127.484C181.147 130.075 177 129.352 173.266 128.802C160.888 126.999 150.428 121.333 142.07 111.961C141.262 111.054 140.29 110.276 140.106 108.977Z" fill="#FCE9CC"/>
<path d="M116.709 51.6967C115.893 53.3351 117.618 55.4037 115.397 56.557C113.865 55.2115 114.626 53.4266 114.755 51.9255C114.902 50.2139 113.415 48.072 115.737 46.7632C117.544 48.2093 115.783 50.1956 116.709 51.6967Z" fill="#F4BB74"/>
<path d="M132.225 138.459C135.464 138.614 137.647 139.576 141.308 142.404C139.253 143.603 137.941 141.937 136.546 141.305C135.115 140.656 133.335 140.427 132.225 138.459Z" fill="#F4BB74"/>
<path d="M71.4019 58.4242C71.5578 56.3556 73.4479 55.6142 74.5857 54.3053C74.9252 53.9209 75.3564 53.9575 75.7601 54.2504C76.2556 54.5982 76.1546 55.065 75.8702 55.4128C74.7417 56.7766 73.815 58.3967 71.9065 58.8727C71.7322 58.7354 71.5578 58.589 71.4019 58.4334V58.4242Z" fill="#F4BB74"/>
<path d="M71.9065 58.8635C71.6312 59.4951 71.6221 60.3097 70.7229 60.4928L70.4568 60.1816C70.521 59.4676 70.5394 58.7171 71.3927 58.4242C71.5578 58.5798 71.723 58.7262 71.8973 58.8635H71.9065Z" fill="#F4BB74"/>
<path d="M70.7321 60.4928C70.5485 61.106 70.1632 61.4722 69.5026 61.3166C69.3007 61.2708 68.9704 60.8955 69.0071 60.8314C69.3007 60.2457 69.9155 60.2548 70.466 60.1816L70.7321 60.4928Z" fill="#F4BB74"/>
<path d="M233.015 103.549C232.85 103.97 232.629 104.373 232.088 104.272C231.813 104.217 231.51 104.08 231.308 103.888C229.565 102.231 227.822 100.574 226.124 98.8626C225.702 98.4416 225.427 97.8374 226.078 97.3249C226.464 97.0228 226.886 97.0137 227.262 97.3798C229.088 99.1646 230.923 100.94 232.73 102.744C232.914 102.927 232.923 103.274 233.006 103.549H233.015Z" fill="#CE528A"/>
<path d="M276.111 109.764C275.827 110.121 275.689 110.45 275.46 110.542C275.23 110.633 274.79 110.579 274.652 110.414C272.661 108.144 271.56 105.407 270.624 102.597C270.56 102.405 270.771 102.02 270.964 101.865C271.156 101.709 271.661 101.599 271.734 101.7C273.67 104.162 274.625 107.146 276.12 109.764H276.111Z" fill="#D8A365"/>
<path d="M192.524 155.831C192.112 156.719 191.166 156.793 190.653 156.39C189.019 155.081 187.496 153.626 186.028 152.124C185.377 151.465 183.826 150.816 184.781 149.699C185.854 148.427 186.533 150.056 187.23 150.632C188.717 151.868 189.937 153.406 191.671 154.376C192.148 154.642 192.625 155.127 192.534 155.831H192.524Z" fill="#D8A365"/>
<path d="M245.897 146.321C245.741 146.623 245.594 147.054 245.319 147.374C243.878 149.086 242.08 150.477 240.942 152.454C240.695 152.893 240.181 152.912 239.814 152.536C239.63 152.353 239.419 151.969 239.502 151.795C240.676 149.15 242.53 147.063 244.943 145.498C245.411 145.196 245.677 145.781 245.897 146.321Z" fill="#CE528A"/>
<path d="M82.6232 101.197C84.6876 98.6612 87.1191 96.7665 91.147 95.7231C89.2661 98.9083 86.4034 99.7321 84.4215 101.544C84.0454 101.883 83.2563 101.782 82.6232 101.187V101.197Z" fill="#CE528A"/>
</svg>
