<svg width="170" height="59" viewBox="0 0 170 59" fill="none" xmlns="http://www.w3.org/2000/svg">
<g filter="url(#filter0_d_8_11172)">
<path d="M42.0051 45.1029C40.0654 45.1029 38.3885 44.7585 36.9745 44.0696C35.5786 43.3626 34.4999 42.3927 33.7385 41.16C32.9771 39.9091 32.5964 38.4679 32.5964 36.8363C32.5964 35.2229 32.8774 33.7182 33.4394 32.3224C34.0195 30.9265 34.8262 29.7209 35.8596 28.7057C36.911 27.6724 38.1528 26.8657 39.585 26.2856C41.0353 25.7054 42.6487 25.4154 44.4253 25.4154C46.1294 25.4154 47.634 25.7054 48.9393 26.2856C50.2445 26.8657 51.2325 27.6996 51.9033 28.7873L48.7217 31.3978C48.2323 30.6727 47.6068 30.1197 46.8454 29.739C46.084 29.3583 45.1776 29.168 44.1262 29.168C43.0566 29.168 42.0867 29.3583 41.2165 29.739C40.3464 30.1016 39.594 30.6273 38.9595 31.3162C38.3432 31.987 37.8718 32.7756 37.5455 33.682C37.2192 34.5884 37.056 35.5492 37.056 36.5644C37.056 37.5252 37.2645 38.3682 37.6815 39.0933C38.0984 39.8004 38.7057 40.3533 39.5034 40.7521C40.301 41.1509 41.2619 41.3503 42.3858 41.3503C43.3648 41.3503 44.2803 41.1781 45.1323 40.8337C45.9843 40.4711 46.7548 39.9091 47.4437 39.1477L50.0542 41.8126C49.0571 42.9728 47.8697 43.8158 46.4919 44.3416C45.1323 44.8491 43.6367 45.1029 42.0051 45.1029Z" fill="#FF001F"/>
<path d="M63.0903 29.9294C64.3231 29.9294 65.3745 30.1923 66.2447 30.718C67.1149 31.2256 67.7312 31.9779 68.0938 32.975C68.4745 33.972 68.5198 35.2048 68.2298 36.6732L66.5982 44.7766H62.3561L63.9333 36.9451C64.1509 35.8755 64.0602 35.0507 63.6614 34.4706C63.2807 33.8905 62.5737 33.6004 61.5404 33.6004C60.4708 33.6004 59.5734 33.9086 58.8483 34.525C58.1413 35.1413 57.6518 36.084 57.3799 37.353L55.9115 44.7766H51.6694L55.6939 24.5996H59.936L58.0053 34.2802L57.1623 33.0294C57.8693 31.9598 58.7395 31.1803 59.7728 30.6908C60.8243 30.1832 61.9301 29.9294 63.0903 29.9294Z" fill="#FF001F"/>
<path d="M78.3009 44.9942C76.7781 44.9942 75.4547 44.7222 74.3307 44.1784C73.2249 43.6345 72.3638 42.8731 71.7474 41.8942C71.131 40.9153 70.8229 39.7641 70.8229 38.4407C70.8229 36.8092 71.1854 35.3589 71.9106 34.0899C72.6538 32.8028 73.669 31.7876 74.9562 31.0443C76.2614 30.301 77.757 29.9294 79.443 29.9294C80.8751 29.9294 82.1079 30.2013 83.1412 30.7452C84.1745 31.2709 84.9722 32.0142 85.5341 32.975C86.1143 33.9177 86.4043 35.0507 86.4043 36.3741C86.4043 36.7548 86.3771 37.1355 86.3227 37.5162C86.2865 37.8969 86.2321 38.2594 86.1596 38.6039H74.0588L74.4939 36.1293H84.1745L82.4342 36.8907C82.5792 36.075 82.5339 35.3951 82.2982 34.8513C82.0625 34.2893 81.6818 33.8633 81.1561 33.5732C80.6304 33.265 79.9959 33.1109 79.2526 33.1109C78.3281 33.1109 77.5395 33.3375 76.8868 33.7908C76.2523 34.2258 75.7719 34.8331 75.4456 35.6127C75.1193 36.3922 74.9562 37.2714 74.9562 38.2504C74.9562 39.3743 75.2643 40.2173 75.8807 40.7793C76.5152 41.3232 77.467 41.5951 78.736 41.5951C79.4792 41.5951 80.1953 41.4772 80.8842 41.2416C81.5731 41.0059 82.1622 40.6705 82.6517 40.2354L84.4192 43.0363C83.5672 43.7071 82.6064 44.2056 81.5368 44.5319C80.4854 44.8401 79.4067 44.9942 78.3009 44.9942Z" fill="#FF001F"/>
<path d="M93.826 50.2696C92.412 50.2696 91.1067 50.1064 89.9103 49.7801C88.7319 49.4538 87.7167 48.9734 86.8647 48.3389L88.8769 45.2661C89.4571 45.7374 90.2003 46.1181 91.1067 46.4082C92.0313 46.6983 93.0012 46.8433 94.0164 46.8433C95.4848 46.8433 96.5816 46.526 97.3067 45.8915C98.05 45.257 98.5485 44.3144 98.8023 43.0635L99.319 40.4258L100.298 36.9995L100.951 33.3013L101.549 30.1469H105.6L103.18 42.3293C102.618 45.1392 101.549 47.1605 99.9716 48.3933C98.4125 49.6441 96.364 50.2696 93.826 50.2696ZM94.4515 44.0696C93.255 44.0696 92.1673 43.8249 91.1883 43.3354C90.2094 42.8459 89.4299 42.148 88.8497 41.2416C88.2696 40.317 87.9796 39.2112 87.9796 37.9241C87.9796 36.8001 88.179 35.7577 88.5778 34.7969C88.9948 33.8361 89.5658 32.9931 90.291 32.268C91.0342 31.5247 91.8953 30.9536 92.8743 30.5548C93.8713 30.1379 94.959 29.9294 96.1374 29.9294C97.207 29.9294 98.1769 30.1288 99.047 30.5276C99.9172 30.9265 100.588 31.57 101.059 32.4583C101.549 33.3466 101.73 34.534 101.603 36.0206C101.494 37.634 101.141 39.048 100.543 40.2626C99.9444 41.4591 99.1286 42.3927 98.0953 43.0635C97.0801 43.7342 95.8655 44.0696 94.4515 44.0696ZM95.5935 40.5889C96.4275 40.5889 97.1617 40.4077 97.7962 40.0451C98.4307 39.6825 98.9292 39.184 99.2918 38.5495C99.6543 37.8969 99.8356 37.1536 99.8356 36.3197C99.8356 35.4314 99.5456 34.7334 98.9654 34.2258C98.3853 33.7001 97.5786 33.4373 96.5453 33.4373C95.7114 33.4373 94.9681 33.6185 94.3155 33.9811C93.681 34.3437 93.1734 34.8513 92.7927 35.5039C92.4301 36.1384 92.2488 36.8726 92.2488 37.7065C92.2488 38.5948 92.548 39.3018 93.1462 39.8276C93.7444 40.3351 94.5602 40.5889 95.5935 40.5889Z" fill="#FF001F"/>
<path d="M114.28 44.9942C112.794 44.9942 111.498 44.7222 110.392 44.1784C109.286 43.6345 108.425 42.8731 107.808 41.8942C107.21 40.9153 106.911 39.7641 106.911 38.4407C106.911 36.8092 107.292 35.3589 108.053 34.0899C108.815 32.8028 109.857 31.7876 111.18 31.0443C112.522 30.301 114.045 29.9294 115.749 29.9294C117.253 29.9294 118.55 30.2013 119.637 30.7452C120.743 31.289 121.595 32.0504 122.193 33.0294C122.81 33.9902 123.118 35.1413 123.118 36.4828C123.118 38.0963 122.737 39.5466 121.976 40.8337C121.214 42.1208 120.172 43.136 118.849 43.8793C117.525 44.6225 116.002 44.9942 114.28 44.9942ZM114.552 41.5135C115.386 41.5135 116.12 41.3141 116.755 40.9153C117.407 40.4983 117.915 39.9273 118.278 39.2021C118.64 38.477 118.821 37.634 118.821 36.6732C118.821 35.6943 118.531 34.9057 117.951 34.3074C117.371 33.7092 116.555 33.4101 115.504 33.4101C114.67 33.4101 113.927 33.6185 113.274 34.0355C112.64 34.4343 112.132 34.9963 111.751 35.7214C111.389 36.4466 111.207 37.2896 111.207 38.2504C111.207 39.2474 111.498 40.0451 112.078 40.6433C112.658 41.2234 113.483 41.5135 114.552 41.5135Z" fill="#FF001F"/>
<path d="M130.686 44.9942C129.489 44.9942 128.456 44.7404 127.586 44.2328C126.715 43.7071 126.099 42.9457 125.737 41.9486C125.374 40.9515 125.338 39.7188 125.628 38.2504L127.232 30.1469H131.474L129.924 37.9784C129.707 39.048 129.788 39.8729 130.169 40.453C130.568 41.0331 131.266 41.3232 132.263 41.3232C133.314 41.3232 134.193 41.015 134.9 40.3986C135.626 39.7822 136.106 38.8395 136.342 37.5706L137.837 30.1469H142.079L139.17 44.7766H135.145L135.961 40.6433L136.559 41.8942C135.87 42.9638 135.009 43.7524 133.976 44.26C132.943 44.7494 131.846 44.9942 130.686 44.9942Z" fill="#FF001F"/>
</g>
<g filter="url(#filter1_d_8_11172)">
<path d="M35.7955 21.4007L39.6025 2.36577H47.2981C49.6729 2.36577 51.5039 2.8915 52.791 3.94295C54.0963 4.97627 54.7489 6.42656 54.7489 8.29379C54.7489 9.8891 54.3773 11.285 53.634 12.4815C52.8907 13.6598 51.8211 14.5663 50.4252 15.2008C49.0475 15.8352 47.4068 16.1525 45.5033 16.1525H39.3306L41.6692 14.1402L40.228 21.4007H35.7955ZM41.5604 14.6569L40.0104 12.5631H45.6937C47.144 12.5631 48.2679 12.2367 49.0656 11.5841C49.8814 10.9134 50.2893 9.94349 50.2893 8.67449C50.2893 7.74994 49.9811 7.07012 49.3647 6.63503C48.7483 6.18182 47.8782 5.95521 46.7542 5.95521H41.3972L43.7358 3.80699L41.5604 14.6569Z" fill="#FF001F"/>
<path d="M62.9252 21.6182C61.4024 21.6182 60.079 21.3463 58.955 20.8025C57.8492 20.2586 56.9881 19.4972 56.3717 18.5183C55.7554 17.5393 55.4472 16.3882 55.4472 15.0648C55.4472 13.4332 55.8098 11.9829 56.5349 10.7139C57.2782 9.42682 58.2934 8.41163 59.5805 7.66836C60.8857 6.92509 62.3813 6.55346 64.0673 6.55346C65.4994 6.55346 66.7322 6.82538 67.7655 7.36924C68.7988 7.89496 69.5965 8.63823 70.1585 9.59904C70.7386 10.5417 71.0286 11.6748 71.0286 12.9981C71.0286 13.3788 71.0014 13.7595 70.9471 14.1402C70.9108 14.5209 70.8564 14.8835 70.7839 15.2279H58.6831L59.1182 12.7534H68.7988L67.0585 13.5148C67.2035 12.699 67.1582 12.0192 66.9225 11.4753C66.6869 10.9134 66.3062 10.4873 65.7804 10.1973C65.2547 9.8891 64.6202 9.73501 63.8769 9.73501C62.9524 9.73501 62.1638 9.96161 61.5112 10.4148C60.8767 10.8499 60.3963 11.4572 60.07 12.2367C59.7436 13.0163 59.5805 13.8955 59.5805 14.8744C59.5805 15.9984 59.8887 16.8414 60.505 17.4034C61.1395 17.9472 62.0913 18.2191 63.3603 18.2191C64.1035 18.2191 64.8196 18.1013 65.5085 17.8656C66.1974 17.63 66.7866 17.2946 67.276 16.8595L69.0436 19.6604C68.1915 20.3311 67.2307 20.8297 66.1611 21.156C65.1097 21.4641 64.031 21.6182 62.9252 21.6182Z" fill="#FF001F"/>
<path d="M78.8854 21.6182C77.7615 21.6182 76.7191 21.3644 75.7583 20.8568C74.7975 20.3311 74.027 19.5788 73.4469 18.5998C72.8668 17.6209 72.5767 16.4426 72.5767 15.0648C72.5767 13.832 72.7761 12.699 73.1749 11.6657C73.5919 10.6324 74.172 9.73501 74.9153 8.97361C75.6586 8.21221 76.5197 7.62304 77.4986 7.20608C78.4775 6.771 79.529 6.55346 80.653 6.55346C81.7951 6.55346 82.7831 6.75287 83.617 7.15169C84.4509 7.55052 85.0944 8.16689 85.5477 9.0008C86.019 9.81659 86.2547 10.8499 86.2547 12.1008C86.2547 13.4423 86.0915 14.6932 85.7652 15.8534C85.457 16.9955 84.9857 18.0016 84.3512 18.8718C83.7167 19.7238 82.9371 20.3946 82.0126 20.884C81.1062 21.3735 80.0638 21.6182 78.8854 21.6182ZM80.1907 18.1104C81.0246 18.1104 81.7588 17.911 82.3933 17.5121C83.0459 17.0952 83.5535 16.5332 83.9161 15.8262C84.2968 15.101 84.4871 14.2581 84.4871 13.2973C84.4871 12.3002 84.188 11.5116 83.5898 10.9315C83.0097 10.3514 82.1939 10.0613 81.1424 10.0613C80.3266 10.0613 79.5924 10.2698 78.9398 10.6868C78.2872 11.0856 77.7705 11.6476 77.3898 12.3727C77.0273 13.0797 76.846 13.9136 76.846 14.8744C76.846 15.8715 77.136 16.6601 77.7161 17.2402C78.3144 17.8203 79.1392 18.1104 80.1907 18.1104ZM83.0731 21.4007L83.6714 18.4911L84.5959 14.1402L85.167 9.78939L86.8801 1.22367H91.1222L87.0976 21.4007H83.0731Z" fill="#FF001F"/>
<path d="M91.051 21.4007L93.9606 6.771H98.1755L95.2659 21.4007H91.051ZM96.7887 4.73154C96.0454 4.73154 95.4472 4.52306 94.9939 4.10611C94.5407 3.67102 94.3141 3.1453 94.3141 2.52893C94.3141 1.80379 94.5679 1.20555 95.0755 0.734205C95.6013 0.244735 96.2811 0 97.115 0C97.8582 0 98.4565 0.208478 98.9097 0.625433C99.381 1.02426 99.6167 1.52279 99.6167 2.12104C99.6167 2.90056 99.3539 3.53506 98.8281 4.02453C98.3205 4.49587 97.6407 4.73154 96.7887 4.73154Z" fill="#FF001F"/>
<path d="M105.458 21.6182C104.261 21.6182 103.228 21.3644 102.358 20.8568C101.488 20.3311 100.871 19.5697 100.509 18.5727C100.146 17.5756 100.11 16.3428 100.4 14.8744L102.004 6.771H106.246L104.696 14.6025C104.479 15.6721 104.56 16.4969 104.941 17.0771C105.34 17.6572 106.038 17.9472 107.035 17.9472C108.086 17.9472 108.966 17.639 109.673 17.0227C110.398 16.4063 110.878 15.4636 111.114 14.1946L112.61 6.771H116.852L113.942 21.4007H109.917L110.733 17.2674L111.331 18.5183C110.643 19.5878 109.782 20.3764 108.748 20.884C107.715 21.3735 106.618 21.6182 105.458 21.6182Z" fill="#FF001F"/>
</g>
<path fill-rule="evenodd" clip-rule="evenodd" d="M35.5796 8H20.5714V10.2941H35.1066L35.5796 8ZM34.4759 13.3529H10.2857V15.6471H34.0029L34.4759 13.3529ZM33.3722 18.7059H0V21H32.8992L33.3722 18.7059Z" fill="#FF001F"/>
<path fill-rule="evenodd" clip-rule="evenodd" d="M142 44.7764H153.67V42.377H142.822L142 44.7764ZM143.918 39.1779H161.645V36.7785H144.74L143.918 39.1779ZM145.836 33.5794H169.62V31.18H146.659L145.836 33.5794Z" fill="#FF001F"/>
<defs>
<filter id="filter0_d_8_11172" x="28.5964" y="24.5996" width="117.483" height="33.6699" filterUnits="userSpaceOnUse" color-interpolation-filters="sRGB">
<feFlood flood-opacity="0" result="BackgroundImageFix"/>
<feColorMatrix in="SourceAlpha" type="matrix" values="0 0 0 0 0 0 0 0 0 0 0 0 0 0 0 0 0 0 127 0" result="hardAlpha"/>
<feOffset dy="4"/>
<feGaussianBlur stdDeviation="2"/>
<feComposite in2="hardAlpha" operator="out"/>
<feColorMatrix type="matrix" values="0 0 0 0 0 0 0 0 0 0 0 0 0 0 0 0 0 0 0.16 0"/>
<feBlend mode="normal" in2="BackgroundImageFix" result="effect1_dropShadow_8_11172"/>
<feBlend mode="normal" in="SourceGraphic" in2="effect1_dropShadow_8_11172" result="shape"/>
</filter>
<filter id="filter1_d_8_11172" x="31.7955" y="0" width="89.056" height="29.6182" filterUnits="userSpaceOnUse" color-interpolation-filters="sRGB">
<feFlood flood-opacity="0" result="BackgroundImageFix"/>
<feColorMatrix in="SourceAlpha" type="matrix" values="0 0 0 0 0 0 0 0 0 0 0 0 0 0 0 0 0 0 127 0" result="hardAlpha"/>
<feOffset dy="4"/>
<feGaussianBlur stdDeviation="2"/>
<feComposite in2="hardAlpha" operator="out"/>
<feColorMatrix type="matrix" values="0 0 0 0 0 0 0 0 0 0 0 0 0 0 0 0 0 0 0.16 0"/>
<feBlend mode="normal" in2="BackgroundImageFix" result="effect1_dropShadow_8_11172"/>
<feBlend mode="normal" in="SourceGraphic" in2="effect1_dropShadow_8_11172" result="shape"/>
</filter>
</defs>
</svg>
