<svg width="405" height="378" viewBox="0 0 405 378" fill="none" xmlns="http://www.w3.org/2000/svg">
<g clip-path="url(#clip0_8_11826)">
<path d="M405 270.758C401.63 280.208 397.878 289.457 390.703 296.836C389.863 297.707 390.076 298.79 390.033 299.841C388.853 329.317 378.787 342.239 350.553 350.085C330.261 355.723 309.713 356.297 289.028 352.549C287.135 352.209 284.999 352.188 284.744 349.512C286.072 348.429 287.539 348.195 289.219 348.62C295.416 350.16 301.783 350.669 308.119 350.998C328.571 352.028 348.364 349.087 366.594 339.297C379.626 332.3 386.536 321.194 386.344 306.116C386.334 304.98 386.833 303.472 385.356 302.91C384.218 302.474 383.485 303.642 382.666 304.237C374.928 309.939 366.222 313.124 356.687 313.857C352.382 314.186 348.024 313.91 343.516 313.91C345.27 318.157 349.161 317.711 352.754 317.913C354.125 317.987 355.89 317.722 355.996 319.697C356.102 321.661 354.402 321.64 352.977 321.799C343.548 322.882 338.414 317.849 339.381 308.505C339.668 305.745 340.615 302.952 339.286 300.202C339.158 287.376 334.842 281.663 322.629 278.01C319.259 277.002 315.932 275.834 312.583 274.729C312.413 271.629 314.04 271.13 316.602 271.916C320.131 272.999 323.66 274.103 327.21 275.144C333.365 276.938 337.5 280.92 340.253 286.632C343.006 292.366 343.804 298.418 343.389 304.619C343.176 307.741 344.239 309.026 347.29 309.461C354.752 310.544 361.97 310.204 368.837 306.764C383.942 301.073 394.019 290.646 398.696 275.133C404.235 263.952 399.961 248.11 389.735 241.867C388.247 240.954 386.483 240.274 386.961 237.981C389.576 236.388 391.468 238.214 393.009 239.68C398.08 244.521 402.948 249.576 403.99 257.019C404.043 257.39 404.66 257.677 405.011 258.006V270.748L405 270.758Z" fill="#251E2D"/>
<path d="M71.2205 378C70.2107 375.505 67.7339 373.105 70.0831 370.27C71.9327 368.029 73.7717 365.258 77.4921 366.851C81.1382 368.412 82.265 371.268 81.6166 374.974C81.4358 376.004 81.0744 376.991 80.7874 378H71.2205Z" fill="#FDEACD"/>
<path d="M222.091 19.0378C222.017 16.6063 223.866 16.3408 225.588 15.8843C233.072 13.8775 240.555 11.8282 248.039 9.81079C252.397 8.63219 256.447 8.90826 259.774 12.4228C264.93 17.8698 262.91 25.8758 255.246 28.4135C248.23 30.7282 240.938 32.1935 233.763 34.0304C224.206 36.4831 214.703 39.2014 205.062 41.2931C200.342 42.3124 199.013 45.5509 197.717 49.2778C197.238 50.6688 197.674 51.6244 198.822 52.4526C210.504 60.9576 218.636 72.3507 225.227 84.9755C228.256 94.0007 231.445 103.015 231.764 112.667C231.86 115.566 232.498 117.18 235.57 118.539C244.509 122.499 246.763 132.693 240.226 139.499C238.174 141.633 237.813 143.629 237.77 146.124C235.208 147.239 234.368 144.925 233.082 143.693C225.291 136.228 216.223 132.215 205.264 133.128C204.839 133.319 204.413 133.521 203.978 133.712V133.659C191.115 134.137 177.562 147.154 176.202 160.13C175.978 162.253 176.659 162.487 178.381 162.444C195.527 162.02 207.22 171.459 216.638 184.307C221.209 190.529 224.78 197.494 228.724 204.162C230.148 206.583 231.605 207.762 233.869 205.107C240.906 201.274 247.964 197.484 252.184 190.21C254.47 189.754 254.863 187.927 254.459 186.218C254.087 184.657 252.344 184.636 250.909 184.561C247.071 184.36 243.531 185.517 240.385 187.492C235.123 190.794 230.542 190.677 226.481 185.655C226.47 185.347 226.375 185.061 226.205 184.795C226.12 184.434 226.024 184.084 225.939 183.723C225.992 182.3 226.035 180.888 226.088 179.465L226.407 178.403C229.628 173.126 235.155 171.501 240.481 169.558C243.744 169.622 244.424 168.528 243.627 165.109C242.394 159.832 239.003 155.203 239.173 149.565C240.236 149.31 241.714 149.097 242.001 150.212C243.276 155.139 246.03 153.27 249.048 152.209C254.863 150.17 259.817 151.826 263.696 156.657C266.056 159.599 267.47 163.028 268.82 166.49C279.418 193.555 300.285 208.622 327.348 216.447C332.897 218.592 338.733 218.635 344.548 218.826C350.022 219.006 355.496 219.314 360.748 221.002C365.297 222.457 369.273 225.016 370.325 229.953C371.027 233.287 372.802 233.797 375.651 234.264C378.138 234.668 381.582 233.043 382.996 236.77C381.986 238.968 380.179 238.331 378.425 238.119C368.55 236.908 358.643 237.588 348.746 237.566C345.866 237.566 345.217 238.49 346.599 240.943C346.482 244.373 346.365 247.802 346.238 251.232C346.046 251.731 345.855 252.23 345.653 252.729C345.26 253.791 344.867 254.853 344.473 255.914C337.075 265.12 333.535 265.704 326.445 258.855C325.594 255.362 326.657 252.432 328.667 249.501C331.494 245.392 330.824 240.009 327.657 238.235C324.67 236.568 320.588 238.83 318.483 243.916C316.07 249.735 314.561 255.851 314.486 262.221C313.189 266.861 311.627 271.417 310.383 276.088C308.246 284.169 303.718 290.911 296.118 294.978C281.257 302.931 265.004 296.804 256.287 280.113C255.097 271.576 256.107 263.347 259.763 255.49C260.359 252.75 266.588 251.168 261.464 247.25C262.23 246.071 262.389 243.417 264.526 244.84C267.831 247.038 268.82 244.861 270.053 242.652C277.59 237.248 284.106 230.983 287.433 222.032C288.496 219.473 287.529 217.318 285.477 216.054C283.213 214.663 280.672 215.184 278.483 216.723C273.508 220.227 270.935 225.526 268.299 230.707C263.452 240.253 257.435 248.885 249.335 255.989C237.355 266.469 222.718 265.98 213.109 254.831C210.398 251.678 209.144 247.813 207.443 244.16C205.774 231.143 211.78 221.555 221.198 213.495C222.697 211.329 228.596 212.147 226.056 207.411C222.229 200.287 218.062 193.3 213.502 186.621C206.933 177.012 198.025 170.132 186.608 167.297C180.911 165.884 174.798 164.908 169.696 169.569L169.558 169.611C166.847 169.388 165.465 171.491 163.924 173.052C156.217 180.771 153.103 190.55 153.167 201.041C153.39 237.227 166.975 268.167 191.785 294.139C209.324 312.497 230.138 326.418 253.205 337.057C254.959 337.864 258.892 337.545 257.276 341.644C252.205 342.483 248.825 338.214 244.318 337.333C234.283 331.557 224.004 326.195 214.331 318.826C212.28 325.462 212.418 331.78 211.748 337.938C211.397 341.145 210.249 342.09 207.145 342.047C199.045 341.941 190.935 342.122 182.824 342.196C181.591 342.132 180.368 342.005 179.135 342.005C155.314 341.994 131.503 341.931 107.681 342.058C103.929 342.079 101.941 341.516 101.675 337.078C101.303 330.952 99.5704 324.91 99.1771 318.794C98.922 314.929 96.2752 311.011 98.9327 307.072C101.781 307.135 101.601 309.397 101.877 311.234C102.579 315.927 103.153 320.641 103.865 325.324C104.513 329.582 103.312 335.496 106.533 337.598C109.626 339.626 115.016 338.151 119.395 338.214C147.671 338.299 175.946 338.352 204.222 338.501C207.198 338.512 208.315 337.259 208.336 334.402C208.368 329.699 208.07 325.027 210.026 320.408C211.015 318.072 209.877 315.672 207.337 313.676C189.765 299.883 175.192 283.362 165.168 263.368C162.213 257.465 158.917 255.564 152.986 256.965C138.784 256.265 124.583 256.498 110.381 256.838C107.755 256.689 105.141 256.424 102.515 256.403C93.9791 256.35 94.383 256.339 95.1271 264.685C95.5311 269.197 98.3374 273.763 95.6267 278.414C92.5866 278.414 93.1181 275.812 92.8098 274.167C92.0445 270.004 91.6937 265.757 91.0559 261.563C90.6732 259.078 90.8752 256.254 86.9634 256.02C85.1669 255.914 85.1988 253.908 84.9649 252.24C83.0303 238.182 80.9575 224.156 78.8634 210.119C78.6401 208.643 78.1937 206.923 79.9901 206.636C84.3271 205.957 82.7858 203.047 82.4669 200.711C80.1496 183.903 77.6728 167.116 75.4405 150.297C74.9622 146.719 74.25 144.394 70.0193 143.417C63.9177 142.005 60.5055 136.94 60.3673 131.015C60.2185 124.772 63.0992 120.248 69.2114 118.04C71.2736 117.297 71.9964 116.447 72.0602 114.377C72.5492 99.1398 77.7153 85.3896 85.6027 72.5206C86.7827 71.3738 88.0157 70.8642 89.3976 72.2127C89.6315 74.3787 88.0901 75.8015 87.1122 77.4261C80.596 88.1927 76.9712 99.9043 75.7275 112.359C75.5787 113.814 74.2075 116.256 76.8012 116.798C79.8945 117.445 79.2886 114.589 79.6606 112.89C82.4031 100.308 93.15 91.8134 105.746 92.7584C108.627 92.9708 110.2 92.1851 111.954 90.0933C116.972 84.126 123.318 80.1549 130.993 78.318C142.133 75.6423 151.912 78.7533 161.011 85.3152C162.691 82.3847 164.147 79.6028 164.828 76.4705C169.069 66.9992 173.215 57.4749 177.583 48.0674C179.157 44.6802 176.382 45.0625 174.862 44.6059C152.837 38.0121 131.939 40.5923 112.103 52.2402C110.402 53.2383 108.128 56.5511 106.459 53.8435C104.598 50.8174 108.691 50.0105 110.53 48.9274C131.258 36.7061 153.22 33.8924 176.308 40.9108C178.817 41.6753 180.847 42.1638 181.527 38.989C184.993 22.7435 199.013 22.6692 211.121 19.866C212.567 19.5369 213.906 19.4519 215.32 18.698C217.127 17.7212 219.306 16.9461 221.092 19.0697C220.805 21.0446 219.189 21.4906 217.669 21.8622C211.557 23.3806 205.455 25.0264 199.268 26.2262C192.614 27.511 188.352 30.9087 186.077 37.4919C183.823 44.0325 183.43 43.9051 190.244 46.3579C192.561 49.0336 194.496 49.4052 195.559 45.4022C196.834 40.6029 200.002 38.4581 204.817 37.3751C218.392 34.3171 231.87 30.8131 245.36 27.3942C248.602 26.5766 251.823 25.6103 254.937 24.3999C257.733 23.3062 258.732 20.8641 258.53 17.9654C258.339 15.2897 256.883 13.7925 254.161 13.6014C251.855 12.0724 249.665 13.5377 247.539 14.0367C240.661 15.6719 233.848 17.5407 227.023 19.3776C225.291 19.8448 223.622 20.5137 222.07 19.0166L222.091 19.0378ZM263.718 165.64C264.175 164.377 263.409 163.644 262.538 162.965H262.548C260.008 154.98 253.173 152.931 246.529 158.165L246.582 158.123C245.668 158.017 245.604 158.537 245.774 159.227C246.242 161.106 246.667 162.986 247.188 164.855C247.667 166.585 248.134 168.21 250.59 168.093C255.703 167.849 260.231 169.771 264.568 172.234V172.053C264.441 172.924 265.004 173.338 265.642 173.699C266.088 174.177 266.471 174.963 266.981 175.058C267.842 175.218 268.172 174.443 267.768 173.742C266.258 171.098 266.131 167.785 263.771 165.566L263.707 165.651L263.718 165.64ZM264.759 193.215L264.696 193.321C269.405 183.16 264.068 172.988 254.14 173.211C246.582 171.172 239.864 173.657 233.348 177.108C230.829 178.435 228.628 180.251 230.106 183.362C231.711 186.759 234.528 186.144 237.355 184.753C241.639 182.629 245.902 180.378 250.866 180.42C256.978 180.474 260.04 185.528 257.34 191.038C256.234 193.3 254.512 195.063 252.673 196.751C246.38 202.538 239.194 207.029 231.817 211.276C225.195 215.099 218.881 219.346 214.884 226.184C209.218 235.857 210.643 248.195 218.2 254.959C225.609 261.574 236.579 261.234 245.944 253.939C253.194 248.291 258.509 241.092 262.548 232.873C265.27 227.32 267.938 221.703 272.2 217.095C277.6 211.244 283.978 209.917 288.624 213.602C292.599 216.745 292.493 221.99 288.422 229.008C284.244 236.207 277.834 241.315 271.839 246.793C265.631 252.463 261.443 259.27 259.71 267.488C257.021 280.24 263.654 290.401 276.739 293.757C288.751 296.836 301.05 290.221 305.228 279.263C307.694 272.776 308.842 266.086 310.394 259.429C311.797 255.192 312.637 250.85 312.626 246.369C315.06 244.362 315.05 241.049 316.793 238.639C319.089 235.475 321.757 233.011 325.977 233.712C330.187 234.413 332.727 237.025 334.077 241.092C335.533 245.456 334.141 248.96 331.515 252.336C329.995 254.3 329.347 256.658 331.473 258.473C333.705 260.384 336.044 259.514 338.138 257.762C340.285 255.967 340.678 253.408 341.348 250.956C346.62 238.947 337.861 224.857 325.371 225.25C318.908 225.504 313.933 228.509 310.17 233.627C306.748 238.288 305.079 243.661 303.909 249.246C302.251 257.188 301.762 265.375 298.775 273.041C295.671 281.005 290.569 286.176 281.374 285.846C272.764 283.755 268.852 280.198 268.129 273.561C267.874 271.289 267.906 268.985 267.81 266.692C271.169 258.463 277.696 252.984 284.223 247.377C289.017 243.258 293.024 238.342 295.522 232.395C296.437 231.769 296.692 230.866 296.639 229.826L296.596 229.953C299.753 225.759 300.359 220.917 299.657 215.959C298.69 209.047 292.259 203.6 285.977 204.003C281.608 202.984 277.462 203.185 273.444 205.585C269.766 207.783 266.556 210.438 263.824 213.687C262.57 215.184 261.443 216.734 259.296 216.946C258.711 215.364 258.934 213.856 259.753 212.412C264.217 209.121 266.258 204.109 268.873 199.512C270.446 200.945 271.807 202.23 274.358 200.828C276.622 199.586 279.344 199.172 281.863 198.397C283 198.46 284.202 199.034 285.435 197.855C280.375 193.12 275.868 187.97 272.169 182.151C271.499 181.1 270.914 179.709 269.458 180.835C269.181 181.047 269.947 182.618 270.234 183.574C270.149 186.398 270.053 189.223 269.968 192.058C268.193 195.073 267.013 198.386 264.834 201.232C258.339 209.715 249.612 215.343 240.598 220.62C235.708 223.476 230.776 226.237 226.853 230.421C224.334 233.096 222.548 236.037 223.462 239.934C226.13 247.76 230.499 249.437 237.313 245.137C239.375 243.842 241.374 242.387 242.639 240.189C246.168 236.678 246.295 233.128 243.021 229.539C241.969 228.382 240.991 227.15 239.981 225.961C242.309 222.393 243.925 224.782 245.679 226.609C248.35 229.391 250.515 228.952 252.174 225.292C253.109 225.175 254.055 225.058 254.991 224.942C255.618 230.76 251.568 234.636 248.815 238.894C244.137 246.135 237.674 251.041 228.586 251.434C222.218 248.694 219.561 243.449 218.785 236.94C222.08 228.647 228.618 223.476 235.974 219.038C240.8 216.118 245.647 213.219 250.218 209.928C255.639 206.031 260.943 201.901 263.665 195.445C264.494 194.925 264.717 194.107 264.749 193.205L264.759 193.215ZM320.173 221.841C322.14 221.852 324.149 221.969 325.605 219.962C317.048 217.796 309.341 213.687 300.54 209.492C301.72 211.786 302.347 212.986 302.974 214.196C303.197 223.529 303.612 224.432 309.788 225.844C314.008 226.81 316.612 222.945 320.163 221.831L320.173 221.841ZM301.603 231.036L301.454 231.089C295.087 242.27 286.328 251.327 276.707 259.747C273.869 262.232 271.414 265.587 272.179 269.994C271.903 276.757 274.624 280.59 280.694 281.939C286.519 283.234 291.185 280.261 294.502 273.126C297.276 269.718 296.543 267.679 292.387 266.012C288.56 264.472 285.073 262.105 281.438 260.108C285.254 254.778 288.23 260.034 291.09 261.255C297.967 264.175 298.116 264.324 298.552 256.902C300.231 248.705 301.581 240.412 305.525 232.863C306.365 231.769 308.459 230.92 307.385 229.359C306.631 228.265 304.717 227.384 303.367 227.426C301.401 227.501 302.23 229.794 301.624 231.015L301.603 231.036ZM366.158 231.429C364.553 224.782 359.1 223.699 353.615 223.179C347.29 222.574 340.891 223.275 333.014 221.799C335.927 223.784 337.468 224.846 339.009 225.897C342.4 232.884 347.949 235.252 355.496 233.893C358.037 233.436 360.726 233.776 363.341 233.67C364.766 233.617 366.626 233.935 366.158 231.429ZM168.941 93.8096C169.292 95.9226 170.451 97.5896 171.971 99.4902C178.126 85.4002 183.972 71.4694 190.329 57.7722C192.412 53.2914 191.753 51.0616 187.108 49.8512C183.355 46.4428 181.495 47.7701 179.741 52.1234C175.67 62.2424 171.471 72.3294 166.656 82.098C164.2 87.0884 164.477 90.6136 168.931 93.799L168.941 93.8096ZM185.088 79.5709C181.495 86.3664 178.53 93.4167 175.723 100.987C181.315 100.626 186.321 100.446 190.573 103.642C193.72 106.01 196.367 109.885 201.012 106.126C201.586 105.67 202.659 106.456 203.191 107.241C202.957 109.662 200.385 109.705 199.215 111.138C196.303 114.674 194.57 113.686 192.146 110.225C188.16 104.544 181.463 102.877 175.181 105.925C171.184 107.868 170.121 107.008 168.644 102.973C164.509 91.6329 156.664 83.8287 144.344 81.7794C131.939 79.7089 121.67 83.9455 113.868 93.6928C111.869 96.188 110.062 97.0481 106.831 96.7508C94.7764 95.6465 86.3787 101.582 83.5299 112.115C82.3712 116.394 83.5618 117.052 87.6012 117.042C129.175 116.914 170.748 116.967 212.322 116.925C213.746 116.925 215.437 117.647 216.553 116.32C216.808 113.315 212.088 112.03 214.352 108.632C218.232 108.76 219.061 112.03 220.092 114.663C221.559 118.443 224.557 116.914 226.842 116.798C229.67 116.649 228.405 114.037 228.224 112.603C227.023 102.591 225.152 92.7478 219.965 83.8606C215.383 72.9028 207.783 64.3235 198.641 56.9865C197.228 55.8503 195.782 53.9391 194.421 57.305C191.424 64.7694 188.213 72.1596 185.088 79.5709ZM142.345 210.299C129.972 210.236 117.609 210.172 105.236 210.108C104.524 207.879 102.717 208.08 100.92 208.091C95.6267 208.123 90.3224 208.378 85.0606 208.017C80.7874 207.73 80.511 209.822 81.0212 213.05C82.9771 225.292 85.539 237.45 86.2299 249.883C86.3893 252.782 87.463 254.959 91.2897 254.693C96.2008 254.353 101.154 254.651 106.097 254.576C107.511 254.555 109.456 255.362 109.818 252.888C123.222 252.729 136.626 252.57 150.031 252.41C150.732 252.485 151.423 252.612 152.125 252.633C159.385 252.814 159.523 252.591 157.27 245.827C154.059 236.175 151.041 226.428 150.02 216.288C149.489 211 147.373 209.153 142.345 210.31V210.299ZM179.614 121.087C169.026 121.045 158.439 120.96 147.852 120.981C124.391 121.034 100.92 121.13 77.4602 121.215C67.872 120.418 62.7484 124.963 64.513 132.703C65.9267 138.915 70.1043 141.145 78.5551 140.2C81.5634 140.295 84.561 140.454 87.5693 140.465C98.9008 140.497 110.232 140.465 121.564 140.507C123.094 140.507 125.178 140.242 125.242 142.482C125.305 144.861 123.148 144.362 121.67 144.426C118.672 144.553 115.664 144.595 112.656 144.67H107.33C104.003 144.68 100.676 144.702 97.3594 144.723C92.6078 144.627 87.8138 144.85 83.1047 144.351C78.587 143.884 78.3106 145.87 78.8634 149.469C80.9681 163.209 82.8071 177.001 84.9224 190.741C85.709 195.848 84.0614 203.09 88.1964 205.458C92.2783 207.804 98.8051 205.904 104.248 205.872C116.95 205.893 129.664 205.914 142.367 205.935C147.15 206.965 148.83 205.553 149.265 200.17C150.445 185.602 154.995 172.446 169.25 165.099C170.419 164.493 171.333 163.74 171.609 162.434C172.779 157.04 174.947 152.028 177.605 147.229C178.795 145.084 178.03 144.351 175.83 144.436C174.596 144.479 173.363 144.521 172.13 144.574C170.727 144.542 169.324 144.468 167.91 144.468C161.405 144.457 154.899 144.468 148.394 144.447C146.831 144.447 144.748 144.542 144.769 142.44C144.79 140.295 146.991 140.688 148.457 140.55C149.85 140.412 151.264 140.529 152.678 140.497C162.33 140.242 172.003 141.038 181.644 140.051C182.112 139.849 182.665 139.732 183.037 139.414C198.493 126.152 214.937 125.43 231.743 137.619C234.57 139.669 236.197 139.01 237.813 136.685C239.917 133.659 240.991 130.357 239.258 126.757C237.27 122.637 233.752 120.928 229.362 120.939C212.768 120.96 196.186 121.045 179.592 121.108L179.614 121.087Z" fill="#251E2D"/>
<path d="M327.38 216.437C300.317 208.611 279.45 193.544 268.852 166.479C267.502 163.018 266.088 159.588 263.728 156.647C259.838 151.816 254.884 150.159 249.08 152.198C246.061 153.26 243.308 155.139 242.033 150.202C241.746 149.087 240.279 149.299 239.205 149.554C238.737 148.407 238.259 147.261 237.791 146.125C237.834 143.629 238.195 141.622 240.247 139.499C246.784 132.703 244.541 122.5 235.591 118.539C232.519 117.18 231.881 115.566 231.785 112.667C231.467 103.016 228.278 94.0115 225.248 84.9756C235.814 85.6658 246.051 88.3733 256.404 90.2846C276.633 94.0115 296.841 97.834 316.963 102.049C326.264 103.992 335.353 106.891 343.931 111.213C365.595 122.107 371.941 139.233 362.863 161.754C355.167 180.856 342.804 196.857 329.889 212.529C328.89 213.74 327.476 214.653 327.37 216.437H327.38Z" fill="#FDEACD"/>
<path d="M98.9433 307.051C96.2858 310.99 98.9433 314.908 99.1878 318.773C99.5811 324.9 101.314 330.941 101.686 337.057C101.962 341.506 103.939 342.058 107.692 342.037C131.503 341.91 155.324 341.963 179.146 341.984C180.379 341.984 181.602 342.111 182.835 342.175C176.202 348.195 168.017 351.742 160.182 355.617C148.181 361.553 135.702 366.288 122.308 368.741C94.9358 373.763 74.9303 359.408 71.146 331.865C68.4567 312.264 71.5712 293.29 75.8126 274.316C80.3941 253.791 82.0311 233.341 75.6 212.763C71.3161 199.066 63.2799 187.853 53.8086 177.533C43.5295 166.341 31.6134 156.679 22.1527 144.712C12.1819 132.12 7.37714 118.019 10.4598 101.805C11.948 93.9798 17.3586 89.1062 23.6622 85.4111C35.5996 78.4139 48.8976 75.8231 62.5145 74.1879C70.2212 73.2641 77.9598 73.3066 85.6452 72.5103C77.7578 85.3686 72.5917 99.1189 72.1027 114.366C72.0389 116.426 71.3055 117.286 69.2539 118.03C63.1417 120.227 60.261 124.761 60.4098 131.005C60.548 136.93 63.9602 141.994 70.0618 143.406C74.2925 144.383 75.0047 146.709 75.483 150.287C77.7153 167.106 80.1921 183.893 82.5094 200.701C82.8283 203.037 84.3697 205.946 80.0326 206.626C78.2362 206.913 78.6826 208.633 78.9059 210.109C81.0106 224.135 83.0728 238.172 85.0074 252.23C85.2413 253.897 85.2094 255.904 87.0059 256.01C90.9177 256.244 90.7157 259.068 91.0984 261.553C91.7362 265.747 92.087 269.983 92.8523 274.156C93.15 275.802 92.6291 278.403 95.6693 278.403C95.7543 281.408 95.8393 284.413 95.9244 287.418C95.4779 291.612 93.7771 296.093 98.6563 299.034C98.7626 301.699 98.8582 304.375 98.9645 307.04L98.9433 307.051Z" fill="#FCEACC"/>
<path d="M257.287 341.623C258.902 337.524 254.969 337.843 253.215 337.036C230.148 326.407 209.335 312.476 191.796 294.118C166.985 268.146 153.4 237.205 153.177 201.019C153.113 190.529 156.228 180.75 163.935 173.03C165.487 171.48 166.869 169.367 169.569 169.601C168.219 180.771 167.219 191.856 168.824 203.196C172.088 226.269 181.506 246.528 196.792 263.75C216.617 286.08 240.768 302.867 267.885 315.343C281.629 321.671 295.841 326.067 311.318 325.027C318.387 324.549 324.468 322.712 328.496 316.447C331.526 316.83 332.642 314.579 334.003 312.551C336.543 308.76 337.287 304.226 339.286 300.213C340.615 302.963 339.668 305.755 339.381 308.516C338.414 317.86 343.548 322.893 352.977 321.81C354.402 321.65 356.092 321.672 355.996 319.707C355.89 317.732 354.115 317.998 352.754 317.923C349.161 317.722 345.27 318.168 343.517 313.92C348.024 313.92 352.382 314.196 356.687 313.867C366.222 313.135 374.928 309.939 382.666 304.247C383.485 303.653 384.218 302.485 385.356 302.92C386.833 303.483 386.323 304.991 386.344 306.127C386.546 321.204 379.626 332.3 366.594 339.308C348.364 349.098 328.571 352.05 308.119 351.009C301.783 350.69 295.416 350.181 289.219 348.631C287.55 348.216 286.083 348.439 284.744 349.522C282.798 349.374 280.864 349.215 279.11 348.227C276.282 344.033 272.03 343.895 267.63 344.224C263.898 344.49 260.986 341.527 257.297 341.644L257.287 341.623ZM191.211 279.008C191.062 278.403 190.956 277.32 189.521 277.384C188.352 277.437 187.586 278.138 187.395 279.253C187.172 280.527 187.884 281.164 189.128 281.206C190.329 281.249 191.094 280.718 191.222 278.998L191.211 279.008Z" fill="#D08E58"/>
<path d="M344.813 92.4082C351.893 93.7567 357.856 96.7191 363.639 99.9151C376.118 106.817 388.013 114.642 394.136 128.212C398.154 137.11 398.048 146.422 393.615 155.32C390.905 160.746 385.919 163.283 381.136 162.147C375.321 160.767 370.059 155.309 371.154 149.618C374.152 134.084 367.965 121.703 359.036 110.077C354.859 104.629 350.203 99.5435 345.791 94.277C345.472 93.8947 345.313 93.3851 344.813 92.4082Z" fill="#FDEACD"/>
<path d="M164.87 76.4814C164.19 79.603 162.733 82.3956 161.054 85.3261C151.965 78.7642 142.175 75.6531 131.035 78.3289C123.371 80.1658 117.025 84.1369 111.997 90.1042C110.243 92.196 108.67 92.9817 105.789 92.7693C93.2031 91.8243 82.4457 100.319 79.7032 112.901C79.3311 114.611 79.937 117.456 76.8437 116.808C74.25 116.267 75.6213 113.835 75.7701 112.37C77.0138 99.9152 80.6492 88.2036 87.1547 77.437C88.1327 75.8124 89.674 74.4002 89.4402 72.2235C114.676 71.9687 139.805 73.657 164.87 76.4814Z" fill="#F8E5CA"/>
<path d="M222.091 19.0382C223.643 20.546 225.312 19.8664 227.044 19.3992C233.869 17.5517 240.683 15.6936 247.56 14.0584C249.676 13.5487 251.876 12.0941 254.183 13.6231C253.821 20.4292 252.057 22.3086 244.191 24.326C229.149 28.1697 214.182 32.3213 199.056 35.7509C192.816 37.1631 190.541 40.6564 190.265 46.3901C183.451 43.9374 183.845 44.0754 186.098 37.5241C188.373 30.9304 192.625 27.5432 199.29 26.2585C205.476 25.0692 211.567 23.4128 217.69 21.8945C219.21 21.5122 220.837 21.0769 221.113 19.1019C221.443 19.0595 221.761 19.0488 222.091 19.0488V19.0382Z" fill="#FEBD11"/>
<path d="M57.4972 355.734C46.8673 356.318 43.1894 348.312 42.6791 341.347C42.1583 334.19 49.8437 326.98 56.987 327.087C64.226 327.193 71.263 334.328 71.1992 341.516C71.1248 349.767 65.3953 355.702 57.4866 355.734H57.4972Z" fill="#FDEACD"/>
<path d="M257.287 341.623C260.975 341.506 263.898 344.468 267.619 344.203C267.736 345.137 267.863 346.072 267.98 347.006C259.88 351.752 251.121 352.368 242.182 350.659C239.577 350.16 236.494 348.843 236.101 345.509C235.697 342.026 238.227 340.126 240.927 338.618C241.98 338.034 243.191 337.737 244.329 337.301C248.836 338.183 252.216 342.44 257.287 341.602V341.623Z" fill="#FCEACC"/>
<path d="M346.62 240.933C345.239 238.469 345.887 237.545 348.768 237.556C358.664 237.577 368.571 236.898 378.446 238.108C380.2 238.321 382.007 238.968 383.017 236.76C384.325 237.174 385.643 237.577 386.95 237.991C386.472 240.285 388.237 240.975 389.725 241.878C399.961 248.121 404.224 263.963 398.686 275.144C398.665 273.732 398.611 272.319 398.622 270.918C398.771 252.145 388.098 241.156 369.4 240.943C361.811 240.858 354.21 240.933 346.61 240.943L346.62 240.933Z" fill="#EEA0A9"/>
<path d="M62.9929 63.4639C65.1402 64.6425 68.9563 61.9774 69.3496 65.1521C69.6579 67.5943 65.6717 67.9659 63.4075 68.5393C53.0008 71.1619 42.6366 74.0818 31.7941 74.2836C30.3803 74.3048 28.2437 75.0693 27.9142 72.7334C27.6378 70.7584 29.5193 70.132 30.9543 69.548C41.2441 65.4176 52.1929 64.8017 63.0035 63.4639H62.9929Z" fill="#FDEACD"/>
<path d="M267.991 347.017C267.874 346.082 267.746 345.148 267.63 344.214C272.041 343.895 276.282 344.023 279.11 348.217C275.017 351.338 271.722 347.208 267.991 347.017Z" fill="#251E2D"/>
<path d="M100.708 60.6498C99.0709 62.2319 97.9335 64.8545 95.074 65.3429C94.3831 65.4597 93.2988 64.3024 93.724 63.4317C94.872 61.0639 96.4134 58.8447 99.2835 58.42C100.113 58.2926 100.793 59.2058 100.708 60.6498Z" fill="#251E2D"/>
<path d="M14.8181 83.8609C14.7331 85.9632 13.6169 87.0675 11.5016 86.9932C9.63071 86.9294 8.61024 85.8252 8.59961 83.967C8.59961 81.8222 9.7689 80.7285 11.8843 80.8029C13.7764 80.8666 14.6906 81.9921 14.8181 83.8609Z" fill="#FDEACD"/>
<path d="M346.62 240.932C354.221 240.932 361.811 240.858 369.411 240.932C388.12 241.145 398.792 252.134 398.633 270.907C398.622 272.319 398.675 273.731 398.696 275.133C394.03 290.656 383.953 301.083 368.837 306.764C368.231 306.445 367.668 305.957 367.03 305.84C354.646 303.568 350.798 302.941 351.808 288.501C352.297 281.472 348.098 277.034 342.613 273.636C339.063 271.438 335.3 269.569 331.632 267.552C339.233 267.53 344.739 262.54 344.495 255.893C344.888 254.831 345.281 253.77 345.674 252.708C345.866 252.209 346.057 251.71 346.259 251.211C346.376 247.781 346.493 244.351 346.62 240.922V240.932ZM375.087 292.026C379.807 292.09 383.506 288.597 383.698 283.882C383.9 278.913 380.254 275.027 375.343 274.963C370.633 274.899 366.924 278.414 366.743 283.107C366.552 288.066 370.198 291.962 375.098 292.026H375.087ZM388.534 260.947C390.884 267.138 392.924 272.457 392.606 278.265C396.772 270.78 395.646 265.301 388.534 260.947ZM384.761 269.197C384.484 267.339 383.368 266.384 381.519 266.511C379.701 266.639 378.446 267.647 378.734 269.569C378.989 271.247 380.137 272.574 381.954 272.404C383.645 272.245 384.846 271.172 384.75 269.208L384.761 269.197Z" fill="#EA4858"/>
<path d="M331.643 267.563C335.31 269.58 339.063 271.449 342.624 273.647C348.109 277.044 352.307 281.483 351.818 288.512C350.809 302.942 354.657 303.579 367.041 305.851C367.678 305.968 368.242 306.456 368.848 306.775C361.981 310.215 354.763 310.544 347.301 309.472C344.25 309.026 343.187 307.752 343.4 304.63C343.814 298.418 343.017 292.366 340.264 286.643C337.511 280.931 333.376 276.949 327.221 275.154C323.67 274.124 320.141 273.02 316.612 271.927C314.05 271.141 312.413 271.64 312.594 274.74C312.158 276.567 311.722 278.382 311.297 280.209C310.298 282.258 309.384 284.35 308.268 286.335C302.294 297.049 293.822 303.504 280.843 302.496C266.875 301.402 256.426 291.941 256.33 280.113C265.046 296.804 281.3 302.931 296.16 294.978C303.761 290.911 308.289 284.169 310.426 276.089C311.659 271.417 313.232 266.862 314.529 262.222C319.631 263.337 324.202 266.278 329.549 266.533L329.517 266.511C329.974 267.382 330.793 267.552 331.664 267.594H331.654L331.643 267.563Z" fill="#C13855"/>
<path d="M311.287 280.208C311.722 278.382 312.158 276.567 312.583 274.74C315.932 275.834 319.259 277.012 322.629 278.021C334.843 281.674 339.158 287.386 339.286 300.213C337.298 304.226 336.543 308.76 334.003 312.551C332.642 314.579 331.526 316.83 328.496 316.448C329.358 314.728 330.314 313.05 331.058 311.277C334.439 303.281 333.025 298.418 326.062 293.194C323.67 291.4 321.204 289.425 320.088 286.654C318.419 282.513 315.294 280.877 311.276 280.219L311.287 280.208Z" fill="#F8E5CA"/>
<path d="M311.287 280.208C315.305 280.867 318.43 282.502 320.099 286.643C321.215 289.414 323.692 291.4 326.073 293.184C333.035 298.408 334.449 303.271 331.069 311.266C330.325 313.029 329.368 314.717 328.507 316.437C324.478 322.702 318.398 324.538 311.329 325.016C295.852 326.067 281.65 321.661 267.895 315.333C240.778 302.857 216.627 286.07 196.802 263.74C181.517 246.518 172.109 226.258 168.835 203.186C167.23 191.856 168.229 180.76 169.579 169.59C169.579 169.59 169.717 169.548 169.728 169.548C171.663 169.612 173.587 169.76 175.521 169.718C180.893 169.604 184.465 172.156 186.236 177.373C188.128 182.958 195.304 186.59 199.843 183.426C204.328 180.304 205.859 182.47 207.921 185.857C213.268 194.628 215.957 204.662 221.23 213.464C211.812 221.523 205.817 231.111 207.475 244.129C208.006 262.137 226.279 273.105 242.16 264.94C248.028 261.924 252.78 257.497 257.233 252.718C258.094 253.632 258.945 254.555 259.806 255.469C256.149 263.326 255.139 271.555 256.33 280.092C256.426 291.92 266.875 301.381 280.843 302.474C293.811 303.494 302.283 297.027 308.268 286.314C309.373 284.328 310.287 282.236 311.297 280.187L311.287 280.208ZM202.893 203.048C203.074 198.036 198.822 193.449 193.805 193.258C188.777 193.067 184.238 197.218 183.972 202.262C183.685 207.518 188.065 212.253 193.284 212.328C198.322 212.402 202.713 208.165 202.893 203.048Z" fill="#FDC55A"/>
<path d="M181.665 140.019C172.024 141.007 162.351 140.21 152.699 140.465C151.296 140.497 149.871 140.38 148.479 140.518C147.012 140.656 144.811 140.263 144.79 142.408C144.769 144.511 146.852 144.405 148.415 144.415C154.92 144.447 161.426 144.415 167.931 144.436C169.335 144.436 170.738 144.511 172.152 144.543C170.068 150.117 165.359 154.184 163.35 159.822C163.148 160.385 162.425 160.979 161.83 161.149C155.409 163.028 152.114 168.221 148.723 173.328C146.704 171.916 144.407 170.896 142.962 173.657C141.601 176.258 143.079 177.936 145.853 178.446C144.493 187.577 142.143 196.581 142.377 205.914C129.674 205.893 116.961 205.872 104.258 205.851C101.962 185.464 99.6661 165.088 97.3701 144.702C100.697 144.681 104.024 144.67 107.341 144.649C105.98 145.764 104.418 146.698 103.302 148.025C100.187 151.731 100.899 157.263 104.683 160.247C108.372 163.166 113.772 162.572 116.472 158.972C119.842 154.47 118.311 148.715 112.656 144.659C115.664 144.585 118.672 144.553 121.67 144.415C123.158 144.351 125.306 144.861 125.242 142.472C125.189 140.242 123.094 140.508 121.564 140.497C110.232 140.465 98.9008 140.497 87.5693 140.455C84.561 140.455 81.5634 140.285 78.5551 140.189C73.8035 134.116 73.2614 127.798 77.4496 121.204C100.91 121.119 124.381 121.024 147.841 120.971C158.428 120.949 169.016 121.034 179.603 121.077C179.263 127.501 182.239 133.564 181.644 140.019H181.665ZM137.37 127.108C137.349 126.789 137.317 126.481 137.296 126.163H87.0484C87.0484 126.481 87.0697 126.789 87.0697 127.108H137.37ZM131.992 144.489C133.204 144.15 135.478 144.914 135.425 142.568C135.361 140.03 133.033 140.518 131.365 140.508C129.855 140.497 127.718 140.168 127.761 142.419C127.804 145.073 130.217 144.203 132.002 144.489H131.992ZM121.755 165.81C120.384 166.033 119.246 166.798 119.3 168.433C119.353 170.026 120.437 170.907 122.042 170.928C123.477 170.949 124.317 170.196 124.317 168.72C124.317 167.127 123.541 166.129 121.755 165.81Z" fill="#EC1D2A"/>
<path d="M295.522 232.406C293.014 238.352 289.017 243.268 284.223 247.388C277.707 252.994 271.18 258.473 267.81 266.702C264.802 271.969 264.919 277.32 268.607 281.971C271.743 285.921 276.261 287.375 281.374 285.846C290.569 286.176 295.671 281.005 298.775 273.041C301.762 265.375 302.251 257.189 303.909 249.246C305.079 243.661 306.737 238.278 310.17 233.627C313.933 228.509 318.908 225.504 325.371 225.25C331.526 227.448 336.288 231.132 338.882 237.375C340.7 241.761 340.487 246.443 341.359 250.956C340.689 253.409 340.296 255.978 338.148 257.762C336.054 259.514 333.716 260.385 331.483 258.473C329.357 256.658 330.006 254.3 331.526 252.336C334.141 248.96 335.533 245.456 334.088 241.092C332.738 237.025 330.197 234.413 325.988 233.712C321.757 233.011 319.1 235.475 316.804 238.639C315.06 241.039 315.06 244.351 312.637 246.358C310.213 250.425 308.608 254.63 310.404 259.418C308.852 266.065 307.704 272.765 305.238 279.253C301.071 290.2 288.762 296.825 276.75 293.746C263.665 290.402 257.021 280.23 259.721 267.477C261.454 259.259 265.642 252.453 271.85 246.783C277.845 241.304 284.255 236.197 288.432 228.998C292.504 221.979 292.61 216.734 288.634 213.591C283.978 209.907 277.611 211.234 272.211 217.084C267.948 221.693 265.28 227.32 262.559 232.863C258.52 241.092 253.205 248.291 245.955 253.929C236.59 261.223 225.62 261.563 218.211 254.948C210.643 248.195 209.229 235.846 214.895 226.173C218.902 219.346 225.206 215.088 231.828 211.266C239.205 207.008 246.391 202.527 252.684 196.74C254.523 195.052 256.245 193.29 257.35 191.028C260.05 185.507 256.989 180.463 250.877 180.41C245.913 180.367 241.65 182.618 237.366 184.742C234.549 186.133 231.732 186.749 230.117 183.351C228.639 180.24 230.839 178.424 233.359 177.097C239.885 173.657 246.593 171.162 254.151 173.2C262.602 177.32 265.1 184.562 264.706 193.311L264.77 193.205C263.707 193.619 263.909 194.627 263.686 195.445C260.965 201.901 255.65 206.031 250.239 209.928C245.668 213.209 240.821 216.118 235.995 219.038C228.65 223.487 222.112 228.647 218.806 236.94C215.851 245.456 220.284 252.028 228.607 251.434C237.696 251.041 244.159 246.135 248.836 238.894C251.589 234.636 255.639 230.76 255.012 224.942C255.118 224.336 255.235 223.731 255.341 223.115C259.391 222.999 259.87 220.461 259.317 217.233V216.946C261.464 216.734 262.602 215.173 263.845 213.687C266.577 210.438 269.787 207.783 273.465 205.585C277.483 203.185 281.629 202.984 285.998 204.003C293.226 207.698 297.574 213.368 297.617 221.693C297.627 224.443 296.968 227.203 296.617 229.953L296.66 229.826C296.288 230.686 295.916 231.535 295.533 232.396L295.522 232.406Z" fill="#FEBD11"/>
<path d="M153.018 256.955C158.96 255.554 162.244 257.454 165.2 263.358C175.224 283.352 189.797 299.863 207.369 313.666C209.909 315.662 211.046 318.062 210.058 320.398C208.102 325.017 208.4 329.678 208.368 334.392C208.346 337.248 207.23 338.501 204.254 338.491C175.978 338.353 147.703 338.289 119.417 338.215C119.417 337.132 119.438 336.049 119.448 334.955V335.061C119.342 333.479 119.225 331.908 119.108 330.326C123.732 330.633 126.996 327.629 130.578 325.526C144.95 317.074 157.663 306.647 167.985 293.481C169.494 291.559 170.887 289.733 168.878 286.93C165.2 281.801 161.649 276.524 158.673 270.982C156.302 266.565 152.943 262.413 153.018 256.966V256.955Z" fill="#BA0503"/>
<path d="M153.018 256.955C152.943 262.402 156.302 266.553 158.673 270.971C161.649 276.513 165.21 281.79 168.878 286.919C170.887 289.722 169.483 291.548 167.985 293.47C157.663 306.636 144.95 317.063 130.578 325.515C126.996 327.628 123.732 330.633 119.108 330.314C115.537 305.893 113.124 281.344 110.413 256.827C124.615 256.477 138.816 256.254 153.018 256.955Z" fill="#EC1D2A"/>
<path d="M150.041 252.39C136.637 252.549 123.233 252.708 109.818 252.867C108.287 238.618 106.767 224.358 105.236 210.098C117.609 210.162 129.972 210.226 142.345 210.289C142.313 211.701 142.292 213.124 142.26 214.536C136.127 214.515 129.983 214.452 123.849 214.515C121.925 214.536 119.14 213.666 119.055 216.957C118.959 220.684 122.021 219.665 124.072 219.697C130.206 219.803 136.35 219.729 142.483 219.718C144.28 230.771 146.151 241.803 150.041 252.368V252.39Z" fill="#FEBD11"/>
<path d="M240.513 169.548C235.187 171.48 229.659 173.105 226.439 178.392C226.29 178.467 226.024 178.53 226.024 178.615C226.003 178.891 226.077 179.168 226.12 179.454C226.067 180.877 226.024 182.289 225.971 183.712C225.896 183.839 225.716 184.02 225.758 184.094C225.875 184.339 226.077 184.561 226.247 184.784C226.417 185.05 226.513 185.337 226.524 185.645C226.779 192.886 231.722 195.838 238.27 192.652C242.681 190.508 246.976 187.673 252.216 190.2C247.996 197.473 240.938 201.274 233.901 205.097C228.299 196.57 222.038 188.257 218.785 178.584C215.49 168.794 209.218 163.559 199.555 161.106C193.507 159.577 192.083 156.838 193.773 150.924C195.027 146.538 196.898 142.302 200.916 139.541C202.213 138.649 203.435 137.747 203.053 135.889C222.591 136.112 238.121 150.074 240.502 169.558L240.513 169.548Z" fill="#EA4858"/>
<path d="M204.201 107.157L203.701 107.242H203.202C202.67 106.456 201.596 105.66 201.022 106.127C196.367 109.886 193.72 106.01 190.584 103.642C186.332 100.446 181.325 100.627 175.734 100.988C178.53 93.4171 181.506 86.3774 185.099 79.5713C196.909 79.497 208.368 82.2364 219.976 83.861C225.163 92.7376 227.034 102.591 228.235 112.604C228.405 114.037 229.681 116.649 226.853 116.798C224.568 116.915 221.57 118.444 220.103 114.664C219.083 112.02 218.243 108.75 214.363 108.633C213.917 108.537 213.459 108.442 213.013 108.335C210.451 104.163 207.23 103.727 204.222 107.167L204.201 107.157Z" fill="#F8E5CA"/>
<path d="M203.053 135.878C203.446 137.736 202.213 138.639 200.916 139.531C196.898 142.291 195.027 146.528 193.773 150.913C192.083 156.827 193.507 159.567 199.556 161.096C209.218 163.549 215.479 168.773 218.785 178.573C222.038 188.246 228.299 196.56 233.901 205.086C231.637 207.741 230.18 206.562 228.756 204.141C224.812 197.473 221.23 190.508 216.67 184.286C207.252 171.438 195.559 162.009 178.413 162.423C176.68 162.466 176.01 162.221 176.233 160.108C177.594 147.144 191.147 134.116 204.009 133.648C203.691 134.392 203.382 135.135 203.063 135.878H203.053Z" fill="#C13855"/>
<path d="M181.665 140.019C182.25 133.574 179.274 127.5 179.624 121.077C196.218 121.013 212.8 120.928 229.394 120.907C233.784 120.907 237.302 122.606 239.29 126.725C241.023 130.325 239.949 133.627 237.845 136.653C236.218 138.989 234.592 139.647 231.775 137.588C214.969 125.398 198.524 126.12 183.069 139.382C182.696 139.701 182.144 139.807 181.676 140.019H181.665Z" fill="#BA0503"/>
<path d="M148.713 173.328C152.104 168.221 155.399 163.028 161.819 161.149C162.415 160.969 163.137 160.385 163.339 159.822C165.348 154.194 170.057 150.117 172.141 144.543C173.374 144.5 174.607 144.458 175.83 144.405C178.019 144.33 178.785 145.052 177.605 147.197C174.947 152.007 172.779 157.008 171.609 162.402C171.322 163.708 170.408 164.462 169.25 165.067C154.995 172.425 150.456 185.57 149.265 200.138C148.83 205.522 147.161 206.923 142.367 205.904C142.133 196.571 144.471 187.567 145.843 178.435C147.681 177.225 148.351 175.356 148.713 173.317V173.328Z" fill="#BA0503"/>
<path d="M221.23 213.485C215.968 204.683 213.279 194.649 207.921 185.879C205.859 182.491 204.328 180.325 199.843 183.447C195.304 186.611 188.139 182.98 186.236 177.395C184.465 172.164 180.893 169.612 175.521 169.739C173.597 169.782 171.663 169.633 169.728 169.569C174.83 164.908 180.943 165.885 186.64 167.297C198.046 170.132 206.965 177.002 213.534 186.622C218.094 193.301 222.272 200.287 226.088 207.412C228.628 212.147 222.729 211.33 221.23 213.496V213.485Z" fill="#F8E5CA"/>
<path d="M257.233 252.74C252.78 257.518 248.028 261.946 242.16 264.961C226.279 273.137 208.006 262.158 207.475 244.15C209.176 247.803 210.419 251.678 213.141 254.832C222.75 265.98 237.398 266.469 249.367 255.989C257.478 248.896 263.484 240.264 268.331 230.708C270.967 225.526 273.54 220.228 278.515 216.724C280.704 215.184 283.245 214.674 285.509 216.055C287.561 217.318 288.539 219.474 287.465 222.033C282.15 217.594 278.132 220.015 274.401 224.432C268.023 231.982 266.726 237.323 270.085 242.653C268.841 244.872 267.863 247.038 264.557 244.84C262.421 243.417 262.251 246.072 261.496 247.25C259.593 248.705 258.381 250.701 257.223 252.729L257.233 252.74Z" fill="#C13855"/>
<path d="M142.26 214.547C142.292 213.135 142.313 211.712 142.345 210.3C147.373 209.142 149.489 210.99 150.02 216.277C151.03 226.418 154.059 236.165 157.27 245.817C159.523 252.58 159.385 252.803 152.125 252.623C151.423 252.602 150.732 252.474 150.041 252.4C146.151 241.835 144.28 230.792 142.483 219.75C142.409 218.019 142.335 216.288 142.26 214.557V214.547Z" fill="#BA0503"/>
<path d="M329.538 266.522C324.191 266.278 319.62 263.326 314.518 262.211C314.603 255.84 316.113 249.724 318.515 243.906C320.62 238.82 324.702 236.558 327.689 238.225C330.856 239.998 331.526 245.382 328.698 249.491C326.689 252.421 325.626 255.341 326.477 258.845C325.818 262.073 328.114 264.122 329.538 266.511V266.522Z" fill="#EA4858"/>
<path d="M190.265 46.3794C190.541 40.6457 192.816 37.1524 199.056 35.7402C214.182 32.3106 229.16 28.1696 244.191 24.3152C252.057 22.2978 253.821 20.429 254.183 13.6123C256.904 13.8034 258.36 15.2899 258.552 17.9763C258.754 20.8856 257.754 23.3278 254.959 24.4108C251.855 25.6212 248.623 26.5875 245.381 27.4051C231.892 30.8134 218.413 34.3174 204.839 37.386C200.013 38.469 196.856 40.6138 195.58 45.4131C194.517 49.4267 192.582 49.0551 190.265 46.3688V46.3794Z" fill="#B9AC6F"/>
<path d="M168.941 93.8099C164.487 90.6138 164.2 87.0993 166.667 82.1088C171.482 72.3403 175.681 62.2426 179.752 52.1343C181.506 47.7809 183.366 46.4537 187.119 49.862C187.31 52.2936 185.854 54.173 184.971 56.2435C179.635 68.762 174.288 81.2913 168.941 93.8099Z" fill="#FEBD11"/>
<path d="M168.941 93.8096C174.288 81.291 179.635 68.7618 184.971 56.2432C185.854 54.1727 187.31 52.2933 187.119 49.8618C191.753 51.0616 192.412 53.302 190.339 57.7828C183.972 71.4694 178.136 85.4002 171.982 99.5009C170.461 97.6002 169.303 95.9226 168.952 93.8202L168.941 93.8096Z" fill="#B9AC6F"/>
<path d="M294.491 273.137C291.175 280.262 286.508 283.245 280.683 281.939C274.613 280.591 271.892 276.758 272.168 269.994C273.965 268.444 274.007 265.662 276.176 264.388C281.905 268.093 288.05 270.918 294.481 273.148L294.491 273.137Z" fill="#FDC55A"/>
<path d="M252.163 225.303C250.512 228.955 248.347 229.394 245.668 226.619C243.914 224.793 242.309 222.404 239.981 225.972C237.345 226.141 235.378 227.617 233.497 229.284C228.852 231.62 225.641 235.294 223.462 239.945C222.559 236.048 224.345 233.107 226.853 230.431C230.776 226.248 235.719 223.487 240.598 220.631C249.612 215.354 258.339 209.726 264.834 201.242C267.013 198.397 268.193 195.084 269.968 192.068C270.638 194.712 268.863 196.995 268.884 199.533C266.269 204.13 264.239 209.142 259.763 212.434C256.298 212.561 254.448 215.407 252.025 217.18C246.752 221.013 246.859 221.151 252.174 225.303H252.163Z" fill="#C13855"/>
<path d="M203.053 135.878C203.372 135.135 203.68 134.392 203.999 133.649V133.702C204.424 133.51 204.849 133.309 205.285 133.118C216.244 132.204 225.312 136.229 233.104 143.683C234.39 144.925 235.24 147.24 237.791 146.114C238.259 147.261 238.737 148.408 239.205 149.544C239.035 155.182 242.426 159.811 243.659 165.088C244.456 168.518 243.776 169.601 240.513 169.537C238.131 150.053 222.601 136.091 203.063 135.868L203.053 135.878Z" fill="#EEA0A9"/>
<path d="M112.656 144.66C118.311 148.716 119.842 154.471 116.472 158.973C113.772 162.583 108.372 163.167 104.683 160.247C100.899 157.263 100.198 151.742 103.302 148.025C104.407 146.698 105.98 145.764 107.341 144.649C109.116 144.649 110.891 144.649 112.667 144.649L112.656 144.66Z" fill="#EA4858"/>
<path d="M270.096 242.653C266.737 237.323 268.033 231.992 274.411 224.432C278.143 220.015 282.15 217.594 287.476 222.033C284.159 230.984 277.643 237.248 270.096 242.653Z" fill="#EA4858"/>
<path d="M223.462 239.945C225.641 235.294 228.852 231.621 233.507 229.285C235.474 233.829 240.066 236.176 242.649 240.211C241.374 242.398 239.386 243.853 237.324 245.159C230.51 249.448 226.141 247.781 223.473 239.956L223.462 239.945Z" fill="#FDC55A"/>
<path d="M276.187 264.388C274.018 265.662 273.976 268.455 272.179 269.994C271.414 265.588 273.869 262.232 276.707 259.748C286.328 251.328 295.087 242.271 301.454 231.09C300.922 236.972 297.5 241.517 294.172 245.976C288.305 253.855 288.177 253.77 297.5 256.743C297.829 256.849 298.191 256.849 298.541 256.902C298.116 264.335 297.967 264.186 291.079 261.256C288.22 260.034 285.254 254.789 281.427 260.109C279.089 260.81 277.43 262.339 276.176 264.377L276.187 264.388Z" fill="#C13855"/>
<path d="M366.158 231.429C366.615 233.925 364.766 233.606 363.341 233.67C360.726 233.776 358.037 233.436 355.496 233.893C347.96 235.241 342.411 232.873 339.009 225.897C348.821 224.039 357.952 225.452 366.158 231.44V231.429Z" fill="#FDC55A"/>
<path d="M262.548 162.965H262.538C262.442 164.069 262.41 165.152 263.718 165.64L263.781 165.555C263.005 167.902 264.781 169.941 264.579 172.223C260.242 169.76 255.713 167.838 250.6 168.082C248.145 168.199 247.677 166.575 247.199 164.844C246.689 162.986 246.253 161.096 245.785 159.216C246.051 158.845 246.317 158.484 246.593 158.112L246.54 158.155C252.705 157.029 257.914 159.057 262.559 162.965H262.548Z" fill="#FDC55A"/>
<path d="M298.541 256.902C298.191 256.849 297.829 256.849 297.5 256.742C288.188 253.769 288.305 253.854 294.172 245.976C297.5 241.516 300.922 236.972 301.454 231.089C301.454 231.089 301.603 231.026 301.603 231.036C302.91 231.652 304.207 232.257 305.515 232.873C301.571 240.412 300.221 248.715 298.541 256.912V256.902Z" fill="#EA4858"/>
<path d="M252.216 190.189C246.976 187.662 242.681 190.497 238.27 192.642C231.722 195.827 226.779 192.875 226.524 185.634C230.574 190.646 235.166 190.773 240.428 187.471C243.574 185.496 247.114 184.339 250.951 184.54C252.386 184.615 254.13 184.636 254.502 186.197C254.906 187.906 254.502 189.732 252.227 190.189H252.216Z" fill="#C13855"/>
<path d="M276.187 264.388C277.441 262.349 279.099 260.82 281.438 260.119C285.073 262.115 288.56 264.483 292.387 266.023C296.543 267.69 297.276 269.728 294.502 273.137C288.06 270.918 281.916 268.083 276.197 264.388H276.187Z" fill="#F8E5CA"/>
<path d="M320.173 221.831C316.612 222.946 314.008 226.81 309.798 225.844C303.622 224.421 303.208 223.529 302.985 214.196C309.022 216.044 314.454 219.272 320.173 221.831Z" fill="#FDC55A"/>
<path d="M268.884 199.533C268.873 196.995 270.638 194.713 269.968 192.069C270.053 189.244 270.149 186.409 270.234 183.585C274.114 188.533 277.994 193.47 281.863 198.418C279.344 199.193 276.622 199.608 274.358 200.85C271.818 202.241 270.457 200.967 268.873 199.533H268.884Z" fill="#FDC55A"/>
<path d="M242.639 240.21C240.066 236.176 235.463 233.829 233.497 229.284C235.368 227.628 237.345 226.142 239.981 225.972C240.991 227.161 241.969 228.393 243.021 229.55C246.288 233.146 246.161 236.696 242.639 240.2V240.21Z" fill="#F8E5CA"/>
<path d="M366.158 231.429C357.963 225.441 348.821 224.039 339.009 225.887C337.468 224.835 335.927 223.784 333.014 221.788C340.891 223.275 347.29 222.563 353.615 223.168C359.1 223.689 364.553 224.782 366.158 231.419V231.429Z" fill="#F8E5CA"/>
<path d="M341.348 250.945C340.476 246.432 340.7 241.75 338.871 237.365C336.278 231.121 331.526 227.437 325.361 225.239C337.861 224.846 346.62 238.936 341.337 250.945H341.348Z" fill="#F8E5CA"/>
<path d="M329.538 266.522C328.103 264.133 325.807 262.084 326.477 258.856C333.567 265.694 337.107 265.12 344.505 255.915C344.75 262.561 339.243 267.552 331.643 267.573L331.654 267.584C331.186 266.724 330.378 266.543 329.506 266.501L329.538 266.522Z" fill="#C13855"/>
<path d="M296.596 229.964C296.947 227.214 297.617 224.453 297.595 221.703C297.553 213.379 293.205 207.709 285.977 204.014C292.259 203.61 298.69 209.057 299.658 215.97C300.348 220.928 299.753 225.77 296.596 229.964Z" fill="#F8E5CA"/>
<path d="M252.163 225.303C246.837 221.151 246.742 221.013 252.014 217.18C254.438 215.418 256.298 212.561 259.753 212.434C258.934 213.878 258.7 215.375 259.296 216.968C259.296 216.968 259.296 217.255 259.296 217.265C255.373 217.467 254.799 219.93 255.32 223.137C255.214 223.742 255.097 224.358 254.991 224.963C254.044 225.08 253.109 225.197 252.174 225.314L252.163 225.303Z" fill="#EA4858"/>
<path d="M320.173 221.831C314.444 219.272 309.022 216.044 302.985 214.196C302.358 212.986 301.741 211.776 300.55 209.493C309.341 213.687 317.059 217.796 325.616 219.962C324.149 221.969 322.15 221.863 320.184 221.841L320.173 221.831Z" fill="#F8E5CA"/>
<path d="M281.374 285.857C276.261 287.386 271.733 285.921 268.608 281.982C264.919 277.331 264.802 271.969 267.81 266.713C267.906 269.006 267.874 271.31 268.129 273.583C268.863 280.208 272.764 283.776 281.374 285.868V285.857Z" fill="#F8E5CA"/>
<path d="M264.696 193.322C265.1 184.572 262.591 177.331 254.14 173.211C264.058 172.988 269.394 183.16 264.696 193.322Z" fill="#F8E5CA"/>
<path d="M281.863 198.418C277.983 193.481 274.103 188.533 270.234 183.585C269.947 182.64 269.181 181.069 269.458 180.846C270.914 179.72 271.509 181.111 272.169 182.162C275.868 187.981 280.375 193.141 285.435 197.866C284.202 199.045 283 198.471 281.863 198.408V198.418Z" fill="#F8E5CA"/>
<path d="M262.548 162.965C257.903 159.057 252.684 157.029 246.529 158.155C253.173 152.92 260.019 154.969 262.548 162.965Z" fill="#F8E5CA"/>
<path d="M228.586 251.444C220.273 252.028 215.841 245.466 218.785 236.951C219.561 243.46 222.208 248.705 228.586 251.444Z" fill="#F8E5CA"/>
<path d="M257.233 252.74C258.392 250.701 259.604 248.715 261.507 247.261C266.62 251.179 260.391 252.761 259.806 255.5C258.956 254.587 258.094 253.663 257.244 252.75L257.233 252.74Z" fill="#F8E5CA"/>
<path d="M305.504 232.874C304.207 232.269 302.9 231.653 301.592 231.037C302.198 229.805 301.369 227.512 303.335 227.437C304.696 227.384 306.599 228.276 307.354 229.37C308.427 230.931 306.333 231.78 305.493 232.874H305.504Z" fill="#EEA0A9"/>
<path d="M310.394 259.419C308.597 254.63 310.202 250.425 312.626 246.358C312.637 250.839 311.807 255.182 310.394 259.419Z" fill="#F7E694"/>
<path d="M264.579 172.213C264.781 169.941 262.995 167.891 263.781 165.545C266.141 167.764 266.269 171.077 267.778 173.721C268.182 174.422 267.853 175.197 266.992 175.037C266.481 174.942 266.088 174.156 265.652 173.678C265.291 173.126 264.94 172.585 264.579 172.033V172.213Z" fill="#EEA0A9"/>
<path d="M263.665 195.456C263.888 194.638 263.686 193.629 264.749 193.215C264.717 194.118 264.494 194.935 263.665 195.456Z" fill="#F8E5CA"/>
<path d="M295.522 232.406C295.895 231.546 296.267 230.697 296.649 229.837C296.692 230.877 296.437 231.78 295.522 232.406Z" fill="#F8E5CA"/>
<path d="M263.718 165.63C262.421 165.131 262.453 164.058 262.538 162.954C263.409 163.634 264.175 164.366 263.718 165.63Z" fill="#F8E5CA"/>
<path d="M226.247 184.774C226.077 184.551 225.886 184.339 225.758 184.084C225.726 184.01 225.896 183.829 225.971 183.702C226.056 184.063 226.152 184.413 226.237 184.774H226.247Z" fill="#C13855"/>
<path d="M226.12 179.444C226.077 179.168 226.003 178.881 226.024 178.605C226.024 178.52 226.29 178.456 226.439 178.382C226.332 178.732 226.226 179.083 226.12 179.444Z" fill="#C13855"/>
<path d="M346.27 251.221C346.078 251.72 345.887 252.219 345.685 252.718C345.876 252.219 346.068 251.72 346.27 251.221Z" fill="#C13855"/>
<path d="M264.568 172.043C264.93 172.595 265.28 173.137 265.642 173.689C265.004 173.328 264.441 172.914 264.568 172.043Z" fill="#FDC55A"/>
<path d="M205.274 133.118C204.849 133.309 204.424 133.511 203.988 133.702C204.413 133.511 204.839 133.309 205.274 133.118Z" fill="#C13855"/>
<path d="M246.593 158.112C246.327 158.484 246.061 158.845 245.785 159.217C245.615 158.527 245.679 158.006 246.593 158.112Z" fill="#F8E5CA"/>
<path d="M95.9138 287.429C99.2409 288.852 100.527 294.352 98.6456 299.045C93.7771 296.104 95.4673 291.623 95.9138 287.429Z" fill="#251E2D"/>
<path d="M191.211 279.009C191.084 280.729 190.329 281.26 189.117 281.217C187.873 281.175 187.161 280.538 187.384 279.264C187.586 278.149 188.341 277.448 189.51 277.395C190.945 277.331 191.062 278.414 191.2 279.019L191.211 279.009Z" fill="#FDC55A"/>
<path d="M375.087 292.026C370.187 291.963 366.541 288.066 366.732 283.107C366.913 278.403 370.623 274.9 375.332 274.963C380.254 275.027 383.889 278.924 383.687 283.882C383.496 288.597 379.807 292.09 375.077 292.026H375.087Z" fill="#EEA0A9"/>
<path d="M388.534 260.947C395.646 265.311 396.772 270.78 392.606 278.265C392.924 272.457 390.883 267.127 388.534 260.947Z" fill="#C13855"/>
<path d="M384.75 269.197C384.846 271.162 383.655 272.234 381.954 272.394C380.137 272.563 378.978 271.236 378.733 269.559C378.446 267.637 379.701 266.628 381.519 266.501C383.368 266.373 384.484 267.329 384.75 269.197Z" fill="#EEA0A9"/>
<path d="M329.506 266.5C330.389 266.532 331.186 266.723 331.654 267.584C330.771 267.541 329.963 267.371 329.506 266.5Z" fill="#EA4858"/>
<path d="M202.893 203.058C202.713 208.176 198.322 212.413 193.284 212.338C188.065 212.264 183.685 207.539 183.972 202.273C184.248 197.229 188.777 193.077 193.805 193.269C198.822 193.46 203.074 198.036 202.893 203.058Z" fill="#FDEACD"/>
<path d="M137.37 127.108H87.0697C87.0697 126.789 87.0484 126.481 87.0484 126.163H137.296C137.317 126.481 137.349 126.789 137.37 127.108Z" fill="#EEA0A9"/>
<path d="M131.992 144.489C130.206 144.192 127.793 145.073 127.75 142.419C127.718 140.168 129.855 140.497 131.354 140.507C133.023 140.518 135.351 140.04 135.415 142.567C135.468 144.914 133.204 144.16 131.981 144.489H131.992Z" fill="#251E2D"/>
<path d="M148.713 173.328C148.351 175.366 147.682 177.235 145.843 178.446C143.068 177.925 141.591 176.248 142.951 173.657C144.397 170.896 146.693 171.916 148.713 173.328Z" fill="#EA4858"/>
<path d="M121.755 165.8C123.541 166.118 124.328 167.116 124.317 168.709C124.317 170.185 123.477 170.939 122.042 170.918C120.437 170.896 119.353 170.015 119.3 168.422C119.246 166.787 120.384 166.023 121.755 165.8Z" fill="#EA4858"/>
<path d="M255.32 223.126C254.799 219.92 255.373 217.456 259.296 217.254C259.848 220.482 259.37 223.009 255.32 223.126Z" fill="#251E2D"/>
<path d="M147.979 102.06C147.915 107.751 143.334 112.582 138.104 112.476C132.587 112.37 127.676 107.687 127.612 102.485C127.538 96.7084 132.321 91.4525 137.636 91.4737C143.323 91.4949 148.054 96.3367 147.99 102.06H147.979ZM137.03 95.5722C133.948 95.7952 131.598 97.4941 131.535 101.402C131.471 105.585 133.533 108.208 137.796 108.324C141.761 108.441 144.035 106.084 144.354 102.198C144.641 98.5771 141.452 95.5935 137.03 95.5722Z" fill="#251E2D"/>
<path d="M204.201 107.157C207.209 103.727 210.441 104.152 212.992 108.325C209.728 110.459 206.986 108.654 204.201 107.157Z" fill="#251E2D"/>
</g>
<defs>
<clipPath id="clip0_8_11826">
<rect width="405" height="378" fill="white"/>
</clipPath>
</defs>
</svg>
