<svg width="120" height="120" viewBox="0 0 120 120" fill="none" xmlns="http://www.w3.org/2000/svg">
<circle cx="60" cy="60" r="60" fill="#F3F3F3"/>
<path d="M114.631 84.8094C110.112 94.7593 102.962 103.286 93.9518 109.47C84.9417 115.654 74.414 119.259 63.5047 119.898C52.5955 120.536 41.7191 118.183 32.0494 113.092C22.3797 108.001 14.2839 100.366 8.6357 91.0114L38.1445 73.1953C40.5478 77.1759 43.9926 80.4245 48.107 82.5906C52.2215 84.7567 56.8494 85.758 61.4913 85.4864C66.1331 85.2148 70.6127 83.6806 74.4464 81.0494C78.2802 78.4183 81.3226 74.7901 83.2452 70.5564L114.631 84.8094Z" fill="#E3E2E2"/>
<path d="M33.2026 61.4555L4.5 82.5C8.31073 91.2567 10.641 94.6201 15 99H105C112.542 90.091 115.133 84.7883 118 75L82.9191 51.9088C82.1178 51.3813 81.0548 51.4971 80.3859 52.1848L54.8088 78.4765C54.0198 79.2876 52.7156 79.2831 51.9322 78.4667L35.8283 61.6837C35.134 60.9601 34.0113 60.8626 33.2026 61.4555Z" fill="#E3E2E2"/>
<circle cx="54" cy="52" r="8" fill="#E3E2E2"/>
<path d="M32.328 36V24.8H34.92V33.888H40.536V36H32.328ZM50.9774 36.128C50.06 36.128 49.244 35.936 48.5294 35.552C47.8254 35.168 47.2654 34.6453 46.8494 33.984C46.444 33.312 46.2414 32.5493 46.2414 31.696C46.2414 30.832 46.444 30.0693 46.8494 29.408C47.2654 28.736 47.8254 28.2133 48.5294 27.84C49.244 27.456 50.06 27.264 50.9774 27.264C51.884 27.264 52.6947 27.456 53.4094 27.84C54.124 28.2133 54.684 28.7307 55.0894 29.392C55.4947 30.0533 55.6974 30.8213 55.6974 31.696C55.6974 32.5493 55.4947 33.312 55.0894 33.984C54.684 34.6453 54.124 35.168 53.4094 35.552C52.6947 35.936 51.884 36.128 50.9774 36.128ZM50.9774 34.08C51.3934 34.08 51.7667 33.984 52.0974 33.792C52.428 33.6 52.6894 33.328 52.8814 32.976C53.0734 32.6133 53.1694 32.1867 53.1694 31.696C53.1694 31.1947 53.0734 30.768 52.8814 30.416C52.6894 30.064 52.428 29.792 52.0974 29.6C51.7667 29.408 51.3934 29.312 50.9774 29.312C50.5614 29.312 50.188 29.408 49.8574 29.6C49.5267 29.792 49.26 30.064 49.0574 30.416C48.8654 30.768 48.7694 31.1947 48.7694 31.696C48.7694 32.1867 48.8654 32.6133 49.0574 32.976C49.26 33.328 49.5267 33.6 49.8574 33.792C50.188 33.984 50.5614 34.08 50.9774 34.08ZM66.5338 39.232C65.7231 39.232 64.9391 39.1307 64.1817 38.928C63.4351 38.736 62.8111 38.4427 62.3097 38.048L63.3017 36.256C63.6644 36.5547 64.1231 36.7893 64.6777 36.96C65.2431 37.1413 65.7978 37.232 66.3418 37.232C67.2271 37.232 67.8671 37.0347 68.2618 36.64C68.6671 36.2453 68.8698 35.6587 68.8698 34.88V33.584L69.0298 31.424L68.9978 29.248V27.392H71.3658V34.56C71.3658 36.16 70.9498 37.3387 70.1178 38.096C69.2858 38.8533 68.0911 39.232 66.5338 39.232ZM66.1498 35.584C65.3498 35.584 64.6244 35.4133 63.9737 35.072C63.3337 34.72 62.8164 34.2347 62.4217 33.616C62.0377 32.9867 61.8457 32.256 61.8457 31.424C61.8457 30.5813 62.0377 29.8507 62.4217 29.232C62.8164 28.6027 63.3337 28.1173 63.9737 27.776C64.6244 27.4347 65.3498 27.264 66.1498 27.264C66.8751 27.264 67.5151 27.4133 68.0698 27.712C68.6244 28 69.0564 28.4533 69.3658 29.072C69.6751 29.68 69.8298 30.464 69.8298 31.424C69.8298 32.3733 69.6751 33.1573 69.3658 33.776C69.0564 34.384 68.6244 34.8373 68.0698 35.136C67.5151 35.4347 66.8751 35.584 66.1498 35.584ZM66.6458 33.536C67.0831 33.536 67.4724 33.4507 67.8138 33.28C68.1551 33.0987 68.4217 32.848 68.6137 32.528C68.8058 32.208 68.9018 31.84 68.9018 31.424C68.9018 30.9973 68.8058 30.6293 68.6137 30.32C68.4217 30 68.1551 29.7547 67.8138 29.584C67.4724 29.4027 67.0831 29.312 66.6458 29.312C66.2084 29.312 65.8191 29.4027 65.4777 29.584C65.1364 29.7547 64.8644 30 64.6617 30.32C64.4697 30.6293 64.3737 30.9973 64.3737 31.424C64.3737 31.84 64.4697 32.208 64.6617 32.528C64.8644 32.848 65.1364 33.0987 65.4777 33.28C65.8191 33.4507 66.2084 33.536 66.6458 33.536ZM82.9049 36.128C81.9875 36.128 81.1715 35.936 80.4569 35.552C79.7529 35.168 79.1929 34.6453 78.7769 33.984C78.3715 33.312 78.1689 32.5493 78.1689 31.696C78.1689 30.832 78.3715 30.0693 78.7769 29.408C79.1929 28.736 79.7529 28.2133 80.4569 27.84C81.1715 27.456 81.9875 27.264 82.9049 27.264C83.8115 27.264 84.6222 27.456 85.3369 27.84C86.0515 28.2133 86.6115 28.7307 87.0169 29.392C87.4222 30.0533 87.6249 30.8213 87.6249 31.696C87.6249 32.5493 87.4222 33.312 87.0169 33.984C86.6115 34.6453 86.0515 35.168 85.3369 35.552C84.6222 35.936 83.8115 36.128 82.9049 36.128ZM82.9049 34.08C83.3209 34.08 83.6942 33.984 84.0249 33.792C84.3555 33.6 84.6169 33.328 84.8089 32.976C85.0009 32.6133 85.0969 32.1867 85.0969 31.696C85.0969 31.1947 85.0009 30.768 84.8089 30.416C84.6169 30.064 84.3555 29.792 84.0249 29.6C83.6942 29.408 83.3209 29.312 82.9049 29.312C82.4889 29.312 82.1155 29.408 81.7849 29.6C81.4542 29.792 81.1875 30.064 80.9849 30.416C80.7929 30.768 80.6969 31.1947 80.6969 31.696C80.6969 32.1867 80.7929 32.6133 80.9849 32.976C81.1875 33.328 81.4542 33.6 81.7849 33.792C82.1155 33.984 82.4889 34.08 82.9049 34.08Z" fill="#E3E2E2"/>
</svg>
