<svg width="170" height="51" viewBox="0 0 170 51" fill="none" xmlns="http://www.w3.org/2000/svg">
<path d="M42.0051 45.103C40.0653 45.103 38.3884 44.7586 36.9744 44.0697C35.5785 43.3627 34.4999 42.3928 33.7385 41.1601C32.9771 39.9092 32.5964 38.468 32.5964 36.8364C32.5964 35.223 32.8774 33.7183 33.4393 32.3224C34.0195 30.9265 34.8262 29.721 35.8595 28.7058C36.911 27.6725 38.1528 26.8658 39.5849 26.2857C41.0352 25.7055 42.6486 25.4155 44.4252 25.4155C46.1293 25.4155 47.634 25.7055 48.9392 26.2857C50.2445 26.8658 51.2325 27.6997 51.9032 28.7874L48.7217 31.3979C48.2322 30.6727 47.6068 30.1198 46.8454 29.7391C46.084 29.3584 45.1776 29.1681 44.1261 29.1681C43.0565 29.1681 42.0866 29.3584 41.2165 29.7391C40.3463 30.1017 39.594 30.6274 38.9595 31.3163C38.3431 31.9871 37.8718 32.7757 37.5455 33.6821C37.2191 34.5885 37.056 35.5493 37.056 36.5645C37.056 37.5253 37.2645 38.3683 37.6814 39.0934C38.0984 39.8005 38.7057 40.3534 39.5033 40.7522C40.301 41.151 41.2618 41.3504 42.3858 41.3504C43.3647 41.3504 44.2802 41.1782 45.1322 40.8338C45.9843 40.4712 46.7547 39.9092 47.4436 39.1478L50.0541 41.8127C49.0571 42.9729 47.8696 43.8159 46.4919 44.3416C45.1322 44.8492 43.6366 45.103 42.0051 45.103Z" fill="#FF001F"/>
<path d="M63.0903 29.9295C64.323 29.9295 65.3745 30.1923 66.2446 30.7181C67.1148 31.2257 67.7312 31.978 68.0938 32.9751C68.4745 33.9721 68.5198 35.2049 68.2297 36.6733L66.5981 44.7767H62.3561L63.9333 36.9452C64.1508 35.8756 64.0602 35.0508 63.6613 34.4707C63.2806 33.8906 62.5736 33.6005 61.5403 33.6005C60.4707 33.6005 59.5734 33.9087 58.8482 34.5251C58.1412 35.1414 57.6517 36.0841 57.3798 37.3531L55.9114 44.7767H51.6693L55.6939 24.5997H59.9359L58.0052 34.2803L57.1623 33.0295C57.8693 31.9599 58.7394 31.1803 59.7728 30.6909C60.8242 30.1833 61.9301 29.9295 63.0903 29.9295Z" fill="#FF001F"/>
<path d="M78.3008 44.9943C76.778 44.9943 75.4546 44.7223 74.3307 44.1785C73.2248 43.6346 72.3637 42.8732 71.7474 41.8943C71.131 40.9154 70.8228 39.7642 70.8228 38.4408C70.8228 36.8092 71.1854 35.359 71.9105 34.09C72.6538 32.8028 73.669 31.7877 74.9561 31.0444C76.2613 30.3011 77.757 29.9295 79.4429 29.9295C80.8751 29.9295 82.1078 30.2014 83.1411 30.7453C84.1744 31.271 84.9721 32.0143 85.5341 32.9751C86.1142 33.9178 86.4042 35.0508 86.4042 36.3742C86.4042 36.7549 86.3771 37.1356 86.3227 37.5163C86.2864 37.897 86.232 38.2595 86.1595 38.604H74.0587L74.4938 36.1294H84.1744L82.4341 36.8908C82.5791 36.075 82.5338 35.3952 82.2981 34.8514C82.0625 34.2894 81.6818 33.8634 81.156 33.5733C80.6303 33.2651 79.9958 33.111 79.2526 33.111C78.328 33.111 77.5394 33.3376 76.8868 33.7909C76.2523 34.2259 75.7719 34.8332 75.4456 35.6128C75.1193 36.3923 74.9561 37.2715 74.9561 38.2505C74.9561 39.3744 75.2643 40.2174 75.8807 40.7794C76.5152 41.3232 77.4669 41.5952 78.7359 41.5952C79.4792 41.5952 80.1952 41.4773 80.8841 41.2417C81.573 41.006 82.1622 40.6706 82.6516 40.2355L84.4192 43.0364C83.5671 43.7071 82.6063 44.2057 81.5367 44.532C80.4853 44.8402 79.4066 44.9943 78.3008 44.9943Z" fill="#FF001F"/>
<path d="M93.826 50.2697C92.4119 50.2697 91.1067 50.1065 89.9102 49.7802C88.7318 49.4539 87.7167 48.9735 86.8646 48.339L88.8769 45.2662C89.457 45.7375 90.2003 46.1182 91.1067 46.4083C92.0312 46.6983 93.0011 46.8434 94.0163 46.8434C95.4847 46.8434 96.5815 46.5261 97.3066 45.8916C98.0499 45.2571 98.5484 44.3144 98.8022 43.0636L99.3189 40.4259L100.298 36.9996L100.95 33.3014L101.549 30.147H105.6L103.18 42.3294C102.618 45.1393 101.549 47.1606 99.9715 48.3934C98.4125 49.6442 96.3639 50.2697 93.826 50.2697ZM94.4514 44.0697C93.2549 44.0697 92.1672 43.825 91.1883 43.3355C90.2093 42.846 89.4298 42.1481 88.8497 41.2417C88.2696 40.3171 87.9795 39.2113 87.9795 37.9242C87.9795 36.8002 88.1789 35.7578 88.5778 34.797C88.9947 33.8362 89.5658 32.9932 90.2909 32.2681C91.0342 31.5248 91.8953 30.9537 92.8742 30.5549C93.8713 30.138 94.959 29.9295 96.1373 29.9295C97.2069 29.9295 98.1768 30.1289 99.047 30.5277C99.9171 30.9265 100.588 31.5701 101.059 32.4584C101.549 33.3467 101.73 34.5341 101.603 36.0207C101.494 37.6341 101.141 39.0481 100.543 40.2627C99.9443 41.4592 99.1285 42.3928 98.0952 43.0636C97.08 43.7343 95.8654 44.0697 94.4514 44.0697ZM95.5935 40.589C96.4274 40.589 97.1616 40.4078 97.7961 40.0452C98.4306 39.6826 98.9291 39.1841 99.2917 38.5496C99.6543 37.897 99.8356 37.1537 99.8356 36.3198C99.8356 35.4315 99.5455 34.7335 98.9654 34.2259C98.3853 33.7002 97.5786 33.4373 96.5452 33.4373C95.7113 33.4373 94.9681 33.6186 94.3154 33.9812C93.6809 34.3438 93.1733 34.8514 92.7926 35.504C92.4301 36.1385 92.2488 36.8727 92.2488 37.7066C92.2488 38.5949 92.5479 39.3019 93.1461 39.8276C93.7444 40.3352 94.5602 40.589 95.5935 40.589Z" fill="#FF001F"/>
<path d="M114.28 44.9943C112.794 44.9943 111.497 44.7223 110.392 44.1785C109.286 43.6346 108.425 42.8732 107.808 41.8943C107.21 40.9154 106.911 39.7642 106.911 38.4408C106.911 36.8092 107.292 35.359 108.053 34.09C108.814 32.8028 109.857 31.7877 111.18 31.0444C112.522 30.3011 114.045 29.9295 115.749 29.9295C117.253 29.9295 118.549 30.2014 119.637 30.7453C120.743 31.2891 121.595 32.0505 122.193 33.0295C122.81 33.9903 123.118 35.1414 123.118 36.4829C123.118 38.0964 122.737 39.5467 121.976 40.8338C121.214 42.1209 120.172 43.1361 118.849 43.8794C117.525 44.6226 116.002 44.9943 114.28 44.9943ZM114.552 41.5136C115.386 41.5136 116.12 41.3142 116.755 40.9154C117.407 40.4984 117.915 39.9274 118.278 39.2022C118.64 38.4771 118.821 37.6341 118.821 36.6733C118.821 35.6943 118.531 34.9058 117.951 34.3075C117.371 33.7093 116.555 33.4102 115.504 33.4102C114.67 33.4102 113.927 33.6186 113.274 34.0356C112.64 34.4344 112.132 34.9964 111.751 35.7215C111.389 36.4467 111.207 37.2897 111.207 38.2505C111.207 39.2475 111.497 40.0452 112.078 40.6434C112.658 41.2235 113.483 41.5136 114.552 41.5136Z" fill="#FF001F"/>
<path d="M130.686 44.9943C129.489 44.9943 128.456 44.7405 127.586 44.2329C126.715 43.7071 126.099 42.9457 125.736 41.9487C125.374 40.9516 125.338 39.7189 125.628 38.2505L127.232 30.147H131.474L129.924 37.9785C129.707 39.0481 129.788 39.873 130.169 40.4531C130.568 41.0332 131.266 41.3232 132.263 41.3232C133.314 41.3232 134.193 41.0151 134.9 40.3987C135.626 39.7823 136.106 38.8396 136.342 37.5706L137.837 30.147H142.079L139.17 44.7767H135.145L135.961 40.6434L136.559 41.8943C135.87 42.9639 135.009 43.7525 133.976 44.2601C132.943 44.7495 131.846 44.9943 130.686 44.9943Z" fill="#FF001F"/>
<path d="M35.7955 21.4007L39.6025 2.36577H47.2981C49.6729 2.36577 51.5039 2.8915 52.791 3.94295C54.0963 4.97627 54.7489 6.42656 54.7489 8.29379C54.7489 9.8891 54.3773 11.285 53.634 12.4815C52.8907 13.6598 51.8211 14.5663 50.4252 15.2008C49.0475 15.8352 47.4068 16.1525 45.5033 16.1525H39.3306L41.6692 14.1402L40.228 21.4007H35.7955ZM41.5604 14.6569L40.0104 12.5631H45.6937C47.144 12.5631 48.2679 12.2367 49.0656 11.5841C49.8814 10.9134 50.2893 9.94349 50.2893 8.67449C50.2893 7.74994 49.9811 7.07012 49.3647 6.63503C48.7483 6.18182 47.8782 5.95521 46.7542 5.95521H41.3972L43.7358 3.80699L41.5604 14.6569Z" fill="#FF001F"/>
<path d="M62.9252 21.6182C61.4024 21.6182 60.079 21.3463 58.955 20.8025C57.8492 20.2586 56.9881 19.4972 56.3717 18.5183C55.7554 17.5393 55.4472 16.3882 55.4472 15.0648C55.4472 13.4332 55.8098 11.9829 56.5349 10.7139C57.2782 9.42682 58.2934 8.41163 59.5805 7.66836C60.8857 6.92509 62.3813 6.55346 64.0673 6.55346C65.4994 6.55346 66.7322 6.82538 67.7655 7.36924C68.7988 7.89496 69.5965 8.63823 70.1585 9.59904C70.7386 10.5417 71.0286 11.6748 71.0286 12.9981C71.0286 13.3788 71.0014 13.7595 70.9471 14.1402C70.9108 14.5209 70.8564 14.8835 70.7839 15.2279H58.6831L59.1182 12.7534H68.7988L67.0585 13.5148C67.2035 12.699 67.1582 12.0192 66.9225 11.4753C66.6869 10.9134 66.3062 10.4873 65.7804 10.1973C65.2547 9.8891 64.6202 9.73501 63.8769 9.73501C62.9524 9.73501 62.1638 9.96161 61.5112 10.4148C60.8767 10.8499 60.3963 11.4572 60.07 12.2367C59.7436 13.0163 59.5805 13.8955 59.5805 14.8744C59.5805 15.9984 59.8887 16.8414 60.505 17.4034C61.1395 17.9472 62.0913 18.2191 63.3603 18.2191C64.1035 18.2191 64.8196 18.1013 65.5085 17.8656C66.1974 17.63 66.7866 17.2946 67.276 16.8595L69.0436 19.6604C68.1915 20.3311 67.2307 20.8297 66.1611 21.156C65.1097 21.4641 64.031 21.6182 62.9252 21.6182Z" fill="#FF001F"/>
<path d="M78.8854 21.6182C77.7615 21.6182 76.7191 21.3644 75.7583 20.8568C74.7975 20.3311 74.027 19.5788 73.4469 18.5998C72.8668 17.6209 72.5767 16.4426 72.5767 15.0648C72.5767 13.832 72.7761 12.699 73.1749 11.6657C73.5919 10.6324 74.172 9.73501 74.9153 8.97361C75.6586 8.21221 76.5197 7.62304 77.4986 7.20608C78.4775 6.771 79.529 6.55346 80.653 6.55346C81.7951 6.55346 82.7831 6.75287 83.617 7.15169C84.4509 7.55052 85.0944 8.16689 85.5477 9.0008C86.019 9.81659 86.2547 10.8499 86.2547 12.1008C86.2547 13.4423 86.0915 14.6932 85.7652 15.8534C85.457 16.9955 84.9857 18.0016 84.3512 18.8718C83.7167 19.7238 82.9371 20.3946 82.0126 20.884C81.1062 21.3735 80.0638 21.6182 78.8854 21.6182ZM80.1907 18.1104C81.0246 18.1104 81.7588 17.911 82.3933 17.5121C83.0459 17.0952 83.5535 16.5332 83.9161 15.8262C84.2968 15.101 84.4871 14.2581 84.4871 13.2973C84.4871 12.3002 84.188 11.5116 83.5898 10.9315C83.0097 10.3514 82.1939 10.0613 81.1424 10.0613C80.3266 10.0613 79.5924 10.2698 78.9398 10.6868C78.2872 11.0856 77.7705 11.6476 77.3898 12.3727C77.0273 13.0797 76.846 13.9136 76.846 14.8744C76.846 15.8715 77.136 16.6601 77.7161 17.2402C78.3144 17.8203 79.1392 18.1104 80.1907 18.1104ZM83.0731 21.4007L83.6714 18.4911L84.5959 14.1402L85.167 9.78939L86.8801 1.22367H91.1222L87.0976 21.4007H83.0731Z" fill="#FF001F"/>
<path d="M91.051 21.4007L93.9606 6.771H98.1755L95.2659 21.4007H91.051ZM96.7887 4.73154C96.0454 4.73154 95.4472 4.52306 94.9939 4.10611C94.5407 3.67102 94.3141 3.1453 94.3141 2.52893C94.3141 1.80379 94.5679 1.20555 95.0755 0.734205C95.6013 0.244735 96.2811 0 97.115 0C97.8582 0 98.4565 0.208478 98.9097 0.625433C99.381 1.02426 99.6167 1.52279 99.6167 2.12104C99.6167 2.90056 99.3539 3.53506 98.8281 4.02453C98.3205 4.49587 97.6407 4.73154 96.7887 4.73154Z" fill="#FF001F"/>
<path d="M105.458 21.6182C104.261 21.6182 103.228 21.3644 102.358 20.8568C101.488 20.3311 100.871 19.5697 100.509 18.5727C100.146 17.5756 100.11 16.3428 100.4 14.8744L102.004 6.771H106.246L104.696 14.6025C104.479 15.6721 104.56 16.4969 104.941 17.0771C105.34 17.6572 106.038 17.9472 107.035 17.9472C108.086 17.9472 108.966 17.639 109.673 17.0227C110.398 16.4063 110.878 15.4636 111.114 14.1946L112.61 6.771H116.852L113.942 21.4007H109.917L110.733 17.2674L111.331 18.5183C110.643 19.5878 109.782 20.3764 108.748 20.884C107.715 21.3735 106.618 21.6182 105.458 21.6182Z" fill="#FF001F"/>
<path fill-rule="evenodd" clip-rule="evenodd" d="M35.5796 8.00012H20.5714V10.2942H35.1066L35.5796 8.00012ZM34.4759 13.3531H10.2857V15.6472H34.0029L34.4759 13.3531ZM33.3722 18.706H0V21.0001H32.8992L33.3722 18.706Z" fill="#FF001F"/>
<path fill-rule="evenodd" clip-rule="evenodd" d="M142 44.7764H153.67V42.377H142.822L142 44.7764ZM143.918 39.1779H161.645V36.7785H144.74L143.918 39.1779ZM145.836 33.5794H169.62V31.18H146.659L145.836 33.5794Z" fill="#FF001F"/>
</svg>
