<svg width="91" height="27" viewBox="0 0 91 27" fill="none" xmlns="http://www.w3.org/2000/svg">
<path d="M22.5355 24.1975C21.4948 24.1975 20.5952 24.0127 19.8366 23.6432C19.0877 23.2638 18.509 22.7435 18.1005 22.0822C17.692 21.4111 17.4878 20.6379 17.4878 19.7625C17.4878 18.8969 17.6385 18.0897 17.94 17.3408C18.2513 16.5919 18.6841 15.9452 19.2384 15.4005C19.8025 14.8461 20.4688 14.4133 21.2371 14.1021C22.0152 13.7909 22.8808 13.6353 23.8339 13.6353C24.7481 13.6353 25.5554 13.7909 26.2556 14.1021C26.9559 14.4133 27.486 14.8607 27.8458 15.4443L26.1389 16.8448C25.8763 16.4558 25.5408 16.1591 25.1323 15.9549C24.7238 15.7506 24.2375 15.6485 23.6734 15.6485C23.0996 15.6485 22.5793 15.7506 22.1124 15.9549C21.6456 16.1494 21.242 16.4314 20.9016 16.801C20.5709 17.1609 20.318 17.584 20.1429 18.0702C19.9679 18.5565 19.8804 19.072 19.8804 19.6167C19.8804 20.1321 19.9922 20.5844 20.2159 20.9734C20.4396 21.3527 20.7654 21.6494 21.1933 21.8633C21.6213 22.0773 22.1367 22.1843 22.7397 22.1843C23.2649 22.1843 23.7561 22.0919 24.2132 21.9071C24.6703 21.7126 25.0837 21.4111 25.4533 21.0026L26.8538 22.4323C26.3189 23.0547 25.6818 23.507 24.9427 23.789C24.2132 24.0614 23.4108 24.1975 22.5355 24.1975Z" fill="#FF001F"/>
<path d="M33.8476 16.057C34.509 16.057 35.0731 16.198 35.5399 16.4801C36.0067 16.7524 36.3374 17.156 36.5319 17.6909C36.7362 18.2259 36.7605 18.8872 36.6049 19.675L35.7296 24.0225H33.4537L34.2999 19.8209C34.4166 19.2471 34.3679 18.8045 34.154 18.4933C33.9497 18.1821 33.5704 18.0265 33.0161 18.0265C32.4422 18.0265 31.9608 18.1918 31.5718 18.5225C31.1925 18.8532 30.9299 19.3589 30.784 20.0397L29.9962 24.0225H27.7203L29.8795 13.1976H32.1553L31.1195 18.3912L30.6673 17.7201C31.0466 17.1463 31.5134 16.7281 32.0678 16.4655C32.6319 16.1932 33.2252 16.057 33.8476 16.057Z" fill="#FF001F"/>
<path d="M42.008 24.1392C41.191 24.1392 40.481 23.9933 39.878 23.7015C39.2847 23.4097 38.8228 23.0013 38.4921 22.4761C38.1614 21.9509 37.9961 21.3333 37.9961 20.6233C37.9961 19.748 38.1906 18.9699 38.5796 18.2891C38.9784 17.5985 39.523 17.0539 40.2136 16.6551C40.9138 16.2564 41.7162 16.057 42.6207 16.057C43.389 16.057 44.0504 16.2029 44.6048 16.4947C45.1591 16.7767 45.5871 17.1755 45.8886 17.6909C46.1998 18.1967 46.3554 18.8045 46.3554 19.5145C46.3554 19.7188 46.3408 19.923 46.3117 20.1273C46.2922 20.3315 46.263 20.526 46.2241 20.7108H39.7321L39.9655 19.3832H45.1591L44.2255 19.7917C44.3033 19.3541 44.279 18.9893 44.1525 18.6976C44.0261 18.3961 43.8218 18.1675 43.5398 18.0119C43.2577 17.8466 42.9173 17.7639 42.5186 17.7639C42.0226 17.7639 41.5995 17.8855 41.2494 18.1286C40.909 18.362 40.6512 18.6878 40.4762 19.1061C40.3011 19.5243 40.2136 19.996 40.2136 20.5212C40.2136 21.1242 40.3789 21.5764 40.7096 21.8779C41.05 22.1697 41.5606 22.3156 42.2414 22.3156C42.6402 22.3156 43.0243 22.2524 43.3939 22.1259C43.7635 21.9995 44.0796 21.8196 44.3422 21.5861L45.2904 23.0888C44.8333 23.4486 44.3179 23.7161 43.744 23.8912C43.1799 24.0565 42.6012 24.1392 42.008 24.1392Z" fill="#FF001F"/>
<path d="M50.3371 26.9694C49.5785 26.9694 48.8783 26.8819 48.2363 26.7068C47.6042 26.5317 47.0595 26.274 46.6024 25.9336L47.682 24.2851C47.9932 24.5379 48.392 24.7422 48.8783 24.8978C49.3743 25.0534 49.8946 25.1312 50.4392 25.1312C51.227 25.1312 51.8155 24.961 52.2045 24.6206C52.6033 24.2802 52.8707 23.7745 53.0069 23.1034L53.2841 21.6883L53.8093 19.8501L54.1594 17.866L54.4803 16.1737H56.6541L55.3557 22.7095C55.0542 24.217 54.4803 25.3014 53.6342 25.9628C52.7978 26.6339 51.6987 26.9694 50.3371 26.9694ZM50.6727 23.6432C50.0308 23.6432 49.4472 23.5119 48.922 23.2493C48.3968 22.9867 47.9786 22.6122 47.6674 22.1259C47.3562 21.6299 47.2005 21.0366 47.2005 20.3461C47.2005 19.7431 47.3075 19.1839 47.5215 18.6684C47.7452 18.1529 48.0516 17.7007 48.4406 17.3116C48.8393 16.9129 49.3013 16.6065 49.8265 16.3925C50.3614 16.1688 50.945 16.057 51.5772 16.057C52.151 16.057 52.6713 16.164 53.1382 16.378C53.605 16.5919 53.9649 16.9372 54.2177 17.4138C54.4803 17.8903 54.5776 18.5274 54.5095 19.3249C54.4512 20.1905 54.2615 20.9491 53.9406 21.6007C53.6196 22.2426 53.1819 22.7435 52.6276 23.1034C52.0829 23.4632 51.4313 23.6432 50.6727 23.6432ZM51.2854 21.7758C51.7328 21.7758 52.1267 21.6785 52.4671 21.484C52.8075 21.2895 53.075 21.022 53.2695 20.6816C53.464 20.3315 53.5612 19.9327 53.5612 19.4854C53.5612 19.0088 53.4056 18.6343 53.0944 18.362C52.7832 18.08 52.3504 17.9389 51.796 17.9389C51.3486 17.9389 50.9499 18.0362 50.5997 18.2307C50.2593 18.4252 49.987 18.6976 49.7828 19.0477C49.5882 19.3881 49.491 19.782 49.491 20.2294C49.491 20.706 49.6515 21.0853 49.9724 21.3673C50.2934 21.6396 50.731 21.7758 51.2854 21.7758Z" fill="#FF001F"/>
<path d="M61.3107 24.1392C60.5132 24.1392 59.8178 23.9933 59.2245 23.7015C58.6313 23.4097 58.1693 23.0013 57.8386 22.4761C57.5177 21.9509 57.3572 21.3333 57.3572 20.6233C57.3572 19.748 57.5614 18.9699 57.9699 18.2891C58.3784 17.5985 58.9376 17.0539 59.6476 16.6551C60.3673 16.2564 61.1843 16.057 62.0985 16.057C62.9058 16.057 63.6012 16.2029 64.1847 16.4947C64.778 16.7864 65.2351 17.1949 65.5561 17.7201C65.8867 18.2356 66.0521 18.8532 66.0521 19.5729C66.0521 20.4385 65.8478 21.2166 65.4393 21.9071C65.0309 22.5976 64.4716 23.1423 63.7616 23.541C63.0517 23.9398 62.2347 24.1392 61.3107 24.1392ZM61.4566 22.2718C61.904 22.2718 62.2979 22.1648 62.6383 21.9509C62.9884 21.7272 63.2608 21.4208 63.4553 21.0318C63.6498 20.6427 63.747 20.1905 63.747 19.675C63.747 19.1498 63.5914 18.7267 63.2802 18.4058C62.969 18.0848 62.5313 17.9244 61.9672 17.9244C61.5198 17.9244 61.1211 18.0362 60.7709 18.2599C60.4305 18.4739 60.1582 18.7754 59.954 19.1644C59.7595 19.5534 59.6622 20.0057 59.6622 20.5212C59.6622 21.0561 59.8178 21.484 60.129 21.805C60.4403 22.1162 60.8828 22.2718 61.4566 22.2718Z" fill="#FF001F"/>
<path d="M70.1121 24.1392C69.4702 24.1392 68.9158 24.003 68.449 23.7307C67.9821 23.4486 67.6514 23.0402 67.4569 22.5052C67.2624 21.9703 67.243 21.309 67.3986 20.5212L68.2593 16.1737H70.5352L69.7036 20.3753C69.5869 20.9491 69.6307 21.3916 69.8349 21.7029C70.0489 22.0141 70.4233 22.1697 70.9582 22.1697C71.5223 22.1697 71.994 22.0044 72.3733 21.6737C72.7624 21.343 73.0201 20.8373 73.1465 20.1564L73.9489 16.1737H76.2248L74.6638 24.0225H72.5046L72.9423 21.805L73.2633 22.4761C72.8937 23.0499 72.4317 23.473 71.8773 23.7453C71.3229 24.0079 70.7345 24.1392 70.1121 24.1392Z" fill="#FF001F"/>
<path d="M19.2041 11.4814L21.2465 1.26922H25.3751C26.6492 1.26922 27.6315 1.55127 28.3221 2.11537C29.0223 2.66974 29.3725 3.44781 29.3725 4.44957C29.3725 5.30545 29.1731 6.05434 28.7743 6.69624C28.3756 7.32842 27.8017 7.81472 27.0529 8.15512C26.3137 8.49552 25.4335 8.66573 24.4123 8.66573H21.1006L22.3553 7.58616L21.5821 11.4814H19.2041ZM22.2969 7.86334L21.4654 6.74001H24.5144C25.2925 6.74001 25.8955 6.56494 26.3234 6.21481C26.7611 5.85496 26.9799 5.33463 26.9799 4.65382C26.9799 4.1578 26.8146 3.79308 26.4839 3.55966C26.1532 3.31651 25.6864 3.19494 25.0834 3.19494H22.2094L23.464 2.04243L22.2969 7.86334Z" fill="#FF001F"/>
<path d="M33.759 11.5981C32.942 11.5981 32.2321 11.4522 31.6291 11.1604C31.0358 10.8686 30.5738 10.4601 30.2431 9.93495C29.9124 9.40975 29.7471 8.79216 29.7471 8.08218C29.7471 7.20685 29.9416 6.42878 30.3307 5.74797C30.7294 5.05744 31.2741 4.51279 31.9646 4.11403C32.6649 3.71527 33.4672 3.51589 34.3717 3.51589C35.1401 3.51589 35.8014 3.66178 36.3558 3.95356C36.9102 4.2356 37.3381 4.63436 37.6396 5.14983C37.9509 5.65558 38.1065 6.26344 38.1065 6.97343C38.1065 7.17767 38.0919 7.38192 38.0627 7.58616C38.0432 7.7904 38.0141 7.98492 37.9752 8.16971H31.4832L31.7166 6.84213H36.9102L35.9765 7.25062C36.0543 6.81295 36.03 6.44823 35.9036 6.15646C35.7771 5.85496 35.5729 5.6264 35.2908 5.47079C35.0088 5.30545 34.6684 5.22278 34.2696 5.22278C33.7736 5.22278 33.3505 5.34435 33.0004 5.5875C32.66 5.82092 32.4023 6.14673 32.2272 6.56494C32.0521 6.98316 31.9646 7.45486 31.9646 7.98005C31.9646 8.58306 32.1299 9.03531 32.4606 9.33681C32.801 9.62858 33.3116 9.77447 33.9924 9.77447C34.3912 9.77447 34.7754 9.71125 35.1449 9.58482C35.5145 9.45838 35.8306 9.27845 36.0932 9.04503L37.0415 10.5477C36.5844 10.9075 36.0689 11.175 35.4951 11.3501C34.931 11.5154 34.3523 11.5981 33.759 11.5981Z" fill="#FF001F"/>
<path d="M42.3216 11.5981C41.7186 11.5981 41.1594 11.4619 40.6439 11.1896C40.1284 10.9075 39.7151 10.5039 39.4038 9.97872C39.0926 9.45352 38.937 8.82134 38.937 8.08218C38.937 7.42082 39.044 6.81295 39.258 6.25858C39.4816 5.70421 39.7929 5.22278 40.1916 4.81429C40.5904 4.40581 41.0524 4.08972 41.5776 3.86602C42.1028 3.6326 42.6669 3.51589 43.2699 3.51589C43.8826 3.51589 44.4127 3.62288 44.86 3.83685C45.3074 4.05081 45.6527 4.38149 45.8958 4.82888C46.1487 5.26654 46.2752 5.82092 46.2752 6.492C46.2752 7.21171 46.1876 7.8828 46.0126 8.50525C45.8472 9.11798 45.5943 9.65776 45.2539 10.1246C44.9135 10.5817 44.4953 10.9416 43.9993 11.2042C43.513 11.4668 42.9538 11.5981 42.3216 11.5981ZM43.0219 9.71612C43.4692 9.71612 43.8631 9.60913 44.2035 9.39516C44.5537 9.17147 44.826 8.86997 45.0205 8.49066C45.2248 8.10163 45.3269 7.64938 45.3269 7.13391C45.3269 6.59898 45.1664 6.17591 44.8455 5.86468C44.5342 5.55346 44.0966 5.39784 43.5325 5.39784C43.0948 5.39784 42.7009 5.50969 42.3508 5.73338C42.0006 5.94735 41.7235 6.24885 41.5192 6.63789C41.3247 7.0172 41.2274 7.46458 41.2274 7.98005C41.2274 8.51498 41.383 8.93805 41.6943 9.24928C42.0152 9.5605 42.4578 9.71612 43.0219 9.71612ZM44.5683 11.4814L44.8892 9.92036L45.3852 7.58616L45.6916 5.25196L46.6107 0.656495H48.8865L46.7274 11.4814H44.5683Z" fill="#FF001F"/>
<path d="M48.8484 11.4814L50.4094 3.6326H52.6706L51.1096 11.4814H48.8484ZM51.9266 2.53845C51.5278 2.53845 51.2069 2.4266 50.9637 2.2029C50.7206 1.96948 50.599 1.68743 50.599 1.35676C50.599 0.967722 50.7352 0.646769 51.0075 0.393897C51.2895 0.131299 51.6543 0 52.1017 0C52.5004 0 52.8214 0.111847 53.0645 0.335542C53.3174 0.54951 53.4438 0.816971 53.4438 1.13792C53.4438 1.55614 53.3028 1.89654 53.0207 2.15914C52.7484 2.41201 52.3837 2.53845 51.9266 2.53845Z" fill="#FF001F"/>
<path d="M56.5776 11.5981C55.9356 11.5981 55.3813 11.4619 54.9144 11.1896C54.4476 10.9075 54.1169 10.499 53.9224 9.96413C53.7279 9.4292 53.7084 8.76785 53.864 7.98005L54.7248 3.6326H57.0006L56.1691 7.83417C56.0524 8.40799 56.0961 8.85052 56.3004 9.16174C56.5143 9.47297 56.8888 9.62858 57.4237 9.62858C57.9878 9.62858 58.4595 9.46325 58.8388 9.13257C59.2278 8.80189 59.4856 8.29614 59.612 7.61533L60.4144 3.6326H62.6902L61.1292 11.4814H58.9701L59.4078 9.26387L59.7287 9.93495C59.3591 10.5088 58.8972 10.9318 58.3428 11.2042C57.7884 11.4668 57.2 11.5981 56.5776 11.5981Z" fill="#FF001F"/>
<path fill-rule="evenodd" clip-rule="evenodd" d="M19.0882 4.29202H11.0365V5.5228H18.8345L19.0882 4.29202ZM18.4961 7.16385H5.51823V8.39463H18.2423L18.4961 7.16385ZM17.904 10.0357H0V11.2665H17.6502L17.904 10.0357Z" fill="#FF001F"/>
<path fill-rule="evenodd" clip-rule="evenodd" d="M76.1822 24.0223H82.4432V22.735H76.6232L76.1822 24.0223ZM77.2113 21.0187H86.7216V19.7315H77.6524L77.2113 21.0187ZM78.2405 18.0151H91V16.7279H78.6815L78.2405 18.0151Z" fill="#FF001F"/>
</svg>
